<svg width="32" height="32" viewBox="0 0 32 32" fill="none" xmlns="http://www.w3.org/2000/svg">
<path d="M16.3846 11.7692C19.3585 11.7692 21.7692 9.35846 21.7692 6.38462C21.7692 3.41077 19.3585 1 16.3846 1C13.4108 1 11 3.41077 11 6.38462C11 9.35846 13.4108 11.7692 16.3846 11.7692Z" stroke="#14C6A4" stroke-width="2" stroke-linecap="round" stroke-linejoin="round"/>
<path d="M1 29.4615C1 22.6638 7.19923 17.1538 14.8462 17.1538" stroke="#14C6A4" stroke-width="2" stroke-linecap="round" stroke-linejoin="round"/>
<path d="M24.0769 31C27.9004 31 31 27.9004 31 24.0769C31 20.2534 27.9004 17.1538 24.0769 17.1538C20.2534 17.1538 17.1538 20.2534 17.1538 24.0769C17.1538 27.9004 20.2534 31 24.0769 31Z" stroke="#14C6A4" stroke-width="2"/>
<path d="M23.3076 21.7693V24.8462H26.3845" stroke="#14C6A4" stroke-width="2" stroke-linecap="round" stroke-linejoin="round"/>
</svg>
