<svg width="24" height="24" viewBox="0 0 24 24" fill="none" xmlns="http://www.w3.org/2000/svg">
<path d="M9.27273 14.9091H19.2727M9.27273 11.2727H12.9091M9.27273 7.63636H12.9091M4.27273 20.3636C4.87549 20.3636 5.45357 20.1242 5.87979 19.698C6.30601 19.2718 6.54545 18.6937 6.54545 18.0909V4H22V18.0909C22 18.6937 21.7606 19.2718 21.3343 19.698C20.9081 20.1242 20.33 20.3636 19.7273 20.3636H4.27273ZM4.27273 20.3636C3.66996 20.3636 3.09189 20.1242 2.66567 19.698C2.23945 19.2718 2 18.6937 2 18.0909V7.63636H6.56818M15.6364 7.63636H18.3636V11.2727H15.6364V7.63636Z" stroke="#14C6A4" stroke-width="1"/>
</svg>
