<svg width="45" height="45" viewBox="0 0 45 45" fill="none" xmlns="http://www.w3.org/2000/svg">
<path d="M0 22.5C0 10.0736 10.0736 0 22.5 0C34.9264 0 45 10.0736 45 22.5C45 34.9264 34.9264 45 22.5 45C10.0736 45 0 34.9264 0 22.5Z" fill="#14C6A4"/>
<path d="M29.25 15H23.25V12C23.25 11.8011 23.171 11.6103 23.0303 11.4697C22.8897 11.329 22.6989 11.25 22.5 11.25C22.3011 11.25 22.1103 11.329 21.9697 11.4697C21.829 11.6103 21.75 11.8011 21.75 12V15H15.75C14.9544 15 14.1913 15.3161 13.6287 15.8787C13.0661 16.4413 12.75 17.2044 12.75 18V28.5C12.75 29.2956 13.0661 30.0587 13.6287 30.6213C14.1913 31.1839 14.9544 31.5 15.75 31.5H29.25C30.0456 31.5 30.8087 31.1839 31.3713 30.6213C31.9339 30.0587 32.25 29.2956 32.25 28.5V18C32.25 17.2044 31.9339 16.4413 31.3713 15.8787C30.8087 15.3161 30.0456 15 29.25 15ZM30.75 28.5C30.75 28.8978 30.592 29.2794 30.3107 29.5607C30.0294 29.842 29.6478 30 29.25 30H15.75C15.3522 30 14.9706 29.842 14.6893 29.5607C14.408 29.2794 14.25 28.8978 14.25 28.5V18C14.25 17.6022 14.408 17.2206 14.6893 16.9393C14.9706 16.658 15.3522 16.5 15.75 16.5H29.25C29.6478 16.5 30.0294 16.658 30.3107 16.9393C30.592 17.2206 30.75 17.6022 30.75 18V28.5ZM25.875 23.25H19.125C18.4288 23.25 17.7611 23.5266 17.2688 24.0188C16.7766 24.5111 16.5 25.1788 16.5 25.875C16.5 26.5712 16.7766 27.2389 17.2688 27.7312C17.7611 28.2234 18.4288 28.5 19.125 28.5H25.875C26.5712 28.5 27.2389 28.2234 27.7312 27.7312C28.2234 27.2389 28.5 26.5712 28.5 25.875C28.5 25.1788 28.2234 24.5111 27.7312 24.0188C27.2389 23.5266 26.5712 23.25 25.875 23.25ZM23.25 24.75V27H21.75V24.75H23.25ZM18 25.875C18 25.5766 18.1185 25.2905 18.3295 25.0795C18.5405 24.8685 18.8266 24.75 19.125 24.75H20.25V27H19.125C18.8266 27 18.5405 26.8815 18.3295 26.6705C18.1185 26.4595 18 26.1734 18 25.875ZM25.875 27H24.75V24.75H25.875C26.1734 24.75 26.4595 24.8685 26.6705 25.0795C26.8815 25.2905 27 25.5766 27 25.875C27 26.1734 26.8815 26.4595 26.6705 26.6705C26.4595 26.8815 26.1734 27 25.875 27ZM17.25 20.625C17.25 20.4025 17.316 20.185 17.4396 20C17.5632 19.815 17.7389 19.6708 17.9445 19.5856C18.15 19.5005 18.3762 19.4782 18.5945 19.5216C18.8127 19.565 19.0132 19.6722 19.1705 19.8295C19.3278 19.9868 19.435 20.1873 19.4784 20.4055C19.5218 20.6238 19.4995 20.85 19.4144 21.0555C19.3292 21.2611 19.185 21.4368 19 21.5604C18.815 21.684 18.5975 21.75 18.375 21.75C18.0766 21.75 17.7905 21.6315 17.5795 21.4205C17.3685 21.2095 17.25 20.9234 17.25 20.625ZM25.5 20.625C25.5 20.4025 25.566 20.185 25.6896 20C25.8132 19.815 25.9889 19.6708 26.1945 19.5856C26.4 19.5005 26.6262 19.4782 26.8445 19.5216C27.0627 19.565 27.2632 19.6722 27.4205 19.8295C27.5778 19.9868 27.685 20.1873 27.7284 20.4055C27.7718 20.6238 27.7495 20.85 27.6644 21.0555C27.5792 21.2611 27.435 21.4368 27.25 21.5604C27.065 21.684 26.8475 21.75 26.625 21.75C26.3266 21.75 26.0405 21.6315 25.8295 21.4205C25.6185 21.2095 25.5 20.9234 25.5 20.625Z" fill="#FBFBFB"/>
</svg>
