<svg width="428" height="427" viewBox="0 0 428 427" fill="none" xmlns="http://www.w3.org/2000/svg">
<path d="M0 16C0 7.16343 7.16344 0 16 0H412C420.837 0 428 7.16344 428 16V410.905C428 419.741 420.837 426.905 412 426.905H16C7.16345 426.905 0 419.741 0 410.905V16Z" fill="#B6EDE3"/>
<path d="M131.914 340.347C132.016 340.347 132.114 340.286 132.162 340.181L139.408 324.265C139.475 324.119 139.418 323.943 139.282 323.872C139.145 323.8 138.981 323.861 138.914 324.007L131.668 339.924C131.601 340.07 131.658 340.246 131.794 340.317C131.833 340.338 131.874 340.347 131.915 340.347L131.914 340.347Z" fill="#292A2E"/>
<path d="M119.665 339.423C119.787 339.423 119.898 339.335 119.93 339.203L128.316 304.92C128.354 304.763 128.266 304.602 128.12 304.561C127.972 304.52 127.823 304.614 127.784 304.771L119.398 339.054C119.36 339.211 119.448 339.372 119.595 339.413C119.618 339.42 119.642 339.423 119.665 339.423Z" fill="#292A2E"/>
<path d="M103.668 340.941C103.704 340.941 103.74 340.933 103.775 340.917C103.915 340.853 103.98 340.681 103.921 340.531L95.2525 318.67C95.1931 318.52 95.0317 318.45 94.8923 318.513C94.7525 318.577 94.6877 318.75 94.7466 318.899L103.415 340.761C103.46 340.873 103.561 340.94 103.668 340.94V340.941Z" fill="#292A2E"/>
<path d="M119.354 346.006C119.376 346.006 119.398 346.003 119.421 345.997C119.568 345.958 119.657 345.798 119.621 345.64L109.548 302.489C109.511 302.332 109.362 302.236 109.214 302.275C109.067 302.315 108.977 302.474 109.014 302.632L119.087 345.783C119.119 345.917 119.23 346.006 119.354 346.006Z" fill="#292A2E"/>
<path d="M115.781 311.332C118.514 305.18 116.731 298.155 111.798 295.642C106.865 293.13 100.651 296.08 97.9179 302.232C95.1849 308.384 96.9684 315.409 101.901 317.921C106.834 320.434 113.049 317.484 115.781 311.332Z" fill="#0CBC8B"/>
<path opacity="0.4" d="M115.781 311.332C118.514 305.18 116.731 298.155 111.798 295.642C106.865 293.13 100.651 296.08 97.9179 302.232C95.1849 308.384 96.9684 315.409 101.901 317.921C106.834 320.434 113.049 317.484 115.781 311.332Z" fill="white"/>
<path d="M98.8278 325.535C100.253 321.745 99.0045 317.636 96.0385 316.357C93.0725 315.077 89.5125 317.113 88.087 320.903C86.6615 324.693 87.9103 328.803 90.8763 330.082C93.8423 331.361 97.4023 329.326 98.8278 325.535Z" fill="#0CBC8B"/>
<path d="M133.778 320.672C138.184 319.241 140.426 313.387 138.786 307.596C137.146 301.806 132.245 298.272 127.839 299.703C123.433 301.134 121.191 306.988 122.831 312.778C124.471 318.569 129.372 322.103 133.778 320.672Z" fill="#0CBC8B"/>
<path d="M141.356 332.994C143.815 332.553 145.339 329.191 144.759 325.484C144.179 321.777 141.716 319.129 139.256 319.57C136.797 320.012 135.273 323.374 135.853 327.081C136.433 330.788 138.896 333.435 141.356 332.994Z" fill="#0CBC8B"/>
<path d="M95.583 346.41H138.371V334.992H95.583V346.41Z" fill="#292A2E"/>
<path opacity="0.3" d="M95.583 346.41H138.371V334.992H95.583V346.41Z" fill="white"/>
<path d="M115.863 332.124C117.602 327.5 116.065 322.481 112.43 320.913C108.795 319.345 104.438 321.823 102.699 326.446C100.961 331.07 102.497 336.089 106.132 337.657C109.767 339.225 114.124 336.747 115.863 332.124Z" fill="#0CBC8B"/>
<path d="M125.359 336.511C128.98 336.511 131.914 333.368 131.914 329.491C131.914 325.614 128.98 322.472 125.359 322.472C121.739 322.472 118.804 325.614 118.804 329.491C118.804 333.368 121.739 336.511 125.359 336.511Z" fill="#0CBC8B"/>
<path opacity="0.68" d="M98.8278 325.535C100.253 321.745 99.0045 317.636 96.0385 316.357C93.0725 315.077 89.5125 317.113 88.087 320.903C86.6615 324.693 87.9103 328.803 90.8763 330.082C93.8423 331.361 97.4023 329.326 98.8278 325.535Z" fill="white"/>
<path opacity="0.68" d="M133.778 320.672C138.184 319.241 140.426 313.387 138.786 307.596C137.146 301.806 132.245 298.272 127.839 299.703C123.433 301.134 121.191 306.988 122.831 312.778C124.471 318.569 129.372 322.103 133.778 320.672Z" fill="white"/>
<path opacity="0.68" d="M141.356 332.994C143.815 332.553 145.339 329.191 144.759 325.484C144.179 321.777 141.716 319.129 139.256 319.57C136.797 320.012 135.273 323.374 135.853 327.081C136.433 330.788 138.896 333.435 141.356 332.994Z" fill="white"/>
<path opacity="0.68" d="M115.863 332.124C117.602 327.5 116.065 322.481 112.43 320.913C108.795 319.345 104.438 321.823 102.699 326.446C100.961 331.07 102.497 336.089 106.132 337.657C109.767 339.225 114.124 336.747 115.863 332.124Z" fill="white"/>
<path opacity="0.4" d="M125.359 336.511C128.98 336.511 131.914 333.368 131.914 329.491C131.914 325.614 128.98 322.472 125.359 322.472C121.739 322.472 118.804 325.614 118.804 329.491C118.804 333.368 121.739 336.511 125.359 336.511Z" fill="white"/>
<path d="M104.303 323.582C109.279 325.07 111.898 320.716 111.898 320.716L111.895 320.71C109.241 319.863 106.299 321.055 104.304 323.582H104.303Z" fill="#292A2E"/>
<path d="M135.732 325.364C138.185 324.399 140.142 322.467 141.449 319.969C140.754 319.589 140.004 319.436 139.256 319.572C137.185 319.942 135.778 322.387 135.731 325.364H135.732Z" fill="#292A2E"/>
<path d="M124.19 322.584C126.218 324.473 128.591 325.667 131.028 325.964C129.891 323.876 127.778 322.472 125.36 322.472C124.959 322.472 124.569 322.511 124.19 322.584Z" fill="#292A2E"/>
<path d="M203.018 90.4214H59.7334C54.9342 90.4214 51.0437 94.5875 51.0437 99.7267V249.143C51.0437 254.282 54.9342 258.448 59.7334 258.448H203.018C207.818 258.448 211.708 254.282 211.708 249.143V99.7267C211.708 94.5875 207.818 90.4214 203.018 90.4214Z" fill="#F4F4F4"/>
<path d="M142.537 160.877C142.451 160.864 141.491 177.914 122.996 176.427C110.191 175.4 105.625 160.853 105.332 160.853C106.712 160.538 108.418 160.061 109.097 159.898C111.349 159.354 114.161 157.364 114.811 153.171C115.186 150.754 114.55 138.391 114.746 135.946L134.401 140.644C134.126 145.808 132.204 157.78 138.941 159.898C140.062 160.249 141.27 160.571 142.537 160.877V160.877Z" fill="#FF9E85"/>
<path opacity="0.22" d="M134.677 155.005C134.398 154.054 134.233 153.226 134.086 151.739C133.822 149.078 133.962 146.633 134.214 144.141C130.243 143.575 126.431 141.787 123.351 139.044C122.986 140.488 120.979 146.794 121.534 148.166C122.585 150.759 127.521 155.005 134.677 155.005Z" fill="#0C0C0C"/>
<path d="M146.364 122.455C146.364 122.455 152.004 117.967 153.467 107.543C154.599 99.4726 147.603 104.651 147.603 104.651C147.603 104.651 148.366 98.8311 144.4 99.3778C140.434 99.924 138.17 106.026 138.17 106.026" fill="#0C0C0C"/>
<path d="M123.908 99.8955C123.908 99.8955 104.225 101.996 111.135 130.59L112.874 130.729L116.405 131.01" fill="#0C0C0C"/>
<path d="M130.951 151.307C123.202 150.501 113.958 145.18 113.903 133.908L113.853 123.737C113.798 112.465 119.282 103.296 129.193 103.24C139.105 103.184 146.558 112.281 146.613 123.553L146.635 128.056C146.639 128.983 146.556 130.647 146.288 132.675C145.751 136.721 144.92 142.873 142.324 147.018C139.872 150.932 135.901 151.823 130.951 151.307Z" fill="#FF9E85"/>
<path d="M134.985 142.802C134.8 142.802 134.63 142.671 134.577 142.471C133.732 139.256 129.494 140.027 129.314 140.061C129.084 140.104 128.864 139.941 128.822 139.695C128.781 139.448 128.934 139.212 129.164 139.168C130.95 138.821 134.55 139.017 135.393 142.225C135.456 142.466 135.325 142.717 135.099 142.784C135.061 142.796 135.022 142.802 134.985 142.802V142.802Z" fill="#0C0C0C"/>
<path d="M142.828 129.892C142.913 129.259 142.504 128.672 141.913 128.581C141.322 128.489 140.774 128.928 140.689 129.56C140.603 130.193 141.013 130.78 141.604 130.871C142.194 130.963 142.743 130.524 142.828 129.892Z" fill="#0A0A0A"/>
<path d="M134.43 136.92C134.213 136.886 134.052 136.683 134.06 136.444C134.07 136.188 134.271 135.989 134.51 135.999L136.81 136.096L136.07 131.034C136.033 130.781 136.194 130.545 136.43 130.505C136.666 130.466 136.887 130.638 136.924 130.891L137.745 136.51C137.765 136.647 137.727 136.786 137.641 136.889C137.555 136.993 137.43 137.049 137.301 137.044L134.475 136.924C134.46 136.924 134.445 136.922 134.43 136.92H134.43Z" fill="#0A0A0A"/>
<path d="M132.453 123.281C132.51 123.638 131.282 123.969 129.588 124.185C127.895 124.4 126.374 124.509 126.321 124.061C126.254 123.496 127.642 122.404 129.335 122.189C131.029 121.973 132.364 122.72 132.453 123.281Z" fill="#0A0A0A"/>
<path d="M131.537 129.021C131.622 128.388 131.212 127.801 130.622 127.709C130.031 127.618 129.483 128.057 129.397 128.689C129.312 129.322 129.722 129.909 130.312 130C130.903 130.092 131.451 129.653 131.537 129.021Z" fill="#0A0A0A"/>
<path d="M145.412 125.533C145.329 125.884 144.081 125.653 142.451 125.114C140.822 124.575 139.39 124.013 139.512 123.581C139.665 123.035 141.179 122.574 142.808 123.113C144.437 123.652 145.543 124.98 145.412 125.532L145.412 125.533Z" fill="#0A0A0A"/>
<path d="M114.535 137.338C111.523 137.355 109.064 133.918 109.049 130.693C109.033 127.468 111.466 125.675 114.478 125.658L116.04 127.811L117.124 137.324L114.535 137.338Z" fill="#FF9E85"/>
<path d="M116.65 132.085C117.153 132.137 117.6 131.748 117.651 131.21C117.982 127.74 119.374 116.097 123.219 115.291C126.231 114.659 133.493 119.286 140.259 117.961C143.219 117.381 146.019 118.187 146.294 119.684C146.403 120.277 148.304 111.785 143.72 105.292C140.071 100.122 128.022 98.5744 122.523 100.216C107.299 104.761 113.852 126.356 113.852 126.356L114.401 131.08C114.454 131.536 114.795 131.891 115.222 131.936L116.651 132.085H116.65Z" fill="#0C0C0C"/>
<path d="M138.511 110.782C140.744 110.301 142.018 107.059 141.357 103.539C140.696 100.02 138.35 97.5572 136.117 98.0382C133.885 98.5191 132.611 101.762 133.272 105.281C133.933 108.8 136.279 111.263 138.511 110.782Z" fill="#0C0C0C"/>
<path d="M199.189 165.696L202.887 153.044C203.227 151.879 204.428 151.258 205.506 151.732C206.462 152.152 206.904 153.344 206.595 154.4L205.803 157.113L211.953 149.807C212.624 148.983 213.94 148.429 214.754 149.296C215.456 149.95 215.616 151.02 215.196 151.863C215.204 151.869 215.214 151.873 215.221 151.881C215.227 151.887 215.229 151.894 215.234 151.9L216.269 150.628C217.066 149.647 218.528 149.652 219.312 150.741C219.886 151.54 219.794 152.681 219.176 153.441L218.736 153.983C218.745 154.004 218.75 154.026 218.751 154.048C219.507 153.463 220.579 153.515 221.281 154.26C222.025 155.051 222.003 156.353 221.315 157.2L220.221 158.545C220.277 158.531 220.336 158.542 220.382 158.585C220.409 158.611 220.424 158.644 220.432 158.679C221.212 158.37 222.145 158.603 222.707 159.422C223.254 160.218 223.148 161.333 222.542 162.079L213.32 173.425C210.681 176.672 206.466 177.879 202.665 176.477C199.334 175.248 197.521 171.405 198.573 167.805L199.189 165.696Z" fill="#FF9E85"/>
<g opacity="0.2">
<path d="M209.142 159.127C209.216 159.195 209.328 159.188 209.394 159.109L215.234 152.153C215.301 152.074 215.295 151.951 215.221 151.88C215.156 151.807 215.032 151.815 214.965 151.894L209.125 158.85C209.058 158.93 209.064 159.052 209.138 159.124L209.142 159.127Z" fill="#0C0C0C"/>
</g>
<g opacity="0.2">
<path d="M211.935 161.97C212.009 162.038 212.121 162.031 212.187 161.952L218.705 154.189C218.772 154.11 218.766 153.988 218.692 153.916C218.623 153.851 218.503 153.851 218.436 153.93L211.918 161.693C211.851 161.773 211.857 161.895 211.931 161.967L211.935 161.97Z" fill="#0C0C0C"/>
</g>
<g opacity="0.2">
<path d="M214.945 165.068C215.019 165.136 215.131 165.129 215.197 165.05L220.396 158.858C220.463 158.779 220.457 158.656 220.382 158.585C220.306 158.514 220.194 158.52 220.127 158.599L214.928 164.791C214.861 164.87 214.867 164.993 214.941 165.065L214.945 165.068Z" fill="#0C0C0C"/>
</g>
<path d="M48.7906 169.187L44.9508 156.049C44.5975 154.839 43.3497 154.194 42.2308 154.687C41.2385 155.123 40.7792 156.361 41.1 157.457L41.9232 160.275L35.5366 152.688C34.8401 151.831 33.4741 151.257 32.628 152.157C31.8993 152.836 31.7332 153.948 32.1696 154.823C32.1611 154.829 32.151 154.833 32.1438 154.841C32.1378 154.847 32.1349 154.854 32.1298 154.861L31.0562 153.54C30.2279 152.521 28.7098 152.526 27.8959 153.658C27.2998 154.487 27.3956 155.672 28.037 156.461L28.4942 157.023C28.4853 157.045 28.4798 157.068 28.4781 157.092C27.6938 156.483 26.5804 156.538 25.8512 157.312C25.0784 158.132 25.1013 159.485 25.8156 160.364L26.9507 161.76C26.8935 161.746 26.8321 161.758 26.7833 161.803C26.7558 161.83 26.7405 161.864 26.7312 161.9C25.9216 161.58 24.9522 161.821 24.3692 162.671C23.8019 163.498 23.9112 164.657 24.5408 165.431L34.1173 177.213C36.8576 180.585 41.2347 181.839 45.1817 180.383C48.6406 179.106 50.5239 175.115 49.4312 171.377L48.7915 169.187L48.7906 169.187Z" fill="#FF9E85"/>
<g opacity="0.2">
<path d="M38.4565 162.366C38.3794 162.437 38.2628 162.429 38.1946 162.348L32.1296 155.124C32.0606 155.042 32.0665 154.915 32.1436 154.84C32.211 154.765 32.3393 154.773 32.4088 154.855L38.4738 162.079C38.5429 162.161 38.537 162.288 38.4599 162.363L38.4565 162.366Z" fill="#0C0C0C"/>
</g>
<g opacity="0.2">
<path d="M35.5552 165.318C35.4781 165.389 35.3616 165.381 35.2934 165.3L28.5246 157.239C28.4556 157.156 28.4615 157.029 28.5386 156.955C28.6094 156.887 28.7344 156.887 28.8038 156.97L35.5726 165.031C35.6416 165.113 35.6357 165.24 35.5586 165.315L35.5552 165.318Z" fill="#0C0C0C"/>
</g>
<g opacity="0.2">
<path d="M32.4298 168.535C32.3527 168.606 32.2362 168.598 32.1679 168.517L26.7685 162.087C26.6995 162.004 26.7054 161.877 26.7825 161.803C26.8617 161.73 26.9783 161.736 27.0477 161.818L32.4471 168.248C32.5162 168.33 32.5103 168.457 32.4332 168.532L32.4298 168.535Z" fill="#0C0C0C"/>
</g>
<path d="M164.204 168.578L195.958 231.355L172.286 233.709L194.843 163.719L220.527 173.447L196.974 243.06C194.502 250.365 186.968 254.141 180.146 251.494C177.255 250.372 174.955 248.277 173.453 245.678L173.302 245.415L138.224 184.701L164.204 168.578Z" fill="#085345"/>
<path d="M122.596 172.128C109.8 171.482 109.261 159.851 109.261 159.851C109.261 159.851 102.921 160.29 98.7062 160.9C91.8057 161.9 87.2537 164.406 83.6308 168.285C80.2608 171.894 78.2089 175.798 80.3803 200.726C81.9521 218.776 80.8459 258.477 80.8459 258.477H158.074C158.074 258.477 162.705 206.44 163.351 198.315C164.583 182.804 169.628 174.062 162.576 166.072C157.462 160.278 144.26 159.852 138.945 159.852C138.859 159.852 140.023 173.008 122.596 172.128V172.128Z" fill="#085345"/>
<path d="M107.032 188.078L70.8911 244.363L70.728 244.617C66.6149 251.022 58.4311 252.645 52.4491 248.24C50.0659 246.486 48.3924 244.038 47.5005 241.325L26.4253 177.354L52.1924 167.878L72.2673 232.217L48.8766 229.178L81.7874 170.666L107.032 188.078Z" fill="#085345"/>
<path d="M161.184 223.549C161.178 223.549 161.172 223.549 161.167 223.548C161.064 223.538 160.988 223.44 160.997 223.329L163.446 195.375C163.456 195.265 163.551 195.189 163.651 195.194C163.754 195.204 163.83 195.302 163.821 195.413L161.371 223.367C161.362 223.47 161.28 223.548 161.185 223.548L161.184 223.549Z" fill="#0C0C0C"/>
<path d="M81.217 226.807C81.1162 226.807 81.0331 226.722 81.0293 226.614L80.193 200.733C80.1896 200.622 80.2705 200.529 80.3739 200.524C80.4662 200.523 80.5641 200.607 80.5684 200.718L81.4047 226.599C81.4081 226.71 81.3272 226.803 81.2238 226.807H81.217Z" fill="#0C0C0C"/>
<path d="M289.332 192.553V159.056C289.332 156.808 287.63 154.986 285.531 154.986H249.356C247.257 154.986 245.556 156.808 245.556 159.056V182.792C245.556 185.04 247.257 186.862 249.356 186.862H279.405L287.909 193.339C288.506 193.793 289.331 193.336 289.331 192.553L289.332 192.553Z" fill="#3EAFFF"/>
<path opacity="0.5" d="M289.332 192.553V159.056C289.332 156.808 287.63 154.986 285.531 154.986H249.356C247.257 154.986 245.556 156.808 245.556 159.056V182.792C245.556 185.04 247.257 186.862 249.356 186.862H279.405L287.909 193.339C288.506 193.793 289.331 193.336 289.331 192.553L289.332 192.553Z" fill="white"/>
<path d="M279.409 175.299C281.504 175.299 283.203 173.48 283.203 171.236C283.203 168.993 281.504 167.174 279.409 167.174C277.314 167.174 275.615 168.993 275.615 171.236C275.615 173.48 277.314 175.299 279.409 175.299Z" fill="white"/>
<path d="M267.443 175.299C269.539 175.299 271.238 173.48 271.238 171.236C271.238 168.993 269.539 167.174 267.443 167.174C265.348 167.174 263.649 168.993 263.649 171.236C263.649 173.48 265.348 175.299 267.443 175.299Z" fill="white"/>
<path d="M255.478 175.299C257.573 175.299 259.272 173.48 259.272 171.236C259.272 168.993 257.573 167.174 255.478 167.174C253.383 167.174 251.684 168.993 251.684 171.236C251.684 173.48 253.383 175.299 255.478 175.299Z" fill="white"/>
<path d="M182.58 130.289V83.9249C182.58 81.7572 184.221 80 186.245 80H237.171C239.195 80 240.836 81.7572 240.836 83.9249V118.495C240.836 120.663 239.195 122.42 237.171 122.42H195.79L184.248 131.21C183.549 131.743 182.58 131.208 182.58 130.289Z" fill="#0099FF"/>
<path d="M211.708 116.796C212.947 116.796 213.951 115.72 213.951 114.394C213.951 113.067 212.947 111.992 211.708 111.992C210.469 111.992 209.465 113.067 209.465 114.394C209.465 115.72 210.469 116.796 211.708 116.796Z" fill="white"/>
<path d="M211.603 109.18C210.797 109.18 210.143 108.48 210.143 107.617V101.809C210.143 101.087 210.605 100.459 211.261 100.289C211.325 100.273 217.856 98.5023 217.856 93.7952C217.856 90.8417 215.595 88.7787 212.357 88.7787C208.852 88.7787 207.049 92.5317 206.975 92.6918C206.613 93.4609 205.739 93.7762 205.018 93.3924C204.299 93.009 204.002 92.0775 204.357 91.3054C204.463 91.0744 207.016 85.6519 212.357 85.6519C217.236 85.6519 220.776 89.0768 220.776 93.7952C220.776 99.4823 215.448 102.087 213.064 102.968V107.617C213.064 108.48 212.41 109.18 211.604 109.18L211.603 109.18Z" fill="white"/>
<path d="M314.536 213.449C319.869 213.449 324.192 208.82 324.192 203.109C324.192 197.399 319.869 192.77 314.536 192.77C309.203 192.77 304.88 197.399 304.88 203.109C304.88 208.82 309.203 213.449 314.536 213.449Z" fill="#085345"/>
<path d="M310.011 202.13C309.519 202.13 309.05 201.822 308.843 201.308C308.669 200.876 304.627 190.546 309.017 175.392C313.773 158.978 330.336 158.788 330.503 158.788C331.205 158.788 331.774 159.397 331.774 160.149C331.774 160.901 331.206 161.509 330.505 161.51C329.9 161.512 315.639 161.724 311.445 176.199C307.33 190.401 311.138 200.133 311.177 200.23C311.455 200.92 311.158 201.721 310.513 202.018C310.35 202.094 310.178 202.131 310.011 202.131V202.13Z" fill="#085345"/>
<path d="M311.04 213.449C316.373 213.449 320.696 208.82 320.696 203.109C320.696 197.399 316.373 192.77 311.04 192.77C305.708 192.77 301.385 197.399 301.385 203.109C301.385 208.82 305.708 213.449 311.04 213.449Z" fill="#085345"/>
<path opacity="0.3" d="M311.04 213.449C316.373 213.449 320.696 208.82 320.696 203.109C320.696 197.399 316.373 192.77 311.04 192.77C305.708 192.77 301.385 197.399 301.385 203.109C301.385 208.82 305.708 213.449 311.04 213.449Z" fill="white"/>
<path d="M313.357 213.449C318.69 213.449 323.013 208.82 323.013 203.109C323.013 197.399 318.69 192.77 313.357 192.77C308.024 192.77 303.701 197.399 303.701 203.109C303.701 208.82 308.024 213.449 313.357 213.449Z" fill="#085345"/>
<path d="M358.903 184.505C358.903 184.505 362.005 200.423 365.71 205.239C376.376 219.103 381.058 235.757 373.404 245.915C365.75 256.074 312.431 264.278 305.617 244.439C299.879 227.736 306.034 224.778 306.109 210.305C306.143 203.757 306.99 189.945 306.99 189.945" fill="#0A0A0A"/>
<path d="M314.341 236.017C314.438 236.003 315.52 255.222 336.369 253.546C350.803 252.388 355.95 235.989 356.281 235.989C354.724 235.635 352.104 235.12 351.413 234.725C349.14 233.417 346.328 232.056 345.595 227.33C345.173 224.606 345.889 210.67 345.669 207.913L323.513 213.209C323.822 219.03 325.989 232.525 318.395 234.913C317.131 235.308 315.77 235.671 314.341 236.017Z" fill="#FF9E85"/>
<path opacity="0.5" d="M323.202 229.398C323.516 228.326 323.702 227.393 323.868 225.716C324.165 222.717 324.007 219.961 323.723 217.152C328.199 216.514 332.496 214.498 335.968 211.407C336.38 213.034 338.642 220.143 338.016 221.69C336.832 224.612 331.267 229.399 323.202 229.399V229.398Z" fill="#0C0C0C"/>
<path d="M327.146 225.177C335.916 224.824 346.65 219.498 347.416 206.818L348.107 195.376C348.872 182.696 343.274 171.986 332.125 171.214C320.976 170.442 312.021 180.145 311.255 192.825L310.95 197.89C310.656 202.756 311.499 225.807 327.146 225.177L327.146 225.177Z" fill="#FF9E85"/>
<path d="M311.907 192.796C311.947 193.202 313.376 193.16 315.278 192.84C317.179 192.52 318.863 192.14 318.792 191.637C318.703 191.001 317.082 190.746 315.181 191.066C313.279 191.387 311.843 192.157 311.906 192.796L311.907 192.796Z" fill="#0A0A0A"/>
<path d="M314.551 197.998C315.225 197.998 315.771 197.413 315.771 196.692C315.771 195.971 315.225 195.386 314.551 195.386C313.878 195.386 313.332 195.971 313.332 196.692C313.332 197.413 313.878 197.998 314.551 197.998Z" fill="#0A0A0A"/>
<path d="M321.456 207.416C321.703 207.416 321.915 207.216 321.941 206.948C321.969 206.66 321.774 206.404 321.506 206.374L318.922 206.084L320.513 200.557C320.592 200.281 320.447 199.989 320.189 199.904C319.932 199.819 319.659 199.973 319.579 200.249L317.814 206.384C317.771 206.533 317.793 206.695 317.874 206.826C317.954 206.956 318.085 207.041 318.23 207.057L321.405 207.413C321.422 207.415 321.439 207.415 321.456 207.415L321.456 207.416Z" fill="#0A0A0A"/>
<path d="M323.032 213.333C327.455 213.333 328.771 210.471 328.83 210.337C328.945 210.076 328.84 209.765 328.597 209.641C328.355 209.518 328.065 209.629 327.949 209.888C327.894 210.01 326.543 212.821 321.676 212.198C321.403 212.162 321.165 212.368 321.133 212.655C321.101 212.941 321.292 213.201 321.56 213.235C322.084 213.303 322.575 213.333 323.031 213.333L323.032 213.333Z" fill="#0A0A0A"/>
<path d="M326.723 192.522C326.607 192.911 327.928 193.493 329.788 194.027C331.648 194.56 333.33 194.945 333.457 194.454C333.616 193.835 332.231 192.897 330.371 192.364C328.512 191.83 326.908 191.91 326.723 192.522V192.522Z" fill="#0A0A0A"/>
<path d="M326.783 198.831C327.457 198.831 328.003 198.246 328.003 197.524C328.003 196.803 327.457 196.218 326.783 196.218C326.11 196.218 325.564 196.803 325.564 197.524C325.564 198.246 326.11 198.831 326.783 198.831Z" fill="#0A0A0A"/>
<path d="M357.134 198.113L345.704 202.675C337.939 200.445 335.568 181.835 335.568 181.835C335.568 181.835 329.356 192.396 306.969 189.933C306.969 189.933 305.879 156.374 339.157 162.056C349.859 163.884 358.61 173.95 359.402 189.031C359.957 199.6 357.134 198.113 357.134 198.113Z" fill="#0A0A0A"/>
<path d="M346.49 210.633C349.878 210.868 352.859 207.176 353.078 203.548C353.297 199.92 350.671 197.729 347.283 197.494L345.391 199.804L343.577 210.431L346.49 210.633Z" fill="#FF9E85"/>
<path d="M248.062 228.942L244.64 213.841C244.325 212.451 242.964 211.626 241.67 212.092C240.522 212.506 239.92 213.864 240.205 215.124L240.939 218.362L234.267 209.313C233.542 208.293 232.042 207.538 231.028 208.485C230.16 209.193 229.897 210.432 230.328 211.452C230.317 211.458 230.306 211.462 230.297 211.47C230.29 211.477 230.286 211.485 230.28 211.492L229.161 209.919C228.299 208.706 226.588 208.592 225.594 209.803C224.865 210.689 224.892 212.032 225.56 212.971L226.036 213.64C226.024 213.664 226.017 213.69 226.014 213.716C225.172 212.969 223.914 212.943 223.04 213.757C222.113 214.62 222.046 216.145 222.79 217.192L223.973 218.854C223.909 218.834 223.839 218.842 223.781 218.889C223.748 218.917 223.729 218.954 223.716 218.994C222.826 218.569 221.718 218.765 221.002 219.676C220.306 220.563 220.35 221.876 221.006 222.798L230.982 236.824C233.837 240.837 238.681 242.595 243.227 241.266C247.21 240.101 249.606 235.754 248.632 231.456L248.062 228.94V228.942Z" fill="#FF9E85"/>
<g opacity="0.2">
<path d="M236.891 220.445C236.799 220.519 236.668 220.501 236.597 220.403L230.262 211.79C230.19 211.691 230.206 211.549 230.298 211.471C230.379 211.391 230.523 211.411 230.595 211.509L236.93 220.123C237.003 220.222 236.987 220.364 236.895 220.442L236.891 220.445Z" fill="#0C0C0C"/>
</g>
<g opacity="0.2">
<path d="M233.42 223.541C233.328 223.615 233.197 223.597 233.126 223.5L226.056 213.886C225.984 213.788 226 213.646 226.092 213.568C226.176 213.498 226.317 213.508 226.389 213.606L233.459 223.219C233.532 223.318 233.515 223.46 233.424 223.538L233.42 223.541Z" fill="#0C0C0C"/>
</g>
<g opacity="0.2">
<path d="M229.678 226.919C229.586 226.993 229.456 226.974 229.385 226.877L223.745 219.209C223.673 219.111 223.689 218.968 223.781 218.891C223.875 218.814 224.006 218.83 224.078 218.929L229.718 226.597C229.79 226.695 229.774 226.838 229.682 226.915L229.678 226.919Z" fill="#0C0C0C"/>
</g>
<path d="M291.632 241.906L263.993 276.659L252.353 228.145L222.632 236.6L241.973 312.071C242.579 314.402 243.708 316.691 245.338 318.597C250.874 325.075 260.266 325.521 266.315 319.592L266.565 319.347L315.972 268.493L291.631 241.906H291.632Z" fill="#085345"/>
<path d="M248.061 228.942L244.64 213.84C244.325 212.45 242.964 211.626 241.669 212.092C240.522 212.506 239.92 213.864 240.205 215.124L240.939 218.362L241.91 224.111" fill="#FF9E85"/>
<path d="M336.759 248.742C351.203 248.013 351.811 234.884 351.811 234.884C351.811 234.884 358.968 235.38 363.726 236.069C371.515 237.197 376.653 240.026 380.742 244.404C384.546 248.477 386.862 252.885 384.411 281.022C382.637 301.396 383.886 346.209 383.886 346.209H296.713C296.713 346.209 291.486 287.471 290.757 278.3C289.366 260.793 283.671 250.924 291.632 241.906C297.404 235.365 312.306 234.884 318.306 234.885C318.404 234.885 317.088 249.735 336.759 248.741V248.742Z" fill="#085345"/>
<path d="M291.264 275.373C291.256 275.248 291.156 275.152 291.039 275.161C290.922 275.169 290.834 275.276 290.841 275.401L291.727 293.124C291.734 293.238 291.818 293.327 291.921 293.336C291.931 293.337 291.941 293.337 291.951 293.336C292.068 293.328 292.157 293.22 292.15 293.095" fill="#0C0C0C"/>
<path d="M310.471 319.632L296.37 315.963C295.072 315.626 293.763 316.542 293.556 317.988C293.373 319.27 294.224 320.466 295.401 320.772L298.425 321.559L287.855 323.758C286.676 323.981 285.362 325.062 285.683 326.461C285.872 327.612 286.78 328.43 287.824 328.488C287.825 328.5 287.822 328.513 287.825 328.525C287.827 328.535 287.832 328.543 287.835 328.552L286.017 328.895C284.615 329.16 283.736 330.735 284.285 332.236C284.686 333.336 285.812 333.927 286.898 333.722L287.672 333.576C287.686 333.598 287.704 333.617 287.724 333.632C286.719 334.09 286.12 335.275 286.395 336.481C286.686 337.759 287.921 338.522 289.131 338.294L291.052 337.931C291.007 337.982 290.981 338.052 290.994 338.129C291.002 338.173 291.024 338.208 291.051 338.239C290.29 338.891 289.944 340.036 290.373 341.134C290.79 342.204 291.899 342.764 292.965 342.563L309.179 339.501C313.819 338.625 317.499 334.821 318.481 329.886C319.341 325.561 316.832 321.288 312.82 320.244L310.47 319.632L310.471 319.632Z" fill="#FF9E85"/>
<g opacity="0.2">
<path d="M298.295 326.366C298.314 326.487 298.24 326.603 298.127 326.626L288.073 328.704C287.958 328.728 287.847 328.648 287.825 328.525C287.796 328.411 287.878 328.282 287.993 328.259L298.046 326.181C298.161 326.157 298.272 326.238 298.294 326.361L298.295 326.366Z" fill="#0C0C0C"/>
</g>
<g opacity="0.2">
<path d="M299.274 331.089C299.293 331.21 299.219 331.326 299.105 331.35L287.885 333.669C287.771 333.692 287.66 333.612 287.637 333.489C287.618 333.377 287.691 333.247 287.805 333.223L299.025 330.904C299.14 330.88 299.251 330.961 299.273 331.084L299.274 331.089Z" fill="#0C0C0C"/>
</g>
<g opacity="0.2">
<path d="M300.362 336.198C300.381 336.319 300.306 336.435 300.193 336.458L291.243 338.308C291.129 338.332 291.018 338.251 290.995 338.128C290.975 338.004 291.049 337.887 291.163 337.863L300.113 336.012C300.228 335.989 300.339 336.069 300.361 336.192L300.362 336.198Z" fill="#0C0C0C"/>
</g>
<path d="M309.066 345.441L384.836 345.883C385.411 345.95 385.985 345.983 386.557 345.983C390.905 345.983 395.094 344.07 398.112 340.644C401.527 336.767 403.049 331.401 402.223 326.146L385.343 253.735C383.887 244.469 375.693 238.223 367.039 239.78C358.386 241.339 352.551 250.114 354.007 259.38L366.952 313.93L309.432 315.951L309.065 345.44L309.066 345.441Z" fill="#085345"/>
<path d="M376.856 313.7C376.959 313.7 377.049 313.619 377.065 313.507C377.082 313.383 377.003 313.268 376.887 313.249L367.074 313.631C366.954 313.611 366.851 313.698 366.833 313.821C366.816 313.945 366.895 314.06 367.011 314.079L376.824 313.698C376.835 313.699 376.845 313.7 376.856 313.7Z" fill="#0C0C0C"/>
<path d="M382.632 346.209C382.737 346.209 382.828 346.126 382.842 346.011C382.857 345.888 382.775 345.774 382.659 345.757L309.509 345.268L309.829 316.231L367.006 314.079C367.073 314.088 367.139 314.064 367.186 314.012C367.233 313.961 367.254 313.888 367.243 313.817L361.008 281.028C360.989 280.905 360.882 280.819 360.764 280.842C360.649 280.863 360.571 280.98 360.59 281.103L366.778 313.589L309.67 315.75C309.614 315.742 309.556 315.759 309.512 315.797C309.467 315.835 309.438 315.891 309.432 315.951L309.065 345.44C309.053 345.563 309.134 345.674 309.248 345.69L382.604 346.207C382.614 346.209 382.623 346.209 382.632 346.209Z" fill="#0C0C0C"/>
<path d="M352.25 201.558C351.548 201.558 350.979 200.949 350.979 200.197V184.692C350.979 176.803 348.94 170.552 345.082 166.614C341.425 162.882 336.177 161.166 329.489 161.509C328.794 161.546 328.192 160.966 328.158 160.215C328.124 159.464 328.665 158.826 329.367 158.79C336.777 158.406 342.656 160.377 346.836 164.643C351.21 169.107 353.522 176.039 353.522 184.692V200.196C353.522 200.948 352.953 201.558 352.251 201.558L352.25 201.558Z" fill="#085345"/>
<path d="M350.351 213.449C355.683 213.449 360.006 208.82 360.006 203.11C360.006 197.399 355.683 192.77 350.351 192.77C345.018 192.77 340.695 197.399 340.695 203.11C340.695 208.82 345.018 213.449 350.351 213.449Z" fill="#085345"/>
<path d="M350.723 210.855C350.439 210.635 350.041 210.703 349.835 211.008L349.097 212.101C347.268 214.806 344.315 216.421 341.197 216.421H329.441V216.155C329.441 215.403 328.872 214.794 328.17 214.794H324.192C323.49 214.794 322.921 215.403 322.921 216.155V218.147C322.921 218.899 323.49 219.508 324.192 219.508H328.17C328.872 219.508 329.441 218.899 329.441 218.147V217.782H341.197C344.722 217.782 348.06 215.957 350.127 212.898L350.865 211.805C351.071 211.501 351.007 211.076 350.723 210.855Z" fill="#085345"/>
<path d="M352.667 213.449C358 213.449 362.323 208.82 362.323 203.11C362.323 197.399 358 192.77 352.667 192.77C347.334 192.77 343.011 197.399 343.011 203.11C343.011 208.82 347.334 213.449 352.667 213.449Z" fill="#085345"/>
<path opacity="0.3" d="M352.667 213.449C358 213.449 362.323 208.82 362.323 203.11C362.323 197.399 358 192.77 352.667 192.77C347.334 192.77 343.011 197.399 343.011 203.11C343.011 208.82 347.334 213.449 352.667 213.449Z" fill="white"/>
<path d="M241.176 323.247H144.098C140.435 323.247 137.466 320.068 137.466 316.146L128.432 239.736C128.432 235.814 131.402 232.634 135.064 232.634H232.142C235.805 232.634 238.774 235.814 238.774 239.736L247.808 316.146C247.808 320.068 244.839 323.247 241.176 323.247Z" fill="#292A2E"/>
<path d="M189.195 346.209H166.531C164.254 346.209 162.639 343.832 163.34 341.513L176.931 296.523C177.379 295.042 178.667 294.038 180.122 294.038H200.55C202.13 294.038 203.293 295.622 202.921 297.267L192.454 343.465C192.089 345.076 190.743 346.209 189.195 346.209Z" fill="#292A2E"/>
<path d="M208.899 342.137H168.495C167.445 342.137 166.594 343.049 166.594 344.173C166.594 345.298 167.445 346.209 168.495 346.209H208.899C209.949 346.209 210.8 345.298 210.8 344.173C210.8 343.049 209.949 342.137 208.899 342.137Z" fill="#292A2E"/>
<path opacity="0.2" d="M208.899 342.137H192.755L202.921 297.267C203.294 295.622 202.13 294.038 200.55 294.038H180.122C178.667 294.038 177.379 295.042 176.931 296.524L163.34 341.514C162.639 343.833 164.254 346.21 166.531 346.21H208.899C209.949 346.21 210.8 345.298 210.8 344.174C210.8 343.049 209.948 342.138 208.899 342.138V342.137Z" fill="white"/>
<path d="M187.729 312.015C190.964 312.015 193.587 309.206 193.587 305.741C193.587 302.277 190.964 299.468 187.729 299.468C184.493 299.468 181.87 302.277 181.87 305.741C181.87 309.206 184.493 312.015 187.729 312.015Z" fill="#292A2E"/>
<path d="M233.917 342.137H236.179C236.299 341.479 236.84 340.981 237.49 340.981H239.289C239.939 340.981 240.479 341.479 240.599 342.137H242.007C242.127 341.479 242.667 340.981 243.317 340.981H245.116C245.766 340.981 246.306 341.479 246.426 342.137H247.834C247.953 341.479 248.494 340.981 249.144 340.981H250.943C251.593 340.981 252.133 341.479 252.253 342.137H253.661C253.781 341.479 254.321 340.981 254.971 340.981H256.77C257.42 340.981 257.96 341.479 258.081 342.137H259.488C259.608 341.479 260.149 340.981 260.799 340.981H262.598C263.248 340.981 263.788 341.479 263.908 342.137H264.924C265.044 341.479 265.584 340.981 266.234 340.981H282.204C282.854 340.981 283.394 341.479 283.514 342.137H284.819C284.939 341.479 285.479 340.981 286.129 340.981H287.928C288.578 340.981 289.118 341.479 289.239 342.137H290.646C290.766 341.479 291.307 340.981 291.957 340.981H293.755C294.405 340.981 294.946 341.479 295.066 342.137H296.473C296.593 341.479 297.134 340.981 297.784 340.981H299.583C300.232 340.981 300.773 341.479 300.893 342.137H302.3C302.42 341.479 302.961 340.981 303.611 340.981H305.41C306.06 340.981 306.6 341.479 306.72 342.137H312.64C313.689 342.137 314.541 343.048 314.541 344.173C314.541 345.298 313.689 346.209 312.64 346.209H287.817H272.237H233.922C232.872 346.209 232.021 345.298 232.021 344.173C232.021 343.048 232.872 342.137 233.922 342.137H233.917Z" fill="#292A2E"/>
<path opacity="0.2" d="M233.917 342.137H236.179C236.299 341.479 236.84 340.981 237.49 340.981H239.289C239.939 340.981 240.479 341.479 240.599 342.137H242.007C242.127 341.479 242.667 340.981 243.317 340.981H245.116C245.766 340.981 246.306 341.479 246.426 342.137H247.834C247.953 341.479 248.494 340.981 249.144 340.981H250.943C251.593 340.981 252.133 341.479 252.253 342.137H253.661C253.781 341.479 254.321 340.981 254.971 340.981H256.77C257.42 340.981 257.96 341.479 258.081 342.137H259.488C259.608 341.479 260.149 340.981 260.799 340.981H262.598C263.248 340.981 263.788 341.479 263.908 342.137H264.924C265.044 341.479 265.584 340.981 266.234 340.981H282.204C282.854 340.981 283.394 341.479 283.514 342.137H284.819C284.939 341.479 285.479 340.981 286.129 340.981H287.928C288.578 340.981 289.118 341.479 289.239 342.137H290.646C290.766 341.479 291.307 340.981 291.957 340.981H293.755C294.405 340.981 294.946 341.479 295.066 342.137H296.473C296.593 341.479 297.134 340.981 297.784 340.981H299.583C300.232 340.981 300.773 341.479 300.893 342.137H302.3C302.42 341.479 302.961 340.981 303.611 340.981H305.41C306.06 340.981 306.6 341.479 306.72 342.137H312.64C313.689 342.137 314.541 343.048 314.541 344.173C314.541 345.298 313.689 346.209 312.64 346.209H287.817H272.237H233.922C232.872 346.209 232.021 345.298 232.021 344.173C232.021 343.048 232.872 342.137 233.922 342.137H233.917Z" fill="white"/>
<path d="M88.1239 346.905H403.576C403.81 346.905 404 346.702 404 346.451C404 346.201 403.81 345.998 403.576 345.998H88.1239C87.89 345.998 87.7002 346.201 87.7002 346.451C87.7002 346.702 87.89 346.905 88.1239 346.905Z" fill="#292A2E"/>
</svg>
