<svg width="479" height="310" viewBox="0 0 479 310" fill="none" xmlns="http://www.w3.org/2000/svg">
<g clip-path="url(#clip0_1701_11539)">
<path d="M474.939 278.809C470.839 290.728 460.166 301.133 444.657 310H29.0002C15.3934 301.419 6.39387 291.384 3.51106 279.884C-4.91956 246.304 1.98637 176.953 55.1069 148.969C138.561 105.008 105.921 9.39237 242.022 0.441874C378.123 -8.50862 349.237 121.274 413.293 166.348C465.823 203.315 487.726 241.674 474.939 278.809Z" fill="#43D1B6"/>
<path d="M274.801 310H176.196L176.293 308.944L211.175 306.542L230.893 305.177L273.616 302.234L274.801 310Z" fill="#DEE8F5"/>
<path opacity="0.07" d="M274.801 310H176.196L176.293 308.944L211.175 306.542L230.893 305.177L273.616 302.234L274.801 310Z" fill="#0F1011"/>
<path d="M287.428 310H172.814C172.955 309.221 173.102 308.448 173.25 307.675L173.647 307.791L174.793 299.89L211.367 297.624L230.79 296.42L286.935 292.936L287.428 310Z" fill="#262626"/>
<path d="M241.468 114.566C241.454 114.3 241.454 114.033 241.454 113.766C241.454 111.07 241.557 108.136 241.822 104.936L238.492 104.315L218.283 100.552C218.682 105.813 218.598 111.1 218.033 116.345C217.974 116.938 217.9 117.546 217.811 118.153C217.808 118.208 217.798 118.263 217.783 118.316C217.665 119.116 217.532 119.916 217.385 120.716C217.296 121.235 217.193 121.753 217.075 122.271C216.957 122.939 216.795 123.59 216.618 124.242C216.44 124.893 216.264 125.53 216.058 126.168C215.866 126.805 215.659 127.428 215.424 128.036C214.993 129.235 214.471 130.399 213.861 131.517V131.532C212.745 133.725 211.177 135.655 209.262 137.192H246.29C243.974 133.175 241.587 126.226 241.468 114.566Z" fill="#F2DBC3"/>
<path opacity="0.15" d="M213.836 131.553L233.399 116.51L218.034 116.349C217.447 121.547 216.238 127.126 213.836 131.553Z" fill="black"/>
<path d="M255.189 92.841C253.558 102.307 248.42 111.269 240.113 114.326C230.253 117.955 222.95 118.201 211.581 118.201C196.067 118.201 196.58 101.938 196.142 85.5499C195.704 69.0958 197.006 51.4465 203.137 45.7131C215.376 34.2687 251.297 41.516 255.668 60.6578C257.929 70.5581 256.74 83.8319 255.189 92.841Z" fill="#F2DBC3"/>
<path d="M187.829 55.2251C187.829 55.2251 181.475 53.7988 183.216 47.4337C184.369 43.2102 189.751 44.1497 189.751 44.1497C189.751 44.1497 184.653 43.2121 184.653 38.7408C184.653 35.9217 186.808 31.1489 193.307 33.8772C200.931 37.0794 209.631 36.668 216.242 35.5514C220.099 34.8998 223.861 33.9912 227.602 33.9416L227.622 33.9371V33.9416C232.015 33.8647 236.395 34.4537 240.613 35.6886C252.435 39.243 270.325 49.8973 266.523 74.0508C262.277 101.007 249.693 111.316 244.156 114.623C243.828 114.821 243.46 114.942 243.079 114.976C242.699 115.011 242.315 114.958 241.958 114.821C241.6 114.685 241.278 114.469 241.016 114.189C240.754 113.909 240.559 113.573 240.445 113.206C238.874 108.154 236.166 95.4425 236.926 69.2304C200.589 67.439 190.134 66.8955 190.134 66.8955C190.134 66.8955 181.579 67.2175 181.579 60.9367C181.579 54.6559 187.829 55.2251 187.829 55.2251Z" fill="#0F1011"/>
<path d="M218.312 85.5499C219.491 85.5499 220.447 84.5891 220.447 83.4038C220.447 82.2184 219.491 81.2576 218.312 81.2576C217.132 81.2576 216.176 82.2184 216.176 83.4038C216.176 84.5891 217.132 85.5499 218.312 85.5499Z" fill="#0F1011"/>
<path d="M201.462 84.1608C202.641 84.1608 203.597 83.1999 203.597 82.0146C203.597 80.8293 202.641 79.8684 201.462 79.8684C200.283 79.8684 199.327 80.8293 199.327 82.0146C199.327 83.1999 200.283 84.1608 201.462 84.1608Z" fill="#0F1011"/>
<path d="M197.76 77.4397H197.774L203.432 77.3688C203.698 77.3671 203.952 77.2592 204.139 77.0689C204.326 76.8786 204.43 76.6215 204.429 76.354C204.427 76.0866 204.32 75.8308 204.13 75.6429C203.941 75.455 203.685 75.3504 203.419 75.3521H203.406L197.748 75.4229C197.616 75.4237 197.486 75.4507 197.364 75.5021C197.243 75.5536 197.133 75.6286 197.04 75.7228C196.853 75.9131 196.749 76.1703 196.751 76.4377C196.753 76.7052 196.86 76.961 197.049 77.1489C197.239 77.3368 197.494 77.4414 197.76 77.4397Z" fill="#0F1011"/>
<path d="M222.925 79.513C223.171 79.5129 223.408 79.4222 223.591 79.2581C223.775 79.094 223.892 78.8679 223.921 78.6226C223.95 78.3773 223.888 78.13 223.747 77.9275C223.607 77.725 223.397 77.5814 223.158 77.5239L217.58 76.1717C217.322 76.1111 217.051 76.1556 216.825 76.2955C216.599 76.4354 216.438 76.6593 216.376 76.9183C216.314 77.1773 216.356 77.4505 216.494 77.6782C216.632 77.9059 216.853 78.0696 217.111 78.1337L222.688 79.4859C222.766 79.5041 222.845 79.5131 222.925 79.513Z" fill="#0F1011"/>
<path d="M229.422 88.6567C229.226 91.0623 229.988 93.4477 231.542 95.2882C233.095 97.1287 235.313 98.2735 237.706 98.4707C240.099 98.668 242.472 97.9015 244.303 96.34C246.135 94.7785 247.273 92.5498 247.47 90.1442C247.878 85.1345 244.184 80.4938 239.186 80.3296C232.733 80.1184 229.831 83.6451 229.422 88.6567Z" fill="#F2DBC3"/>
<g opacity="0.15">
<path d="M208.831 95.3104C209.008 95.3108 209.179 95.2474 209.313 95.1316C209.447 95.0159 209.535 94.8556 209.561 94.6799C209.588 94.5043 209.55 94.325 209.456 94.1748C209.362 94.0245 209.217 93.9134 209.048 93.8616L204.704 92.521L207.742 85.7205C207.822 85.5412 207.828 85.3372 207.759 85.1534C207.689 84.9696 207.55 84.8211 207.372 84.7405C207.193 84.6599 206.99 84.6538 206.808 84.7236C206.625 84.7934 206.477 84.9333 206.397 85.1127L203.016 92.6787C202.973 92.7746 202.951 92.8785 202.951 92.9836C202.951 93.0887 202.974 93.1926 203.017 93.2884C203.06 93.3841 203.123 93.4696 203.201 93.539C203.28 93.6084 203.372 93.6602 203.472 93.691L208.614 95.2782C208.684 95.2999 208.757 95.3108 208.831 95.3104Z" fill="black"/>
</g>
<path d="M217.323 100.311C217.323 100.311 209.44 101.148 203.914 99.2056C203.914 99.2056 203.957 104.421 210.196 104.936C216.435 105.452 217.323 100.311 217.323 100.311Z" fill="#F8FCFF"/>
<path d="M285.122 268.094C287.768 282.917 291.522 297.901 293.969 310H163.711C165.498 297.031 168.669 280.695 170.482 262.221C171.468 252.511 171.919 242.754 171.834 232.994C171.712 221.982 170.078 209.909 168.695 198.093C164.902 165.788 162.974 135.388 198.778 133.836C198.875 133.83 198.977 133.83 199.086 133.823H199.094L199.561 133.804C200.4 133.778 201.502 133.759 202.828 133.74C202.856 133.736 202.884 133.736 202.912 133.74C202.982 133.733 203.046 133.733 203.117 133.733C203.206 135.646 206.038 137.107 210.343 138.118C210.369 138.125 210.401 138.131 210.433 138.138C219.574 140.263 235.231 140.366 245.289 138.427C245.385 138.415 245.475 138.395 245.571 138.376C248.742 137.745 251.337 136.908 252.951 135.865C253.231 135.686 253.497 135.486 253.745 135.266C254.28 134.832 254.642 134.22 254.764 133.54C255.193 133.54 255.616 133.546 256.039 133.553C257.237 133.579 258.415 133.63 259.569 133.72C271.561 134.596 281.35 138.704 287.308 144.693C303.266 160.733 294.79 184.545 287.935 207.971C285.623 215.84 283.502 223.663 282.554 231.139V231.145C282.375 232.536 282.24 233.914 282.151 235.279C282.074 236.496 282.029 237.707 282.029 238.905C282.028 247.909 283.315 257.965 285.122 268.094Z" fill="#367CFF"/>
<path d="M202.842 132.682C203.226 140.83 207.632 152.816 221.237 153.72C239.367 154.92 253.429 140.801 254.49 132.489H249.319C242.778 132.489 213.39 132.568 207.656 132.622C205.848 132.64 204.23 132.66 202.842 132.682Z" fill="#F2DBC3"/>
<path d="M292.508 268.892C293.789 281.609 295.16 295.518 296.583 310H230.97C230.938 308.384 230.919 306.774 230.893 305.177C230.854 302.228 230.82 299.309 230.79 296.42C230.669 284.488 230.662 273.039 230.829 262.24C230.874 259.107 230.933 256.029 231.008 253.006C231.047 251.616 231.085 250.238 231.124 248.872C231.124 248.808 231.124 248.737 231.13 248.673C231.329 242.098 231.608 235.831 231.969 229.87C232.183 226.496 232.422 223.234 232.687 220.083C232.815 218.537 232.954 217.022 233.103 215.537C235.089 195.305 240.56 164.77 243.936 146.914C244.564 143.572 245.121 140.675 245.57 138.376C245.653 137.964 245.73 137.564 245.8 137.191C245.845 136.966 245.89 136.753 245.928 136.547V136.541C246.415 134.061 246.704 132.613 246.729 132.497V132.49C246.729 132.49 249.221 132.316 253.046 132.342C253.975 132.342 254.987 132.362 256.063 132.4C257.12 132.432 258.235 132.484 259.401 132.555C265.948 132.973 273.917 134.087 280.477 136.824C295.673 143.166 301.272 178.762 307.025 202.53C307.038 202.575 307.044 202.62 307.057 202.665L291.393 257.804C291.752 261.377 292.124 265.074 292.508 268.892Z" fill="white"/>
<path d="M246.743 132.394C246.743 132.394 231.061 193.06 231.061 255.479L258.185 168.228L249.46 157.212L261.692 148.519L259.393 132.531C255.42 131.718 246.743 132.394 246.743 132.394Z" fill="#F3F5FD"/>
<path d="M212.757 216.438C212.757 218.254 212.744 220.495 212.725 223.116C212.68 227.314 212.609 232.491 212.513 238.473C212.449 242.826 212.366 247.597 212.27 252.742V252.749C212.251 253.773 212.232 254.809 212.212 255.865C212.193 256.857 212.174 257.868 212.155 258.885C211.937 270.469 211.668 283.599 211.367 297.624C211.303 300.56 211.239 303.533 211.174 306.542C211.149 307.688 211.123 308.841 211.098 310H156.556C158.587 291.815 160.502 276.355 162.2 263.477C165.506 238.344 167.972 223.038 168.773 216.438L149.823 206.116L149.291 205.826C149.291 205.826 165.993 144.474 179.971 136.824C186.07 133.488 194.423 133.012 199.407 132.786H199.427C199.478 132.786 199.536 132.78 199.587 132.78C205.666 132.503 210.016 132.49 210.016 132.49C210.016 132.49 210.016 132.529 210.023 132.606C210.048 132.986 210.125 134.28 210.247 136.341V136.347C210.26 136.611 210.279 136.895 210.298 137.191C210.317 137.487 210.33 137.796 210.343 138.118C210.516 141.099 210.727 145.163 210.971 150.037V150.044C211.131 153.398 211.297 157.14 211.47 161.177C211.56 163.379 211.656 165.678 211.74 168.048C211.746 168.054 211.746 168.054 211.74 168.06C211.983 174.403 212.207 181.274 212.387 188.408V188.415C212.425 190.031 212.463 191.66 212.502 193.302C212.661 200.903 212.757 208.718 212.757 216.438Z" fill="white"/>
<path d="M210.025 132.395C210.025 132.395 215.214 200.114 212.346 253.133L195.864 168.228L203.77 158.372L193.855 150.838L199.437 132.693L210.025 132.395Z" fill="#F3F5FD"/>
<path d="M219.579 258.759C219.579 258.759 187.66 261.686 175.473 243.299C175.163 242.831 175.001 242.279 175.008 241.716C175.014 241.154 175.19 240.606 175.511 240.145C175.833 239.684 176.285 239.332 176.809 239.133C177.333 238.935 177.904 238.9 178.448 239.033C189.622 241.783 212.847 246.54 212.443 238.454L230.14 243.934L219.579 258.759Z" fill="#F2DBC3"/>
<path d="M305.717 270.218C308.201 270.218 310.651 269.639 312.875 268.526C315.099 267.414 317.036 265.798 318.534 263.806C320.032 261.814 321.05 259.501 321.508 257.047C321.967 254.593 321.853 252.065 321.176 249.663L305.893 197.717L276.906 211.11L283.767 235.455L218.68 228.436L215.253 260.556L304.001 270.124C304.571 270.187 305.144 270.218 305.717 270.218Z" fill="white"/>
<path d="M151.346 264.945C152.151 264.945 152.956 264.884 153.752 264.762L253.693 249.558L248.884 217.619L175.795 228.736L184.818 204.048L153.265 192.399L136.262 243.223C135.371 245.664 135.078 248.286 135.41 250.865C135.743 253.444 136.689 255.904 138.17 258.037C139.651 260.169 141.622 261.911 143.916 263.113C146.21 264.316 148.759 264.944 151.346 264.945Z" fill="white"/>
<path d="M249.588 221.664C249.588 221.664 266.476 220.463 273.013 234.204L250.752 232.175L249.588 221.664Z" fill="#F2DBC3"/>
<path d="M255.166 169.974L256.071 132.179L253.051 132.132L252.006 169.82L255.166 169.974Z" fill="#0CBC8B"/>
<path d="M198.917 156.749L199.589 132.778L202.842 132.682L202.493 156.787C206.233 157.258 209.674 159.084 212.171 161.923C214.667 164.762 216.048 168.418 216.054 172.207V190.813H212.483V172.207C212.494 170.629 212.195 169.064 211.602 167.603C211.009 166.141 210.134 164.812 209.028 163.692C207.922 162.572 206.606 161.683 205.157 161.077C203.707 160.47 202.152 160.158 200.582 160.158C199.012 160.158 197.457 160.47 196.008 161.077C194.558 161.683 193.242 162.572 192.136 163.692C191.03 164.812 190.155 166.141 189.562 167.603C188.969 169.064 188.67 170.629 188.682 172.207V190.813H185.111V172.207C185.116 168.374 186.527 164.678 189.075 161.826C191.622 158.974 195.127 157.166 198.917 156.749Z" fill="#0CBC8B"/>
<path d="M253.693 179.612C257.515 179.612 260.614 176.497 260.614 172.655C260.614 168.813 257.515 165.698 253.693 165.698C249.87 165.698 246.771 168.813 246.771 172.655C246.771 176.497 249.87 179.612 253.693 179.612Z" fill="#0CBC8B"/>
<path d="M214.305 193.893C215.997 193.893 217.369 192.514 217.369 190.813C217.369 189.111 215.997 187.732 214.305 187.732C212.612 187.732 211.24 189.111 211.24 190.813C211.24 192.514 212.612 193.893 214.305 193.893Z" fill="#0CBC8B"/>
<path d="M186.999 193.893C188.691 193.893 190.063 192.514 190.063 190.813C190.063 189.111 188.691 187.732 186.999 187.732C185.306 187.732 183.934 189.111 183.934 190.813C183.934 192.514 185.306 193.893 186.999 193.893Z" fill="#0CBC8B"/>
<path d="M88.149 150.268C109.709 150.268 127.187 132.701 127.187 111.03C127.187 89.359 109.709 71.7913 88.149 71.7913C66.589 71.7913 49.1112 89.359 49.1112 111.03C49.1112 132.701 66.589 150.268 88.149 150.268Z" fill="#F3F5FD"/>
<path d="M411.775 278.808C433.334 278.808 450.812 261.24 450.812 239.569C450.812 217.898 433.334 200.331 411.775 200.331C390.215 200.331 372.737 217.898 372.737 239.569C372.737 261.24 390.215 278.808 411.775 278.808Z" fill="#F3F5FD"/>
<path d="M378.303 131.306C399.862 131.306 417.34 113.739 417.34 92.0677C417.34 70.3968 399.862 52.8291 378.303 52.8291C356.743 52.8291 339.265 70.3968 339.265 92.0677C339.265 113.739 356.743 131.306 378.303 131.306Z" fill="#F3F5FD"/>
<path d="M49.1112 269.754C67.5135 269.754 82.4314 254.759 82.4314 236.262C82.4314 217.765 67.5135 202.771 49.1112 202.771C30.709 202.771 15.7911 217.765 15.7911 236.262C15.7911 254.759 30.709 269.754 49.1112 269.754Z" fill="#F3F5FD"/>
<path d="M92.7582 92.0676H83.5403V129.991H92.7582V92.0676Z" fill="#FD5D76"/>
<path d="M107.014 115.663V106.397H69.2845V115.663H107.014Z" fill="#FD5D76"/>
<path d="M52.6923 215.899V219.724H31.2621V215.899C31.2623 215.429 31.4482 214.978 31.7789 214.645C32.1096 214.313 32.5581 214.126 33.0258 214.126H50.928C51.3958 214.126 51.8445 214.313 52.1753 214.645C52.5062 214.978 52.6921 215.428 52.6923 215.899Z" fill="#262626"/>
<path d="M52.6923 219.724V256.381C52.6923 256.916 52.481 257.429 52.1048 257.807C51.7287 258.185 51.2185 258.397 50.6865 258.397H33.2679C32.736 258.397 32.2258 258.185 31.8496 257.807C31.4735 257.429 31.2621 256.916 31.2621 256.381V219.724H52.6923Z" fill="#0CBC8B"/>
<path d="M49.1119 229.138H34.8432V250.001H49.1119V229.138Z" fill="#FAFAFA"/>
<path d="M46.4052 235.95H37.5492C37.3714 235.95 37.2008 235.879 37.075 235.752C36.9492 235.626 36.8785 235.454 36.8785 235.276C36.8785 235.097 36.9492 234.925 37.075 234.799C37.2008 234.672 37.3714 234.601 37.5492 234.601H46.4052C46.5831 234.601 46.7537 234.672 46.8795 234.799C47.0053 234.925 47.076 235.097 47.076 235.276C47.076 235.454 47.0053 235.626 46.8795 235.752C46.7537 235.879 46.5831 235.95 46.4052 235.95Z" fill="#D7E8F4"/>
<path d="M46.4052 238.812H37.5492C37.4594 238.815 37.37 238.799 37.2862 238.767C37.2025 238.734 37.1261 238.685 37.0616 238.622C36.9971 238.559 36.9458 238.484 36.9108 238.401C36.8758 238.318 36.8578 238.228 36.8578 238.138C36.8578 238.048 36.8758 237.958 36.9108 237.875C36.9458 237.792 36.9971 237.717 37.0616 237.654C37.1261 237.591 37.2025 237.542 37.2862 237.509C37.37 237.477 37.4594 237.461 37.5492 237.464H46.4052C46.495 237.461 46.5844 237.477 46.6682 237.509C46.7519 237.542 46.8283 237.591 46.8928 237.654C46.9573 237.717 47.0086 237.792 47.0436 237.875C47.0786 237.958 47.0967 238.048 47.0967 238.138C47.0967 238.228 47.0786 238.318 47.0436 238.401C47.0086 238.484 46.9573 238.559 46.8928 238.622C46.8283 238.685 46.7519 238.734 46.6682 238.767C46.5844 238.799 46.495 238.815 46.4052 238.812Z" fill="#D7E8F4"/>
<path d="M46.4052 241.675H37.5492C37.3714 241.675 37.2008 241.604 37.075 241.477C36.9492 241.351 36.8785 241.179 36.8785 241.001C36.8785 240.822 36.9492 240.65 37.075 240.524C37.2008 240.397 37.3714 240.326 37.5492 240.326H46.4052C46.5831 240.326 46.7537 240.397 46.8795 240.524C47.0053 240.65 47.076 240.822 47.076 241.001C47.076 241.179 47.0053 241.351 46.8795 241.477C46.7537 241.604 46.5831 241.675 46.4052 241.675Z" fill="#D7E8F4"/>
<path d="M44.5711 244.537H39.3859C39.2961 244.54 39.2067 244.524 39.1229 244.492C39.0392 244.459 38.9628 244.41 38.8983 244.347C38.8338 244.284 38.7825 244.209 38.7475 244.126C38.7125 244.043 38.6944 243.953 38.6944 243.863C38.6944 243.773 38.7125 243.683 38.7475 243.6C38.7825 243.517 38.8338 243.442 38.8983 243.379C38.9628 243.316 39.0392 243.267 39.1229 243.234C39.2067 243.202 39.2961 243.186 39.3859 243.189H44.5749C44.6647 243.186 44.7542 243.202 44.8379 243.234C44.9217 243.267 44.9981 243.316 45.0626 243.379C45.1271 243.442 45.1783 243.517 45.2133 243.6C45.2484 243.683 45.2664 243.773 45.2664 243.863C45.2664 243.953 45.2484 244.043 45.2133 244.126C45.1783 244.209 45.1271 244.284 45.0626 244.347C44.9981 244.41 44.9217 244.459 44.8379 244.492C44.7542 244.524 44.6647 244.54 44.5749 244.537H44.5711Z" fill="#D7E8F4"/>
<path d="M71.7003 255.632V236.272C71.7003 235.317 70.9305 234.543 69.9809 234.543H43.3706C42.421 234.543 41.6512 235.317 41.6512 236.272V255.632C41.6512 256.587 42.421 257.361 43.3706 257.361H69.9809C70.9305 257.361 71.7003 256.587 71.7003 255.632Z" fill="#262626"/>
<path d="M67.7822 246.292C67.9584 246.292 68.1013 246.148 68.1013 245.971C68.1013 245.795 67.9584 245.651 67.7822 245.651H45.5686C45.3924 245.651 45.2495 245.795 45.2495 245.971C45.2495 246.148 45.3924 246.292 45.5686 246.292H67.7822Z" fill="#ABCBFF"/>
<path d="M47.4142 242.228V238.231C47.4142 237.63 46.9298 237.143 46.3322 237.143H46.3316C45.734 237.143 45.2495 237.63 45.2495 238.231V242.228C45.2495 242.829 45.734 243.316 46.3316 243.316H46.3322C46.9298 243.316 47.4142 242.829 47.4142 242.228Z" fill="#FAFAFA"/>
<path d="M50.47 237.143H50.4693C49.8718 237.143 49.3873 237.63 49.3873 238.231V242.228C49.3873 242.829 49.8718 243.316 50.4693 243.316H50.47C51.0676 243.316 51.552 242.829 51.552 242.228V238.231C51.552 237.63 51.0676 237.143 50.47 237.143Z" fill="#FAFAFA"/>
<path d="M54.6071 237.143H54.6065C54.0089 237.143 53.5245 237.63 53.5245 238.231V242.228C53.5245 242.829 54.0089 243.316 54.6065 243.316H54.6071C55.2047 243.316 55.6891 242.829 55.6891 242.228V238.231C55.6891 237.63 55.2047 237.143 54.6071 237.143Z" fill="#FAFAFA"/>
<path d="M58.7449 237.143H58.7443C58.1467 237.143 57.6623 237.63 57.6623 238.231V242.228C57.6623 242.829 58.1467 243.316 58.7443 243.316H58.7449C59.3425 243.316 59.827 242.829 59.827 242.228V238.231C59.827 237.63 59.3425 237.143 58.7449 237.143Z" fill="#FAFAFA"/>
<path d="M62.8821 237.143H62.8815C62.2839 237.143 61.7994 237.63 61.7994 238.231V242.228C61.7994 242.829 62.2839 243.316 62.8815 243.316H62.8821C63.4797 243.316 63.9641 242.829 63.9641 242.228V238.231C63.9641 237.63 63.4797 237.143 62.8821 237.143Z" fill="#FAFAFA"/>
<path d="M68.1019 242.228V238.231C68.1019 237.63 67.6175 237.143 67.0199 237.143H67.0192C66.4217 237.143 65.9372 237.63 65.9372 238.231V242.228C65.9372 242.829 66.4217 243.316 67.0192 243.316H67.0199C67.6175 243.316 68.1019 242.829 68.1019 242.228Z" fill="#FAFAFA"/>
<path d="M47.4142 253.675V249.677C47.4142 249.077 46.9298 248.59 46.3322 248.59H46.3316C45.734 248.59 45.2495 249.077 45.2495 249.677V253.675C45.2495 254.276 45.734 254.762 46.3316 254.762H46.3322C46.9298 254.762 47.4142 254.276 47.4142 253.675Z" fill="#FAFAFA"/>
<path d="M50.47 248.589H50.4693C49.8718 248.589 49.3873 249.076 49.3873 249.677V253.674C49.3873 254.275 49.8718 254.762 50.4693 254.762H50.47C51.0676 254.762 51.552 254.275 51.552 253.674V249.677C51.552 249.076 51.0676 248.589 50.47 248.589Z" fill="#FAFAFA"/>
<path d="M54.6071 248.589H54.6065C54.0089 248.589 53.5245 249.076 53.5245 249.677V253.674C53.5245 254.275 54.0089 254.762 54.6065 254.762H54.6071C55.2047 254.762 55.6891 254.275 55.6891 253.674V249.677C55.6891 249.076 55.2047 248.589 54.6071 248.589Z" fill="#FAFAFA"/>
<path d="M58.7449 248.589H58.7443C58.1467 248.589 57.6623 249.076 57.6623 249.677V253.674C57.6623 254.275 58.1467 254.762 58.7443 254.762H58.7449C59.3425 254.762 59.827 254.275 59.827 253.674V249.677C59.827 249.076 59.3425 248.589 58.7449 248.589Z" fill="#FAFAFA"/>
<path d="M62.8821 248.589H62.8815C62.2839 248.589 61.7994 249.076 61.7994 249.677V253.674C61.7994 254.275 62.2839 254.762 62.8815 254.762H62.8821C63.4797 254.762 63.9641 254.275 63.9641 253.674V249.677C63.9641 249.076 63.4797 248.589 62.8821 248.589Z" fill="#FAFAFA"/>
<path d="M68.1013 253.674V249.677C68.1013 249.076 67.6168 248.589 67.0192 248.589H67.0186C66.421 248.589 65.9366 249.076 65.9366 249.677V253.674C65.9366 254.275 66.421 254.762 67.0186 254.762H67.0192C67.6168 254.762 68.1013 254.275 68.1013 253.674Z" fill="#FAFAFA"/>
<path d="M372.186 69.5957L372.049 70.7876L366.611 70.1585C366.035 70.0918 365.456 70.2578 365.002 70.62C364.547 70.9823 364.254 71.5111 364.188 72.0902L359.714 111.181C359.647 111.76 359.812 112.342 360.173 112.799C360.533 113.255 361.059 113.55 361.635 113.617L390.67 116.974C390.955 117.007 391.244 116.983 391.52 116.904C391.797 116.825 392.055 116.692 392.28 116.513C392.505 116.333 392.692 116.111 392.832 115.859C392.972 115.607 393.06 115.329 393.093 115.042L397.567 75.9518C397.634 75.3726 397.469 74.7907 397.108 74.3339C396.748 73.8771 396.222 73.5829 395.646 73.5159L390.207 72.8867L390.343 71.6948C390.367 71.4928 390.35 71.288 390.295 71.0923C390.239 70.8966 390.146 70.7138 390.02 70.5544C389.895 70.395 389.739 70.2622 389.562 70.1635C389.385 70.0649 389.19 70.0023 388.989 69.9794L373.893 68.2338C373.487 68.1869 373.079 68.304 372.759 68.5594C372.439 68.8148 372.233 69.1875 372.186 69.5957Z" fill="#262626"/>
<path d="M366.127 72.9444L361.795 110.795C361.733 111.338 362.12 111.829 362.66 111.891L390.064 115.06C390.605 115.123 391.093 114.733 391.155 114.19L395.487 76.3397C395.55 75.7967 395.162 75.3058 394.622 75.2433L367.218 72.0743C366.678 72.0118 366.189 72.4014 366.127 72.9444Z" fill="#FAFAFA"/>
<path d="M373.99 71.0786L373.588 74.5886C373.546 74.9578 373.809 75.2915 374.177 75.334L387.109 76.8295C387.476 76.872 387.808 76.6071 387.85 76.2379L388.252 72.7279C388.294 72.3587 388.031 72.025 387.664 71.9825L374.732 70.487C374.364 70.4445 374.032 70.7094 373.99 71.0786Z" fill="#0CBC8B"/>
<path d="M372.491 103.247C372.247 103.218 372.027 103.394 371.999 103.639C371.971 103.884 372.146 104.106 372.39 104.134L388.23 105.966C388.474 105.994 388.695 105.818 388.723 105.573C388.751 105.328 388.576 105.107 388.332 105.078L372.491 103.247Z" fill="#9EBCEA"/>
<path d="M377.172 106.401C376.928 106.373 376.708 106.549 376.68 106.794C376.652 107.039 376.827 107.26 377.071 107.288L387.937 108.545C388.181 108.573 388.402 108.397 388.43 108.152C388.458 107.907 388.283 107.686 388.039 107.658L377.172 106.401Z" fill="#9EBCEA"/>
<path d="M367.741 85.8806C367.497 85.8524 367.276 86.0282 367.248 86.2732C367.22 86.5182 367.395 86.7397 367.639 86.7679L382.743 88.5145C382.987 88.5427 383.207 88.367 383.235 88.1219C383.263 87.8769 383.088 87.6555 382.844 87.6272L367.741 85.8806Z" fill="#9EBCEA"/>
<path d="M367.445 88.4592C367.201 88.431 366.981 88.6067 366.953 88.8518C366.925 89.0968 367.1 89.3183 367.344 89.3465L378.028 90.582C378.272 90.6102 378.492 90.4345 378.521 90.1895C378.549 89.9444 378.374 89.723 378.13 89.6948L367.445 88.4592Z" fill="#9EBCEA"/>
<path d="M367.15 91.039C366.906 91.0108 366.686 91.1866 366.658 91.4316C366.63 91.6766 366.805 91.8981 367.049 91.9263L383.626 93.8433C383.87 93.8715 384.09 93.6957 384.118 93.4507C384.146 93.2057 383.971 92.9842 383.727 92.956L367.15 91.039Z" fill="#9EBCEA"/>
<path d="M366.856 93.6184C366.612 93.5902 366.392 93.766 366.364 94.011C366.336 94.256 366.511 94.4775 366.755 94.5057L379.649 95.9967C379.892 96.025 380.113 95.8492 380.141 95.6042C380.169 95.3592 379.994 95.1377 379.75 95.1095L366.856 93.6184Z" fill="#9EBCEA"/>
<path d="M370.905 83.1303L371.561 82.0099L370.883 81.9313L370.434 82.7105C370.406 82.6364 369.717 80.9159 369.717 80.9159C369.895 80.8631 370.054 80.7598 370.174 80.6184C370.304 80.455 370.382 80.2559 370.397 80.0472C370.422 79.8817 370.407 79.7125 370.354 79.554C370.306 79.4223 370.227 79.3048 370.122 79.212C370.013 79.1176 369.886 79.0456 369.748 79.0002C369.594 78.9481 369.434 78.9127 369.272 78.8946L368.11 78.76L367.739 82.0015L368.465 82.0852L368.599 80.9171L368.999 80.9635L369.819 83.0067L369.142 84.2301L369.894 84.317L370.342 83.4799C370.374 83.554 370.615 84.402 370.615 84.402L371.32 84.4845L370.905 83.1303ZM369.04 80.3788L368.664 80.3357L368.769 79.4258L369.144 79.4696C369.297 79.4777 369.445 79.5279 369.571 79.6145C369.619 79.6576 369.655 79.7127 369.675 79.7743C369.695 79.8358 369.698 79.9016 369.684 79.9648C369.681 80.0331 369.662 80.0996 369.628 80.1592C369.595 80.2188 369.548 80.2697 369.492 80.308C369.354 80.3826 369.195 80.4076 369.04 80.3788Z" fill="#9EBCEA"/>
<path d="M388.411 88.2713C388.167 88.243 387.947 88.4188 387.919 88.6638C387.891 88.9088 388.066 89.1303 388.31 89.1585L390.892 89.4572C391.136 89.4854 391.357 89.3096 391.385 89.0646C391.413 88.8196 391.238 88.5981 390.994 88.5699L388.411 88.2713Z" fill="#9EBCEA"/>
<path d="M388.115 90.8491C387.871 90.8209 387.65 90.9967 387.622 91.2417C387.594 91.4867 387.769 91.7082 388.013 91.7364L390.596 92.035C390.84 92.0632 391.06 91.8875 391.088 91.6425C391.116 91.3975 390.941 91.176 390.697 91.1478L388.115 90.8491Z" fill="#9EBCEA"/>
<path d="M387.82 93.4287C387.576 93.4005 387.356 93.5763 387.328 93.8213C387.3 94.0663 387.475 94.2878 387.719 94.316L390.301 94.6146C390.545 94.6428 390.766 94.4671 390.794 94.2221C390.822 93.9771 390.647 93.7556 390.403 93.7273L387.82 93.4287Z" fill="#9EBCEA"/>
<path d="M387.526 96.008C387.282 95.9798 387.061 96.1556 387.033 96.4006C387.005 96.6456 387.18 96.8671 387.424 96.8953L390.007 97.194C390.251 97.2222 390.471 97.0464 390.499 96.8014C390.527 96.5564 390.352 96.3349 390.108 96.3067L387.526 96.008Z" fill="#9EBCEA"/>
<path d="M403.773 240.68L401.312 241.093C398.684 241.228 396.097 240.395 394.036 238.75C391.975 237.105 390.582 234.761 390.118 232.157L387.86 219.37L390.314 218.932L392.573 231.719C392.756 232.806 393.152 233.845 393.736 234.777C394.321 235.71 395.084 236.516 395.98 237.151C396.877 237.785 397.889 238.235 398.959 238.475C400.029 238.714 401.136 238.738 402.216 238.546C403.295 238.353 404.326 237.948 405.249 237.353C406.172 236.758 406.969 235.985 407.593 235.079C408.217 234.173 408.657 233.152 408.887 232.074C409.117 230.997 409.132 229.884 408.932 228.8L406.673 216.013L409.127 215.575L411.386 228.363C411.848 230.998 411.327 233.711 409.922 235.984C408.517 238.257 406.328 239.929 403.773 240.68Z" fill="#0F1011"/>
<path d="M389.06 221.306C390.242 221.306 391.2 220.343 391.2 219.155C391.2 217.967 390.242 217.004 389.06 217.004C387.878 217.004 386.92 217.967 386.92 219.155C386.92 220.343 387.878 221.306 389.06 221.306Z" fill="#262626"/>
<path d="M407.828 217.957C409.01 217.957 409.968 216.994 409.968 215.807C409.968 214.619 409.01 213.656 407.828 213.656C406.647 213.656 405.689 214.619 405.689 215.807C405.689 216.994 406.647 217.957 407.828 217.957Z" fill="#262626"/>
<path d="M415.035 267.471C410.193 267.471 405.177 264.74 404.157 259.512L400.938 239.777L403.467 239.361L406.679 259.056C407.525 263.387 412.316 265.394 416.452 264.796L419.522 264.356C420.575 264.206 421.589 263.848 422.505 263.302C423.421 262.757 424.221 262.035 424.859 261.179C425.496 260.322 425.96 259.347 426.222 258.31C426.484 257.273 426.54 256.194 426.387 255.135L425.041 245.836L427.577 245.465L428.923 254.765C429.124 256.159 429.05 257.579 428.705 258.944C428.359 260.309 427.749 261.593 426.909 262.721C426.069 263.848 425.016 264.798 423.81 265.517C422.605 266.235 421.27 266.706 419.882 266.905L416.813 267.344C416.224 267.429 415.63 267.471 415.035 267.471Z" fill="#0F1011"/>
<path d="M426.37 248.782C429.104 248.782 431.321 246.554 431.321 243.806C431.321 241.057 429.104 238.829 426.37 238.829C423.636 238.829 421.419 241.057 421.419 243.806C421.419 246.554 423.636 248.782 426.37 248.782Z" fill="#262626"/>
</g>
<defs>
<clipPath id="clip0_1701_11539">
<rect width="478" height="310" fill="white" transform="translate(0.5)"/>
</clipPath>
</defs>
</svg>
