<svg width="412" height="427" viewBox="0 0 412 427" fill="none" xmlns="http://www.w3.org/2000/svg">
<path d="M0 16C0 7.16346 7.16344 0 16 0H396C404.837 0 412 7.16344 412 16V410.83C412 419.667 404.837 426.83 396 426.83H16C7.16345 426.83 0 419.667 0 410.83V16Z" fill="#B6EDE3"/>
<path d="M191.285 54.5506C191.285 54.5506 190.404 68.2123 187.823 72.2696C180.391 83.9495 178.125 93.1479 185.35 100.146C192.575 107.145 239.171 107.781 242.885 91.9183C246.012 78.564 239.651 77.0505 238.227 65.9876C237.582 60.9818 235.773 50.48 235.773 50.48" fill="#0A0A0A"/>
<path d="M231.023 89.3827C230.943 89.3722 230.05 104.183 212.844 102.892C200.932 102 196.684 89.3618 196.411 89.3618C197.696 89.0888 199.858 88.692 200.429 88.3876C202.304 87.3796 204.625 86.331 205.23 82.6886C205.578 80.5892 204.987 69.8488 205.169 67.7246L223.454 71.8058C223.199 76.2918 221.41 86.6921 227.678 88.5329C228.72 88.8373 229.844 89.1169 231.023 89.3827Z" fill="#FF9E85"/>
<path opacity="0.22" d="M223.711 84.282C223.452 83.4555 223.298 82.7366 223.16 81.4442C222.916 79.1333 223.046 77.0086 223.28 74.8435C219.586 74.3519 216.04 72.7979 213.174 70.416C212.834 71.6698 210.968 77.1487 211.484 78.3406C212.461 80.5934 217.054 84.282 223.71 84.282H223.711Z" fill="#0C0C0C"/>
<path d="M221.287 79.6201C214.071 80.2361 206.333 77.2387 204.512 67.6168L201.313 58.9391C199.492 49.3171 203.069 40.5608 212.129 38.8463C221.188 37.1318 228.465 40.1268 230.286 49.7487C230.286 49.7487 231.41 55.2538 231.583 57.1159C232.236 64.1383 232.236 78.6855 221.287 79.6201Z" fill="#FF9E85"/>
<path d="M230.07 53.6802C230.037 53.9922 228.862 53.9598 227.299 53.714C225.735 53.4682 224.351 53.1766 224.409 52.7903C224.482 52.302 225.815 52.1062 227.378 52.3525C228.942 52.5983 230.122 53.19 230.07 53.6806L230.07 53.6802Z" fill="#0A0A0A"/>
<path d="M194.066 61.965L204.266 64.779C210.416 62.2904 210.197 47.3397 210.197 47.3397C210.197 47.3397 217.668 54.6212 235.773 50.48C235.773 50.48 232.143 26.0336 205.396 33.3751C196.771 35.7422 190.582 45.2355 191.353 56.8511C191.893 64.991 194.066 61.965 194.066 61.965Z" fill="#0A0A0A"/>
<path d="M204.073 70.4462C201.32 70.9674 198.485 69.9889 197.712 65.8425C197.199 63.0881 199.433 60.9972 202.186 60.4761L203.954 62.0524L206.441 69.9979L204.073 70.4462Z" fill="#FF9E85"/>
<path d="M226.18 58.7014C226.734 58.7014 227.183 58.2524 227.183 57.6986C227.183 57.1448 226.734 56.6958 226.18 56.6958C225.626 56.6958 225.177 57.1448 225.177 57.6986C225.177 58.2524 225.626 58.7014 226.18 58.7014Z" fill="#0A0A0A"/>
<path d="M222.102 66.2615C221.899 66.2615 221.725 66.1081 221.704 65.9018C221.68 65.6813 221.84 65.4841 222.061 65.4612L224.186 65.2392L222.878 60.9956C222.813 60.7841 222.932 60.5593 223.144 60.494C223.355 60.4287 223.58 60.5473 223.645 60.7593L225.096 65.4693C225.132 65.5841 225.114 65.7084 225.047 65.8085C224.981 65.9085 224.874 65.9738 224.754 65.9862L222.144 66.2591C222.13 66.2606 222.116 66.2615 222.102 66.2615H222.102Z" fill="#0A0A0A"/>
<path d="M217.763 68.1535C221.394 68.3512 222.355 70.6045 222.398 70.7098C222.481 70.9151 222.383 71.149 222.177 71.2324C221.973 71.3158 221.741 71.2181 221.656 71.0142C221.615 70.9185 220.624 68.7033 216.603 68.9629C216.377 68.9782 216.191 68.8095 216.176 68.5885C216.162 68.3674 216.33 68.1764 216.551 68.1621C216.985 68.134 217.388 68.1331 217.763 68.1535Z" fill="#0A0A0A"/>
<path d="M217.889 53.4702C217.986 53.7689 216.898 54.2157 215.37 54.6254C213.841 55.0351 212.458 55.3304 212.354 54.9536C212.222 54.4777 213.361 53.7579 214.89 53.3482C216.419 52.9385 217.738 53 217.889 53.4702Z" fill="#0A0A0A"/>
<path d="M216.122 59.3405C216.676 59.3405 217.125 58.8916 217.125 58.3377C217.125 57.7839 216.676 57.335 216.122 57.335C215.569 57.335 215.12 57.7839 215.12 58.3377C215.12 58.8916 215.569 59.3405 216.122 59.3405Z" fill="#0A0A0A"/>
<path d="M198.471 58.5721L198.345 62.3984C199.071 61.5247 200.121 60.9169 201.339 60.772C201.642 60.732 201.943 60.7358 202.236 60.7606C204.065 62.2102 202.766 64.8575 204.265 64.7789C205.117 64.7341 207.059 62.7233 207.525 61.4761C207.82 60.6853 205.692 57.6513 205.702 56.8071" fill="#0A0A0A"/>
<path d="M175.699 364.238C175.699 364.238 169.396 373.555 176.273 381.303C183.151 389.051 175.739 393.291 175.739 393.291L147.794 365.346L161.756 351.384L175.699 364.238Z" fill="#14C6A4"/>
<path d="M177.185 172.593C177.185 172.593 177.309 169.273 177.283 176.805C177.239 189.313 178.429 222.365 177.593 264.965C176.925 299.018 153.219 357.454 153.219 357.454L174.599 372.799C174.599 372.799 206.76 320.636 211.864 268.997C214.476 242.564 219.821 171.452 219.821 171.452L177.185 172.593H177.185Z" fill="#262626"/>
<path d="M243.158 374.082C243.158 374.082 245.289 385.127 255.631 385.743C265.973 386.358 263.73 394.597 263.73 394.597H224.209V374.852L243.158 374.082L243.158 374.082Z" fill="#14C6A4"/>
<path d="M248.181 174.775C248.181 174.775 251.426 270.795 251.088 275.488L248.038 380.404L222.498 380.876L218.38 271.694C218.38 271.694 215.68 241.576 208.403 213.61C204.669 199.26 202.45 184.558 201.716 169.748L248.181 174.775Z" fill="#262626"/>
<path d="M214.489 242.853L216.618 210.285C216.618 210.285 218.806 223.824 218.806 235.495C218.806 241.199 217.631 263.784 217.631 263.784L214.489 242.853H214.489Z" fill="#0A0A0A"/>
<path d="M176.903 172.59L176.818 172.595C176.818 172.595 176.88 170.957 176.903 172.59Z" fill="#333333"/>
<path d="M177.01 172.59L176.925 172.595C176.925 172.595 176.987 170.957 177.01 172.59Z" fill="#333333"/>
<path d="M251.944 121.477C251.409 127.769 248.804 167.024 248.289 174.774H177.321C176.92 167.784 175.12 137.219 173.6 123.549C172.149 110.506 169.301 103.975 171.388 100.119C174.799 93.8166 184.118 90.1747 190.472 89.3144C194.352 88.7894 200.188 88.4126 200.188 88.4126C200.188 88.4126 200.682 98.4085 212.465 98.9649C228.504 99.7214 227.433 88.4126 227.512 88.4126C230.111 88.4126 244.955 90.0575 248.586 92.2098C258.482 98.0698 253.081 108.142 251.944 121.476V121.477Z" fill="#0B6D5A"/>
<path d="M305.885 132.981C306.228 132.036 307.295 131.563 308.232 131.959C309.112 132.332 309.492 133.38 309.166 134.278L308.354 136.516L313.456 131.314C314.09 130.648 315.294 130.236 315.994 130.997C316.601 131.574 318.002 131.752 318.23 132.834C318.237 132.84 318.223 142.744 317.635 143.362C315.14 145.983 309.108 146.49 305.742 145.159L300.446 143.065L305.885 132.981Z" fill="#FF9E85"/>
<g opacity="0.1">
<path d="M305.885 132.981C306.228 132.036 307.295 131.563 308.232 131.959C309.112 132.332 309.492 133.38 309.166 134.278L308.354 136.516L313.456 131.314C314.09 130.648 315.294 130.236 315.994 130.997C316.601 131.574 318.002 131.752 318.23 132.834C318.237 132.84 318.223 142.744 317.635 143.362C315.14 145.983 309.108 146.49 305.742 145.159L300.446 143.065L305.885 132.981Z" fill="#0C0C0C"/>
</g>
<path d="M327.866 173.342L236.843 186.947C229.218 188.086 223.334 180.367 226.453 173.317L261.23 94.6992C264.133 88.138 272.877 86.8308 277.572 92.2568L333.817 157.27C338.861 163.1 335.491 172.202 327.866 173.342Z" fill="#0B6D5A"/>
<path opacity="0.48" d="M327.866 173.342L236.843 186.947C229.218 188.086 223.334 180.367 226.453 173.317L261.23 94.6992C264.133 88.138 272.877 86.8308 277.572 92.2568L333.817 157.27C338.861 163.1 335.491 172.202 327.866 173.342Z" fill="white"/>
<path d="M235.342 187.298C232.242 187.298 229.361 185.882 227.429 183.347C225.181 180.398 224.735 176.612 226.235 173.221L261.013 94.6037C262.409 91.4472 265.281 89.2577 268.694 88.7475C272.108 88.2392 275.494 89.4916 277.752 92.1012L333.997 157.114C336.424 159.92 337.104 163.671 335.816 167.148C334.528 170.626 331.569 173.03 327.902 173.577L236.878 187.183C236.362 187.26 235.849 187.298 235.342 187.298ZM270.194 89.1124C269.72 89.1124 269.243 89.1472 268.764 89.2191C265.513 89.7055 262.778 91.7902 261.448 94.7966L226.67 173.414C225.241 176.644 225.667 180.25 227.808 183.059C229.949 185.868 233.314 187.232 236.808 186.712L327.831 173.107C331.325 172.585 334.143 170.296 335.369 166.983C336.596 163.671 335.949 160.098 333.637 157.426L277.392 92.4133C275.557 90.2934 272.941 89.1124 270.195 89.1124H270.194Z" fill="#0C0C0C"/>
<path d="M268.643 125.848L266.664 115.303L278.424 113.546L279.614 124.208L281.628 148.858L273.926 150.009L268.643 125.848H268.643ZM272.495 162.539C271.87 158.36 274.404 154.688 278.47 154.08C282.537 153.472 286.034 156.243 286.658 160.422C287.279 164.573 284.746 168.245 280.679 168.853C276.612 169.46 273.116 166.69 272.495 162.539V162.539Z" fill="white"/>
<path d="M312.375 140.756C312.216 140.017 312.618 139.464 313.11 139.174C313.094 139.154 313.043 139.115 313.079 139.09L311.875 139.135C311.147 139.161 310.462 138.672 310.347 137.953C310.227 137.207 310.698 136.54 311.375 136.357C311.364 136.347 311.363 136.331 311.356 136.319L310.862 136.337C310.177 136.362 309.532 135.923 309.379 135.255C309.172 134.356 309.831 133.54 310.704 133.508L311.846 133.465C311.845 133.459 311.839 133.456 311.839 133.45C311.838 133.442 311.845 133.436 311.846 133.428C311.21 133.309 310.717 132.765 310.692 132.091C310.607 131.265 311.495 130.759 312.234 130.732L314.566 130.827C315.297 130.856 315.964 131.251 316.344 131.876C317.964 134.539 322.031 141.595 319.674 141.682L313.873 141.896C313.204 141.921 312.516 141.411 312.375 140.756Z" fill="#FF9E85"/>
<path d="M252.511 152.368C252.46 151.616 251.943 151.048 251.293 150.862C251.305 150.834 251.316 150.805 251.31 150.773C251.297 150.718 251.255 150.685 251.206 150.668L252.6 150.358C253.444 150.171 254.082 149.404 254 148.545C253.914 147.654 253.174 147.029 252.343 147.021C252.352 147.007 252.348 146.988 252.352 146.972L252.925 146.845C253.718 146.668 254.326 145.971 254.302 145.159C254.271 144.066 253.27 143.327 252.258 143.551L250.935 143.845C250.935 143.838 250.941 143.832 250.939 143.824C250.938 143.815 250.927 143.811 250.924 143.802C251.619 143.474 252.021 142.703 251.847 141.922C251.698 140.949 250.527 140.635 249.672 140.825L241.953 142.397L243.785 141.059C244.519 140.522 244.775 139.491 244.277 138.73C243.746 137.918 242.651 137.725 241.879 138.291L231.88 145.601C229.442 147.384 228.864 150.783 230.576 153.272C232.531 156.112 236.013 157.481 239.378 156.734L251.134 154.125C251.909 153.953 252.565 153.161 252.511 152.368Z" fill="#FF9E85"/>
<g opacity="0.25">
<path d="M243.298 145.395C243.317 145.477 243.397 145.53 243.48 145.513L250.818 144.008C250.902 143.991 250.956 143.909 250.939 143.825C250.929 143.745 250.84 143.687 250.756 143.704L243.418 145.209C243.334 145.226 243.28 145.308 243.297 145.392L243.298 145.395H243.298Z" fill="#0C0C0C"/>
</g>
<g opacity="0.25">
<path d="M243.872 148.65C243.891 148.732 243.972 148.784 244.055 148.767L252.244 147.088C252.328 147.071 252.382 146.989 252.364 146.905C252.348 146.828 252.265 146.768 252.182 146.785L243.992 148.464C243.908 148.481 243.854 148.563 243.872 148.647L243.873 148.65H243.872Z" fill="#0C0C0C"/>
</g>
<g opacity="0.25">
<path d="M244.474 152.178C244.493 152.26 244.574 152.313 244.657 152.296L251.189 150.956C251.273 150.939 251.327 150.857 251.31 150.773C251.291 150.689 251.211 150.635 251.127 150.653L244.594 151.992C244.511 152.009 244.457 152.091 244.474 152.175L244.475 152.178H244.474Z" fill="#0C0C0C"/>
</g>
<path d="M238.651 161.387L174.87 172.913C174.401 172.964 173.933 172.989 173.467 172.989C169.921 172.989 166.505 171.532 164.043 168.923C161.258 165.971 160.017 161.884 160.69 157.882L169.619 104.808C170.807 97.7512 177.489 92.994 184.547 94.1798C191.603 95.3669 196.362 102.051 195.175 109.107L189.086 145.643L235.847 139.77L238.651 161.386V161.387Z" fill="#0B6D5A"/>
<path d="M174.869 173.149C174.758 173.149 174.658 173.07 174.637 172.955C174.615 172.827 174.7 172.704 174.828 172.681L238.389 161.195L235.644 140.035L189.116 145.878C189.038 145.887 188.967 145.861 188.916 145.807C188.865 145.753 188.841 145.679 188.853 145.605L192.724 122.254C192.745 122.126 192.865 122.035 192.995 122.06C193.124 122.082 193.211 122.203 193.189 122.332L189.37 145.37L235.817 139.537C235.944 139.521 236.064 139.612 236.081 139.741L238.885 161.357C238.901 161.482 238.817 161.597 238.693 161.62L174.912 173.146C174.898 173.149 174.884 173.15 174.869 173.15V173.149Z" fill="#0C0C0C"/>
<path d="M189.05 145.411L184.947 146.067L185.021 146.534L189.124 145.877L189.05 145.411Z" fill="#0C0C0C"/>
<path d="M320.613 394.83H110.306C110.103 394.83 109.938 394.665 109.938 394.462C109.938 394.259 110.103 394.094 110.306 394.094H320.613C320.816 394.094 320.981 394.259 320.981 394.462C320.981 394.665 320.816 394.83 320.613 394.83Z" fill="#3F3F3F"/>
<path d="M124.252 278.561L62.5621 278.52C57.3943 278.517 54.2621 272.814 57.0313 268.451L87.9093 219.8C90.4865 215.74 96.4127 215.744 98.9842 219.808L129.796 268.501C132.56 272.868 129.42 278.566 124.252 278.562V278.561Z" fill="#F4F4F4"/>
<path d="M88.6262 265.891C88.6281 263.059 90.6727 260.877 93.4291 260.879C96.1849 260.881 98.2267 263.065 98.2248 265.898C98.2229 268.711 96.1783 270.893 93.4224 270.891C90.6661 270.889 88.6243 268.704 88.6262 265.891ZM89.7248 241.186L89.4623 234L97.4321 234.006L97.1601 241.191L96.0411 257.732L90.8209 257.728L89.7248 241.186Z" fill="white"/>
<path d="M148.343 118.87L98.6931 118.837C94.5343 118.834 92.0133 114.244 94.2418 110.733L119.093 71.5774C121.167 68.3094 125.937 68.3127 128.007 71.5836L152.805 110.772C155.029 114.287 152.502 118.873 148.343 118.87Z" fill="#F4F4F4"/>
<path d="M119.671 108.674C119.673 106.395 121.318 104.639 123.536 104.64C125.754 104.642 127.397 106.4 127.396 108.679C127.394 110.944 125.749 112.699 123.531 112.698C121.313 112.697 119.67 110.938 119.671 108.674ZM120.555 88.794L120.344 83.0103L126.758 83.015L126.539 88.7978L125.639 102.108L121.438 102.105L120.555 88.794Z" fill="white"/>
<path d="M350.229 324.519L296.046 324.483C291.507 324.48 288.756 319.471 291.189 315.639L318.309 272.908C320.572 269.342 325.778 269.346 328.036 272.915L355.099 315.682C357.526 319.518 354.768 324.523 350.229 324.519Z" fill="#F4F4F4"/>
<path d="M318.942 313.393C318.943 310.905 320.739 308.989 323.16 308.991C325.58 308.993 327.373 310.911 327.372 313.399C327.37 315.87 325.574 317.786 323.154 317.784C320.733 317.782 318.94 315.865 318.942 313.393ZM319.906 291.696L319.675 285.385L326.675 285.39L326.436 291.701L325.453 306.227L320.869 306.224L319.906 291.696Z" fill="white"/>
</svg>
