<svg width="48" height="48" viewBox="0 0 48 48" fill="none" xmlns="http://www.w3.org/2000/svg">
<path fill-rule="evenodd" clip-rule="evenodd" d="M23.073 30.075C22.6938 30.1177 22.3126 30.1391 21.931 30.139H16V35C16 35 15.194 34.837 14 34.377C10.586 33.064 4 29.33 4 20.07C4 14.51 8.508 10 14.07 10H21.93C26.782 10 30.833 13.431 31.787 18H35.945C38.0814 18.0003 40.1302 18.8491 41.6408 20.3599C43.1514 21.8707 44 23.9196 44 26.056C44 33.335 38.172 36.346 35 37.445C33.815 37.856 33 38 33 38V34.111H30.056C28.6398 34.1122 27.2484 33.7397 26.0223 33.031C24.7962 32.3224 23.7789 31.3027 23.073 30.075ZM14 28.139V32.214C13.0036 31.777 12.0557 31.2367 11.172 30.602C8.582 28.729 6 25.554 6 20.069C6.00027 17.9289 6.85061 15.8765 8.364 14.3633C9.87739 12.8501 11.9299 12 14.07 12H21.93C23.9884 12 25.969 12.7866 27.4665 14.1988C28.9641 15.6111 29.8654 17.5421 29.986 19.597C29.9146 20.9814 29.5576 22.3361 28.9373 23.5759C28.3171 24.8156 27.4471 25.9137 26.382 26.801C25.0626 27.6758 23.5141 28.1413 21.931 28.139H14ZM27.575 28.409C26.8866 28.973 26.1381 29.4593 25.343 29.859C25.9103 30.5628 26.6281 31.1305 27.4438 31.5202C28.2594 31.91 29.152 32.1118 30.056 32.111H35V35.312C35.847 34.9796 36.6615 34.5695 37.433 34.087C39.8 32.592 42 30.164 42 26.056C42 24.45 41.3621 22.9098 40.2266 21.7741C39.0911 20.6384 37.551 20.0003 35.945 20H32V20.07C32 23.539 30.245 26.598 27.575 28.409Z" fill="#14C6A4"/>
</svg>
