<svg width="728" height="807" viewBox="0 0 728 807" fill="none" xmlns="http://www.w3.org/2000/svg">
<path d="M0 16C0 7.16346 7.16344 0 16 0H712C720.837 0 728 7.16344 728 16V791C728 799.837 720.837 807 712 807H16C7.16344 807 0 799.837 0 791V16Z" fill="#B6EDE3"/>
<circle cx="642" cy="65" r="50" fill="#62D9C2"/>
<circle cx="517" cy="168" r="15" fill="#62D9C2"/>
<circle cx="562" cy="115" r="30" fill="#62D9C2"/>
<circle cx="104" cy="670" r="85" fill="#62D9C2"/>
<g clip-path="url(#clip0_60_173)">
<path d="M557.14 708.069C650.951 708.069 727 701.052 727 692.396C727 683.739 650.951 676.722 557.14 676.722C463.328 676.722 387.279 683.739 387.279 692.396C387.279 701.052 463.328 708.069 557.14 708.069Z" fill="white"/>
<path opacity="0.1" d="M557.14 708.069C650.951 708.069 727 701.052 727 692.396C727 683.739 650.951 676.722 557.14 676.722C463.328 676.722 387.279 683.739 387.279 692.396C387.279 701.052 463.328 708.069 557.14 708.069Z" fill="#292A2E"/>
<path d="M275.164 459.316H221.02V475.07H275.164V459.316Z" fill="#F4F4F4"/>
<path opacity="0.05" d="M235.386 459.316H228.291V475.07H235.386V459.316Z" fill="#292A2E"/>
<path d="M268.246 462.74H238.747V472.076H268.246V462.74Z" fill="white"/>
<path d="M318.351 461.372L268.042 439.398L261.737 453.835L312.045 475.808L318.351 461.372Z" fill="#F4F4F4"/>
<path opacity="0.05" d="M318.351 461.372L268.042 439.398L261.737 453.835L312.045 475.808L318.351 461.372Z" fill="#292A2E"/>
<path d="M311.595 458.421L305.003 455.542L298.698 469.978L305.29 472.858L311.595 458.421Z" fill="white"/>
<path d="M300.509 457.316L273.1 445.344L269.363 453.899L296.773 465.871L300.509 457.316Z" fill="white"/>
<path opacity="0.05" d="M318.445 658.886H304.839V667.973H318.445V658.886Z" fill="#292A2E"/>
<path opacity="0.05" d="M179.335 658.886H165.728V667.973H179.335V658.886Z" fill="#292A2E"/>
<path d="M330.918 475.809H153.256V658.579H330.918V475.809Z" fill="#F4F4F4"/>
<path opacity="0.03" d="M330.918 475.809H153.256V658.579H330.918V475.809Z" fill="#292A2E"/>
<path d="M363.841 475.809H186.179V658.579H363.841V475.809Z" fill="#F4F4F4"/>
<path opacity="0.05" d="M351.369 658.886H337.762V667.973H351.369V658.886Z" fill="#292A2E"/>
<path opacity="0.05" d="M212.258 658.886H198.652V667.973H212.258V658.886Z" fill="#292A2E"/>
<path opacity="0.7" d="M357.173 484.369H192.849V519.483H357.173V484.369Z" fill="white"/>
<path opacity="0.7" d="M357.173 528.077H192.849V563.191H357.173V528.077Z" fill="white"/>
<path opacity="0.7" d="M357.173 571.785H192.849V606.899H357.173V571.785Z" fill="white"/>
<path opacity="0.05" d="M275.011 506.839C277.724 506.839 279.924 504.64 279.924 501.926C279.924 499.213 277.724 497.013 275.011 497.013C272.298 497.013 270.098 499.213 270.098 501.926C270.098 504.64 272.298 506.839 275.011 506.839Z" fill="#292A2E"/>
<path opacity="0.05" d="M275.011 550.547C277.724 550.547 279.924 548.348 279.924 545.634C279.924 542.921 277.724 540.721 275.011 540.721C272.298 540.721 270.098 542.921 270.098 545.634C270.098 548.348 272.298 550.547 275.011 550.547Z" fill="#292A2E"/>
<path opacity="0.05" d="M275.011 594.256C277.724 594.256 279.924 592.057 279.924 589.343C279.924 586.63 277.724 584.43 275.011 584.43C272.298 584.43 270.098 586.63 270.098 589.343C270.098 592.057 272.298 594.256 275.011 594.256Z" fill="#292A2E"/>
<path opacity="0.7" d="M357.173 616.479H192.849V651.593H357.173V616.479Z" fill="white"/>
<path opacity="0.05" d="M275.011 638.949C277.724 638.949 279.924 636.749 279.924 634.036C279.924 631.322 277.724 629.123 275.011 629.123C272.298 629.123 270.098 631.322 270.098 634.036C270.098 636.749 272.298 638.949 275.011 638.949Z" fill="#292A2E"/>
<path d="M216.323 294.402H321.375V157.664H216.323V294.402Z" fill="#F4F4F4"/>
<path d="M216.324 157.664H212.916V294.402H216.324V157.664Z" fill="#F4F4F4"/>
<path opacity="0.05" d="M216.324 157.664H212.916V294.402H216.324V157.664Z" fill="#292A2E"/>
<path opacity="0.05" d="M235.461 269.493H302.239V182.572H235.461V269.493Z" fill="#292A2E"/>
<path opacity="0.03" d="M235.461 269.493H238.941V182.572H235.461V269.493Z" fill="#292A2E"/>
<path d="M130.407 414.733H216.323V328.028H130.407V414.733Z" fill="#F4F4F4"/>
<path opacity="0.05" d="M146.058 398.938H200.672V343.823H146.058V398.938Z" fill="#292A2E"/>
<path d="M130.408 328.028H127V414.733H130.408V328.028Z" fill="#F4F4F4"/>
<path opacity="0.05" d="M130.408 328.028H127V414.733H130.408V328.028Z" fill="#292A2E"/>
<path opacity="0.03" d="M146.058 398.938H149.538V343.823H146.058V398.938Z" fill="#292A2E"/>
<path d="M654.309 157.338H435.082V376.566H654.309V157.338Z" fill="#F4F4F4"/>
<path d="M435.081 157.338H432.569V376.566H435.081V157.338Z" fill="#F4F4F4"/>
<path opacity="0.05" d="M435.081 157.338H432.569V376.566H435.081V157.338Z" fill="#292A2E"/>
<path opacity="0.05" d="M488.19 308.404V251.047H535.174V284.37H607.952V343.373H638.884V376.566H607.952H601.994H445.627V308.404H488.19Z" fill="#292A2E"/>
<path opacity="0.34" d="M529.143 257.274H494.929V263.502H529.143V257.274Z" fill="#FFFFFA"/>
<path opacity="0.34" d="M529.143 270.179H494.929V276.407H529.143V270.179Z" fill="#FFFFFA"/>
<path opacity="0.34" d="M529.143 283.085H494.929V289.312H529.143V283.085Z" fill="#FFFFFA"/>
<path opacity="0.34" d="M458 314.449H451.694V320.677H458V314.449Z" fill="#FFFFFA"/>
<path opacity="0.34" d="M458 327.354H451.694V333.582H458V327.354Z" fill="#FFFFFA"/>
<path opacity="0.34" d="M458 340.259H451.694V346.487H458V340.259Z" fill="#FFFFFA"/>
<path opacity="0.34" d="M469.667 314.449H463.361V320.677H469.667V314.449Z" fill="#FFFFFA"/>
<path opacity="0.34" d="M469.667 327.354H463.361V333.582H469.667V327.354Z" fill="#FFFFFA"/>
<path opacity="0.34" d="M469.667 340.259H463.361V346.487H469.667V340.259Z" fill="#FFFFFA"/>
<path opacity="0.34" d="M481.018 314.449H474.712V320.677H481.018V314.449Z" fill="#FFFFFA"/>
<path opacity="0.34" d="M481.018 327.354H474.712V333.582H481.018V327.354Z" fill="#FFFFFA"/>
<path opacity="0.34" d="M481.018 340.259H474.712V346.487H481.018V340.259Z" fill="#FFFFFA"/>
<path d="M435.082 265.722H479.193V157.338H482.842V265.722H601.994V157.338H605.642V265.722H654.309V269.37H605.642V376.566H601.994V269.37H482.842V376.566H479.193V269.37H435.082V265.722Z" fill="white"/>
<path d="M663.042 376.301H426.348V383.592H663.042V376.301Z" fill="#F4F4F4"/>
<path opacity="0.1" d="M663.042 376.301H426.348V383.592H663.042V376.301Z" fill="#292A2E"/>
<path opacity="0.1" d="M426.348 376.301H422.93V383.592H426.348V376.301Z" fill="#292A2E"/>
<path opacity="0.1" d="M426.348 376.301H422.93V383.592H426.348V376.301Z" fill="#292A2E"/>
<path d="M419.642 135.435H209.667C199.94 135.435 192.054 143.321 192.054 153.049V407.954C192.054 417.681 199.94 425.567 209.667 425.567H419.642C429.37 425.567 437.256 417.681 437.256 407.954V153.049C437.256 143.321 429.37 135.435 419.642 135.435Z" fill="#292A2E"/>
<path d="M427.403 127.674H217.428C207.701 127.674 199.815 135.56 199.815 145.288V400.193C199.815 409.92 207.701 417.806 217.428 417.806H427.403C437.131 417.806 445.017 409.92 445.017 400.193V145.288C445.017 135.56 437.131 127.674 427.403 127.674Z" fill="white"/>
<path d="M427.403 418.48H217.428C207.345 418.48 199.141 410.277 199.141 400.193V145.288C199.141 135.204 207.345 127 217.428 127H427.403C437.487 127 445.691 135.204 445.691 145.288V400.193C445.691 410.277 437.487 418.48 427.403 418.48ZM217.428 128.348C208.088 128.348 200.489 135.947 200.489 145.288V400.193C200.489 409.533 208.088 417.132 217.428 417.132H427.403C436.744 417.132 444.343 409.534 444.343 400.193V145.288C444.343 135.947 436.744 128.348 427.403 128.348H217.428Z" fill="#292A2E"/>
<path d="M616.716 413.858C583.153 413.858 555.945 423.014 555.945 434.309V458.656H677.486V434.309C677.486 423.014 650.279 413.858 616.716 413.858Z" fill="#93E5D5"/>
<path opacity="0.49" d="M616.716 413.858C583.153 413.858 555.945 423.014 555.945 434.309V458.656H677.486V434.309C677.486 423.014 650.279 413.858 616.716 413.858Z" fill="white"/>
<path opacity="0.49" d="M660.932 434.312V458.655H555.944V434.312C555.944 423.958 578.792 415.405 608.438 414.052C638.084 415.405 660.932 423.958 660.932 434.312H660.932Z" fill="white"/>
<path d="M677.487 695.23H679.527L677.487 456.497L675.465 458.536L676.907 625.298L604.909 626.521L603.457 458.519L601.435 458.536L602.888 626.556L559.426 627.295L557.967 458.519L555.944 456.514L557.984 695.23L559.989 695.213L559.443 629.317L602.905 628.579L603.457 695.23L605.479 695.213L604.927 628.544L676.924 627.32L677.487 695.23Z" fill="#292A2E"/>
<path d="M494.181 659.488C494.181 659.488 490.567 678.223 473.026 679.267C455.486 680.311 459.289 694.284 459.289 694.284H526.319V660.795L494.181 659.489L494.181 659.488Z" fill="#686868"/>
<path d="M532.425 603.14C532.425 603.14 537.451 621.546 522.173 630.225C506.895 638.905 516.476 649.765 516.476 649.765L576.623 620.177L561.84 590.126L532.426 603.14H532.425Z" fill="#686868"/>
<path d="M526.061 615.305L480.739 444.306C477.3 425.415 482.477 417.227 490.452 409.272C504.463 395.297 562.52 365.553 562.52 365.553L632.169 365.363C650.636 365.363 668.792 383.573 668.792 402.042C668.792 420.509 650.017 436.171 631.55 436.171L545.782 444.73L569.031 601.302L526.061 615.305Z" fill="#262626"/>
<path d="M569.032 601.302L559.879 539.662L513.51 567.947L526.061 615.305L569.032 601.302Z" fill="#0C0C0C"/>
<path d="M579.542 400.156C579.542 400.156 550.264 406.682 521.266 435.68C503.685 453.261 505.127 485.077 507.764 546.269L536.564 503.73L568.153 446.758L579.542 400.156Z" fill="#0C0C0C"/>
<path d="M680.918 365.342L633.618 365.119L633.6 365.741H619.278C619.278 365.741 583.402 398.756 554.516 419.559C533.506 434.69 520.689 449.116 519.58 464.84C516.877 503.166 486.384 666.626 486.384 666.626L532.275 673.575L572.544 478.228C572.544 478.228 635.517 449.198 650.082 439.096C663.798 429.582 673.486 425.905 678.024 415.523C685.863 397.593 680.918 365.342 680.918 365.342V365.342Z" fill="#262626"/>
<path d="M627.852 377.258L551.118 378.274L594.162 403.982L629.978 385.486C634.013 383.321 632.432 377.197 627.852 377.258Z" fill="#292A2E"/>
<path opacity="0.2" d="M627.852 377.258L551.118 378.274L594.162 403.982L629.978 385.486C634.013 383.321 632.432 377.197 627.852 377.258Z" fill="white"/>
<path d="M551.558 239.596L529.856 309.921L486.383 366.839L511.778 395.99L563.497 338.264C565.786 336.455 567.719 334.006 568.913 331.117L569.719 329.167L599.589 256.89L551.557 239.596L551.558 239.596Z" fill="#43D1B6"/>
<path d="M589.461 220.764C589.598 220.745 591.125 246.075 620.551 243.867C640.922 242.341 648.185 220.728 648.653 220.728C646.456 220.261 643.742 219.552 642.663 219.31C639.079 218.502 634.605 215.544 633.571 209.316C632.976 205.725 633.987 187.357 633.675 183.725L602.405 190.704C602.842 198.376 605.9 216.163 595.182 219.31C593.399 219.831 591.478 220.31 589.461 220.764V220.764Z" fill="#FF9E85"/>
<path opacity="0.22" d="M601.967 212.041C602.41 210.627 602.674 209.398 602.908 207.188C603.326 203.235 603.104 199.602 602.703 195.899C609.021 195.059 615.085 192.402 619.986 188.328C620.566 190.472 623.76 199.842 622.876 201.88C621.205 205.732 613.351 212.041 601.967 212.041Z" fill="#0C0C0C"/>
<path d="M583.372 163.682C583.372 163.682 574.399 157.013 572.072 141.527C570.27 129.536 581.401 137.23 581.401 137.23C581.401 137.23 580.187 128.583 586.497 129.395C592.807 130.207 596.408 139.273 596.408 139.273" fill="#0C0C0C"/>
<path d="M619.099 130.165C619.099 130.165 650.412 133.285 639.419 175.767L636.652 175.973L631.036 176.392" fill="#0C0C0C"/>
<path d="M607.894 206.546C620.222 205.348 634.928 197.443 635.017 180.696L635.095 165.585C635.183 148.838 626.458 135.216 610.69 135.134C594.922 135.051 583.065 148.565 582.977 165.312L582.942 172.002C582.935 173.379 583.067 175.851 583.494 178.864C584.348 184.875 585.67 194.015 589.801 200.174C593.701 205.988 600.019 207.312 607.894 206.546Z" fill="#FF9E85"/>
<path d="M590.946 176.186C591.886 176.05 592.538 175.178 592.402 174.238C592.266 173.298 591.394 172.646 590.454 172.782C589.514 172.918 588.862 173.79 588.998 174.73C589.134 175.67 590.006 176.322 590.946 176.186Z" fill="#0A0A0A"/>
<path d="M602.359 185.171C602.704 185.121 602.961 184.818 602.947 184.463C602.932 184.084 602.613 183.788 602.233 183.803L598.573 183.947L599.751 176.426C599.81 176.051 599.553 175.699 599.177 175.64C598.803 175.582 598.451 175.838 598.391 176.213L597.085 184.561C597.053 184.765 597.115 184.971 597.252 185.125C597.388 185.279 597.587 185.363 597.792 185.355L602.287 185.178C602.312 185.177 602.337 185.174 602.359 185.171Z" fill="#0A0A0A"/>
<path d="M604.274 192.763C610.445 191.871 611.741 187.877 611.798 187.69C611.909 187.327 611.705 186.943 611.342 186.832C610.981 186.721 610.598 186.923 610.485 187.283C610.431 187.453 609.076 191.387 602.169 191.557C601.782 191.566 601.489 191.882 601.498 192.262C601.508 192.641 601.823 192.942 602.202 192.933C602.948 192.914 603.638 192.855 604.274 192.763Z" fill="#0A0A0A"/>
<path d="M605.504 164.908C605.414 165.439 607.368 165.93 610.062 166.25C612.756 166.571 615.176 166.732 615.26 166.067C615.366 165.227 613.158 163.605 610.464 163.285C607.77 162.965 605.646 164.074 605.504 164.908Z" fill="#0A0A0A"/>
<path d="M608.909 174.891C609.849 174.755 610.5 173.883 610.364 172.943C610.228 172.003 609.356 171.351 608.416 171.487C607.477 171.623 606.825 172.495 606.961 173.435C607.097 174.375 607.969 175.027 608.909 174.891Z" fill="#0A0A0A"/>
<path d="M584.887 168.253C585.02 168.775 587.006 168.431 589.598 167.63C592.191 166.829 594.468 165.996 594.275 165.353C594.031 164.542 591.623 163.857 589.031 164.658C586.438 165.458 584.679 167.432 584.888 168.252L584.887 168.253Z" fill="#0A0A0A"/>
<path d="M634.01 185.793C638.802 185.818 642.714 180.712 642.738 175.92C642.763 171.129 638.893 168.465 634.101 168.44L631.615 171.638L629.89 185.772L634.01 185.793Z" fill="#FF9E85"/>
<path d="M630.645 177.988C629.846 178.065 629.134 177.487 629.053 176.689C628.526 171.532 626.313 154.236 620.195 153.038C615.402 152.099 603.849 158.973 593.085 157.004C588.376 156.142 583.921 157.34 583.483 159.564C583.31 160.445 580.286 147.829 587.578 138.182C593.384 130.501 612.554 128.202 621.302 130.64C645.523 137.394 635.097 169.477 635.097 169.477L634.224 176.495C634.14 177.172 633.597 177.701 632.917 177.767L630.645 177.988Z" fill="#0C0C0C"/>
<path d="M604.201 138.166C605.252 132.938 603.225 128.12 599.673 127.406C596.121 126.691 592.389 130.351 591.337 135.579C590.286 140.807 592.313 145.625 595.865 146.34C599.417 147.054 603.149 143.395 604.201 138.166Z" fill="#0C0C0C"/>
<path d="M554.297 275.155C555.206 285.827 561.646 352.407 562.52 365.553H680.866C681.546 353.697 684.599 301.855 687.178 278.671C689.639 256.548 693.089 246.48 690.254 239.605C685.254 227.48 669.338 222.064 658.561 220.605C651.98 219.714 642.081 219.076 642.081 219.076C642.081 219.076 641.243 236.03 621.259 236.974C594.055 238.257 595.872 219.076 595.737 219.076C591.33 219.076 567.341 222.281 561.342 226.19C552.87 231.712 550.366 239.238 550.267 246.152C550.153 254.112 553.265 263.051 554.297 275.155Z" fill="#43D1B6"/>
<path d="M560.298 339.316C560.126 339.316 559.978 339.184 559.963 339.008L555.479 287.726C555.463 287.541 555.601 287.377 555.785 287.361C555.974 287.34 556.135 287.482 556.151 287.668L560.635 338.949C560.651 339.135 560.513 339.298 560.329 339.315C560.318 339.315 560.308 339.316 560.298 339.316Z" fill="#0C0C0C"/>
<path d="M568.88 369.103L585.13 355.92L582.395 356.693C580.559 357.133 578.583 356.153 578.047 354.342C577.476 352.411 578.644 350.42 580.577 349.956L614.716 341.653L617.652 352.527C619.518 359.436 617.006 366.787 611.301 371.107L598.652 380.653C597.307 381.671 595.387 381.695 594.133 380.567C592.922 379.477 592.675 377.843 593.265 376.525C593.213 376.507 593.161 376.482 593.122 376.436C593.049 376.35 593.033 376.239 593.061 376.137L590.731 377.902C589.226 379.042 587.022 378.936 585.806 377.493C584.684 376.162 584.736 374.271 585.793 373.008C585.755 373.003 585.723 372.989 585.689 372.972L584.731 373.697C583.386 374.716 581.465 374.739 580.212 373.611C578.746 372.29 578.689 370.17 579.825 368.785C579.812 368.765 579.8 368.744 579.791 368.722L573.024 374.212C571.613 375.357 569.542 375.141 568.397 373.73C567.252 372.319 567.468 370.248 568.879 369.103L568.88 369.103Z" fill="#FF9E85"/>
<path opacity="0.2" d="M580.205 368.915C580.24 368.903 580.273 368.884 580.303 368.859L586.814 363.45C586.953 363.334 586.972 363.127 586.856 362.989C586.741 362.85 586.534 362.831 586.395 362.946L579.885 368.355C579.746 368.471 579.726 368.678 579.842 368.816C579.933 368.926 580.079 368.961 580.205 368.915Z" fill="#0A0A0A"/>
<path opacity="0.2" d="M585.943 373.001C585.977 372.989 586.01 372.971 586.039 372.947L591.19 368.735C591.33 368.621 591.351 368.415 591.236 368.274C591.122 368.134 590.915 368.113 590.775 368.228L585.625 372.439C585.485 372.554 585.464 372.76 585.578 372.9C585.669 373.011 585.816 373.047 585.943 373.001Z" fill="#0A0A0A"/>
<path opacity="0.2" d="M593.482 376.532C593.518 376.519 593.553 376.498 593.584 376.472L595.97 374.426C596.108 374.308 596.123 374.102 596.006 373.964C595.888 373.826 595.682 373.809 595.544 373.928L593.157 375.974C593.02 376.091 593.004 376.298 593.122 376.436C593.213 376.542 593.357 376.576 593.481 376.531L593.482 376.532Z" fill="#0A0A0A"/>
<path d="M712.501 336.812L712.375 336.259L690.777 240.717L648.042 250.378L664.901 324.954L597.361 341.552L605.673 379.662L695.676 362.493C695.882 362.452 696.178 362.391 696.383 362.345C707.885 359.745 715.101 348.313 712.501 336.812Z" fill="#43D1B6"/>
<path d="M597.031 341.622C596.993 341.444 597.104 341.269 597.281 341.226L664.518 324.713L653.585 276.427C653.543 276.245 653.657 276.065 653.839 276.023C654.021 275.982 654.201 276.096 654.242 276.278L665.248 324.887C665.289 325.066 665.178 325.245 665 325.288L597.758 341.802C597.758 341.802 598.208 343.767 598.335 344.427C598.377 344.643 598.168 344.757 598.091 344.776C598.009 344.796 597.752 344.822 597.684 344.504C597.529 343.782 597.03 341.623 597.03 341.623L597.031 341.622Z" fill="#0C0C0C"/>
<path d="M599.667 394.838L573.699 315.015C572.763 312.138 570.081 310.19 567.055 310.19H461.262C456.514 310.19 453.149 314.823 454.617 319.338L480.585 399.161C481.521 402.038 484.203 403.986 487.229 403.986H593.023C597.77 403.986 601.135 399.353 599.667 394.838Z" fill="#292A2E"/>
<path opacity="0.2" d="M599.667 394.838L573.699 315.015C572.763 312.138 570.081 310.19 567.055 310.19H461.262C456.514 310.19 453.149 314.823 454.617 319.338L480.585 399.161C481.521 402.038 484.203 403.986 487.229 403.986H593.023C597.77 403.986 601.135 399.353 599.667 394.838Z" fill="white"/>
<path d="M524.094 368.183C530.222 368.183 535.19 363.216 535.19 357.088C535.19 350.96 530.222 345.992 524.094 345.992C517.966 345.992 512.999 350.96 512.999 357.088C512.999 363.216 517.966 368.183 524.094 368.183Z" fill="white"/>
<path d="M196.987 454.28C221.138 454.28 240.717 434.702 240.717 410.55C240.717 386.399 221.138 366.82 196.987 366.82C172.835 366.82 153.256 386.399 153.256 410.55C153.256 434.702 172.835 454.28 196.987 454.28Z" fill="#292A2E"/>
<path d="M187.908 404.844C186.709 404.844 185.737 403.872 185.737 402.673V392.163C185.737 386.352 190.784 381.623 196.987 381.623C203.189 381.623 208.236 386.351 208.236 392.163V401.951C208.236 403.15 207.264 404.122 206.065 404.122C204.865 404.122 203.893 403.15 203.893 401.951V392.163C203.893 388.745 200.795 385.965 196.986 385.965C193.177 385.965 190.078 388.745 190.078 392.163V402.673C190.078 403.872 189.106 404.844 187.907 404.844H187.908Z" fill="white"/>
<path d="M210.835 400.856H183.137C181.522 400.856 180.213 402.165 180.213 403.781V429.87C180.213 431.486 181.522 432.795 183.137 432.795H210.835C212.451 432.795 213.76 431.486 213.76 429.87V403.781C213.76 402.165 212.451 400.856 210.835 400.856Z" fill="white"/>
<path d="M194.229 414.243C194.229 415.337 194.863 416.274 195.782 416.724V420.962C195.782 421.632 196.325 422.165 196.986 422.165C197.648 422.165 198.19 421.632 198.19 420.962V416.724C199.109 416.274 199.743 415.337 199.743 414.243C199.743 412.717 198.511 411.485 196.985 411.485C195.459 411.485 194.228 412.717 194.228 414.243H194.229Z" fill="#292A2E"/>
<path d="M409.067 272.442H235.765C231.628 272.442 228.274 275.795 228.274 279.932V304.228C228.274 308.365 231.628 311.718 235.765 311.718H409.067C413.204 311.718 416.558 308.365 416.558 304.228V279.932C416.558 275.795 413.204 272.442 409.067 272.442Z" fill="white"/>
<path d="M409.067 312.392H235.764C231.263 312.392 227.6 308.729 227.6 304.227V279.932C227.6 275.43 231.263 271.768 235.764 271.768H409.067C413.568 271.768 417.231 275.43 417.231 279.932V304.227C417.231 308.729 413.568 312.392 409.067 312.392ZM235.764 273.115C232.005 273.115 228.948 276.173 228.948 279.932V304.226C228.948 307.986 232.006 311.043 235.764 311.043H409.067C412.826 311.043 415.883 307.985 415.883 304.226V279.932C415.883 276.172 412.825 273.115 409.067 273.115H235.764Z" fill="#292A2E"/>
<path d="M409.067 328.572H235.765C231.628 328.572 228.274 331.926 228.274 336.063V360.358C228.274 364.495 231.628 367.849 235.765 367.849H409.067C413.204 367.849 416.558 364.495 416.558 360.358V336.063C416.558 331.926 413.204 328.572 409.067 328.572Z" fill="white"/>
<path d="M409.067 368.522H235.764C231.263 368.522 227.6 364.86 227.6 360.358V336.063C227.6 331.561 231.263 327.898 235.764 327.898H409.067C413.568 327.898 417.231 331.561 417.231 336.063V360.358C417.231 364.86 413.568 368.522 409.067 368.522ZM235.764 329.246C232.005 329.246 228.948 332.304 228.948 336.062V360.357C228.948 364.116 232.006 367.174 235.764 367.174H409.067C412.826 367.174 415.883 364.116 415.883 360.357V336.062C415.883 332.303 412.825 329.246 409.067 329.246H235.764Z" fill="#292A2E"/>
<path d="M322.416 243.226C344.638 243.226 362.652 225.212 362.652 202.99C362.652 180.768 344.638 162.753 322.416 162.753C300.193 162.753 282.179 180.768 282.179 202.99C282.179 225.212 300.193 243.226 322.416 243.226Z" fill="white"/>
<path d="M322.415 243.9C299.857 243.9 281.505 225.548 281.505 202.99C281.505 180.431 299.858 162.079 322.415 162.079C344.973 162.079 363.326 180.432 363.326 202.99C363.326 225.547 344.974 243.9 322.415 243.9ZM322.415 163.427C300.601 163.427 282.853 181.175 282.853 202.99C282.853 224.805 300.601 242.552 322.415 242.552C344.23 242.552 361.978 224.805 361.978 202.99C361.978 181.175 344.23 163.427 322.415 163.427Z" fill="#292A2E"/>
<path opacity="0.5" d="M361.758 202.99C361.758 212.691 358.244 221.558 352.436 228.415C345.179 219.969 334.42 214.616 322.416 214.616C310.411 214.616 299.651 219.969 292.395 228.426C286.587 221.558 283.073 212.691 283.073 202.99C283.073 181.264 300.69 163.647 322.416 163.647C344.141 163.647 361.758 181.264 361.758 202.99Z" fill="#93E5D5"/>
<path d="M352.436 228.414C345.223 236.936 334.452 242.333 322.416 242.333C310.379 242.333 299.619 236.936 292.395 228.425C299.652 219.968 310.401 214.615 322.416 214.615C334.43 214.615 345.18 219.968 352.436 228.414Z" fill="white"/>
<path d="M322.416 207.275C331.199 207.275 338.319 200.155 338.319 191.372C338.319 182.589 331.199 175.469 322.416 175.469C313.633 175.469 306.513 182.589 306.513 191.372C306.513 200.155 313.633 207.275 322.416 207.275Z" fill="white"/>
<g opacity="0.4">
<path d="M242.862 352.994C245.503 352.994 247.645 350.852 247.645 348.211C247.645 345.569 245.503 343.428 242.862 343.428C240.22 343.428 238.078 345.569 238.078 348.211C238.078 350.852 240.22 352.994 242.862 352.994Z" fill="#292A2E"/>
<path d="M257.823 352.994C260.465 352.994 262.607 350.852 262.607 348.211C262.607 345.569 260.465 343.428 257.823 343.428C255.182 343.428 253.04 345.569 253.04 348.211C253.04 350.852 255.182 352.994 257.823 352.994Z" fill="#292A2E"/>
<path d="M272.785 352.994C275.427 352.994 277.568 350.852 277.568 348.211C277.568 345.569 275.427 343.428 272.785 343.428C270.144 343.428 268.002 345.569 268.002 348.211C268.002 350.852 270.144 352.994 272.785 352.994Z" fill="#292A2E"/>
<path d="M287.747 352.994C290.389 352.994 292.53 350.852 292.53 348.211C292.53 345.569 290.389 343.428 287.747 343.428C285.106 343.428 282.964 345.569 282.964 348.211C282.964 350.852 285.106 352.994 287.747 352.994Z" fill="#292A2E"/>
<path d="M302.708 352.994C305.35 352.994 307.491 350.852 307.491 348.211C307.491 345.569 305.35 343.428 302.708 343.428C300.067 343.428 297.925 345.569 297.925 348.211C297.925 350.852 300.067 352.994 302.708 352.994Z" fill="#292A2E"/>
<path d="M317.67 352.994C320.312 352.994 322.453 350.852 322.453 348.211C322.453 345.569 320.312 343.428 317.67 343.428C315.029 343.428 312.887 345.569 312.887 348.211C312.887 350.852 315.029 352.994 317.67 352.994Z" fill="#292A2E"/>
<path d="M332.632 352.994C335.274 352.994 337.415 350.852 337.415 348.211C337.415 345.569 335.274 343.428 332.632 343.428C329.99 343.428 327.849 345.569 327.849 348.211C327.849 350.852 329.99 352.994 332.632 352.994Z" fill="#292A2E"/>
</g>
</g>
<defs>
<clipPath id="clip0_60_173">
<rect width="600" height="581.069" fill="white" transform="translate(127 127)"/>
</clipPath>
</defs>
</svg>
