<svg width="193" height="60" viewBox="0 0 193 60" fill="none" xmlns="http://www.w3.org/2000/svg">
<g clip-path="url(#clip0_1692_13606)">
<mask id="mask0_1692_13606" style="mask-type:luminance" maskUnits="userSpaceOnUse" x="0" y="0" width="45" height="46">
<path d="M0.313232 0H44.3844V45.0909H0.313232V0Z" fill="white"/>
</mask>
<g mask="url(#mask0_1692_13606)">
<mask id="mask1_1692_13606" style="mask-type:luminance" maskUnits="userSpaceOnUse" x="-20" y="-6" width="233" height="72">
<path d="M212.025 -6H-19.275V66H212.025V-6Z" fill="black" fill-opacity="0.85"/>
</mask>
<g mask="url(#mask1_1692_13606)">
<mask id="mask2_1692_13606" style="mask-type:luminance" maskUnits="userSpaceOnUse" x="0" y="0" width="45" height="46">
<path d="M44.3844 0H0V45.0909H44.3844V0Z" fill="white"/>
</mask>
<g mask="url(#mask2_1692_13606)">
<mask id="mask3_1692_13606" style="mask-type:luminance" maskUnits="userSpaceOnUse" x="3" y="3" width="31" height="32">
<path d="M3.57935 3.63623H33.6462V34.1817H3.57935V3.63623Z" fill="white"/>
</mask>
<g mask="url(#mask3_1692_13606)">
<mask id="mask4_1692_13606" style="mask-type:luminance" maskUnits="userSpaceOnUse" x="0" y="0" width="44" height="45">
<path d="M0.643188 23.696L23.417 0.5625L43.9426 21.4176L21.1715 44.5511L0.643188 23.696Z" fill="white"/>
</mask>
<g mask="url(#mask4_1692_13606)">
<mask id="mask5_1692_13606" style="mask-type:luminance" maskUnits="userSpaceOnUse" x="0" y="0" width="44" height="45">
<path d="M0.643188 23.696L23.417 0.5625L43.9426 21.4176L21.1715 44.5511L0.643188 23.696Z" fill="white"/>
</mask>
<g mask="url(#mask5_1692_13606)">
<path d="M28.54 5.78137C20.6318 0.363752 12.4551 8.44898 16.6553 16.7558C8.47585 12.4888 0.517306 20.7984 5.85283 28.8325C10.6906 36.1194 32.6787 33.037 32.6787 33.037C32.6787 33.037 35.7155 10.699 28.54 5.78137Z" fill="#15B494"/>
</g>
</g>
</g>
</g>
</g>
</g>
<mask id="mask6_1692_13606" style="mask-type:luminance" maskUnits="userSpaceOnUse" x="-20" y="-6" width="233" height="72">
<path d="M212.025 -6H-19.275V66H212.025V-6Z" fill="black" fill-opacity="0.8"/>
</mask>
<g mask="url(#mask6_1692_13606)">
<mask id="mask7_1692_13606" style="mask-type:luminance" maskUnits="userSpaceOnUse" x="15" y="14" width="46" height="46">
<path d="M60.1337 14.5454H15.7493V59.6363H60.1337V14.5454Z" fill="white"/>
</mask>
<g mask="url(#mask7_1692_13606)">
<mask id="mask8_1692_13606" style="mask-type:luminance" maskUnits="userSpaceOnUse" x="26" y="25" width="31" height="31">
<path d="M26.4874 25.4546H56.5543V56H26.4874V25.4546Z" fill="white"/>
</mask>
<g mask="url(#mask8_1692_13606)">
<mask id="mask9_1692_13606" style="mask-type:luminance" maskUnits="userSpaceOnUse" x="16" y="15" width="44" height="44">
<path d="M16.1548 38.1452L38.9258 15.0088L59.4542 35.8639L36.6803 58.9974L16.1548 38.1452Z" fill="white"/>
</mask>
<g mask="url(#mask9_1692_13606)">
<mask id="mask10_1692_13606" style="mask-type:luminance" maskUnits="userSpaceOnUse" x="16" y="15" width="44" height="45">
<path d="M36.8229 59.1395L59.594 36.006L39.0656 15.1509L16.2946 38.2872L36.8229 59.1395Z" fill="white"/>
</mask>
<g mask="url(#mask10_1692_13606)">
<path d="M54.457 30.7987C59.7897 38.8328 51.8311 47.1425 43.6545 42.8754C47.8547 51.1851 39.6752 59.2675 31.767 53.8499C24.5942 48.9351 27.6283 26.5942 27.6283 26.5942C27.6283 26.5942 49.6164 23.5118 54.457 30.7987Z" fill="#15B494"/>
</g>
</g>
</g>
</g>
</g>
<mask id="mask11_1692_13606" style="mask-type:luminance" maskUnits="userSpaceOnUse" x="0" y="14" width="45" height="46">
<path d="M0.313232 14.5454H44.3844V59.6363H0.313232V14.5454Z" fill="white"/>
</mask>
<g mask="url(#mask11_1692_13606)">
<mask id="mask12_1692_13606" style="mask-type:luminance" maskUnits="userSpaceOnUse" x="-20" y="-6" width="233" height="72">
<path d="M212.025 -6H-19.275V66H212.025V-6Z" fill="black" fill-opacity="0.8"/>
</mask>
<g mask="url(#mask12_1692_13606)">
<mask id="mask13_1692_13606" style="mask-type:luminance" maskUnits="userSpaceOnUse" x="0" y="14" width="45" height="46">
<path d="M44.3844 14.5454H0V59.6363H44.3844V14.5454Z" fill="white"/>
</mask>
<g mask="url(#mask13_1692_13606)">
<mask id="mask14_1692_13606" style="mask-type:luminance" maskUnits="userSpaceOnUse" x="3" y="25" width="31" height="31">
<path d="M3.57935 25.4546H33.6462V56H3.57935V25.4546Z" fill="white"/>
</mask>
<g mask="url(#mask14_1692_13606)">
<mask id="mask15_1692_13606" style="mask-type:luminance" maskUnits="userSpaceOnUse" x="0" y="15" width="45" height="45">
<path d="M23.4869 59.139L0.713013 36.0055L21.2414 15.1504L44.0124 38.2868L23.4869 59.139Z" fill="white"/>
</mask>
<g mask="url(#mask15_1692_13606)">
<mask id="mask16_1692_13606" style="mask-type:luminance" maskUnits="userSpaceOnUse" x="0" y="15" width="45" height="45">
<path d="M23.4869 59.139L0.713013 36.0055L21.2414 15.1504L44.0124 38.2868L23.4869 59.139Z" fill="white"/>
</mask>
<g mask="url(#mask16_1692_13606)">
<path d="M5.85283 30.7982C0.517306 38.8323 8.47585 47.142 16.6553 42.8749C12.4551 51.1846 20.6318 59.267 28.54 53.8494C35.7155 48.9346 32.6787 26.5937 32.6787 26.5937C32.6787 26.5937 10.6906 23.5113 5.85283 30.7982Z" fill="#15B494"/>
</g>
</g>
</g>
</g>
</g>
</g>
<mask id="mask17_1692_13606" style="mask-type:luminance" maskUnits="userSpaceOnUse" x="-20" y="-6" width="233" height="72">
<path d="M212.025 -6H-19.275V66H212.025V-6Z" fill="black" fill-opacity="0.8"/>
</mask>
<g mask="url(#mask17_1692_13606)">
<mask id="mask18_1692_13606" style="mask-type:luminance" maskUnits="userSpaceOnUse" x="15" y="0" width="46" height="46">
<path d="M60.1337 0H15.7493V45.0909H60.1337V0Z" fill="white"/>
</mask>
<g mask="url(#mask18_1692_13606)">
<mask id="mask19_1692_13606" style="mask-type:luminance" maskUnits="userSpaceOnUse" x="26" y="3" width="31" height="32">
<path d="M26.4874 3.63623H56.5543V34.1817H26.4874V3.63623Z" fill="white"/>
</mask>
<g mask="url(#mask19_1692_13606)">
<mask id="mask20_1692_13606" style="mask-type:luminance" maskUnits="userSpaceOnUse" x="16" y="0" width="44" height="45">
<path d="M38.9957 44.6932L16.2246 21.5597L36.7502 0.70459L59.524 23.841L38.9957 44.6932Z" fill="white"/>
</mask>
<g mask="url(#mask20_1692_13606)">
<mask id="mask21_1692_13606" style="mask-type:luminance" maskUnits="userSpaceOnUse" x="16" y="0" width="44" height="45">
<path d="M36.8229 0.491699L59.594 23.6252L39.0656 44.4803L16.2946 21.344L36.8229 0.491699Z" fill="white"/>
</mask>
<g mask="url(#mask21_1692_13606)">
<path d="M54.457 28.8325C59.7897 20.7984 51.8311 12.4888 43.6545 16.7558C47.8547 8.44898 39.6752 0.363752 31.767 5.78137C24.5942 10.699 27.6283 33.037 27.6283 33.037C27.6283 33.037 49.6164 36.1194 54.457 28.8325Z" fill="#15B494"/>
</g>
</g>
</g>
</g>
</g>
<path d="M79.8753 27.6866C80.0095 27.8997 80.0766 28.1071 80.0766 28.3116C80.0766 28.5843 79.9676 28.8116 79.7522 28.9934C79.5341 29.1667 79.2824 29.2548 78.9916 29.2548C78.8043 29.2548 78.6253 29.2093 78.4547 29.1184C78.2897 29.0275 78.1471 28.8968 78.0297 28.7207L75.7031 25.1298C75.471 24.752 75.2221 24.4877 74.9536 24.3343C74.6908 24.1752 74.3524 24.0957 73.9357 24.0957H72.2243V28.0843C72.2243 28.4423 72.1237 28.7207 71.9223 28.9252C71.721 29.1298 71.4525 29.2321 71.117 29.2321C70.7814 29.2321 70.5074 29.1298 70.3004 28.9252C70.0991 28.7207 69.9984 28.4423 69.9984 28.0843V17.6752C69.9984 17.3343 70.0935 17.0701 70.2892 16.8798C70.4822 16.6923 70.7478 16.5957 71.0834 16.5957H75.457C76.858 16.5957 77.9234 16.9139 78.6561 17.5502C79.3859 18.1809 79.7522 19.0929 79.7522 20.2889C79.7522 21.2662 79.4782 22.0673 78.9357 22.6866C78.3904 23.3088 77.6214 23.7065 76.6315 23.8798C76.967 23.965 77.2607 24.1156 77.5151 24.3343C77.7752 24.5474 78.0297 24.8429 78.2757 25.2207L79.8753 27.6866ZM75.1438 22.3343C75.9939 22.3343 76.6147 22.1724 77.0118 21.8457C77.4145 21.5218 77.6158 21.0218 77.6158 20.3457C77.6158 19.6582 77.4145 19.1582 77.0118 18.8457C76.6147 18.5275 75.9939 18.3684 75.1438 18.3684H72.202V22.3343H75.1438Z" fill="#17C6A3"/>
<path d="M88.74 26.7434C88.9413 26.7434 89.1007 26.823 89.2209 26.9821C89.3468 27.1355 89.4111 27.34 89.4111 27.5957C89.4111 27.9679 89.193 28.2775 88.7623 28.5275C88.3652 28.7548 87.915 28.9366 87.4089 29.073C86.9083 29.2093 86.4301 29.2775 85.9771 29.2775C84.5957 29.2775 83.5051 28.877 82.6997 28.073C81.8944 27.2633 81.4917 26.1582 81.4917 24.7548C81.4917 23.8684 81.6651 23.0815 82.0174 22.3912C82.367 21.7037 82.8591 21.1696 83.4939 20.7889C84.1343 20.411 84.8586 20.2207 85.6639 20.2207C86.4301 20.2207 87.1013 20.3968 87.6773 20.7434C88.2506 21.0843 88.6952 21.5701 89.0084 22.198C89.3216 22.8287 89.4782 23.5673 89.4782 24.4139C89.4782 24.9309 89.2573 25.1866 88.8183 25.1866H83.6505C83.7176 26.0048 83.9441 26.6071 84.3328 26.9934C84.7187 27.3741 85.278 27.5616 86.0107 27.5616C86.3826 27.5616 86.7098 27.5162 86.995 27.4253C87.2858 27.3287 87.613 27.1951 87.9793 27.0275C88.3205 26.84 88.575 26.7434 88.74 26.7434ZM85.7199 21.7889C85.1214 21.7889 84.646 21.9792 84.2881 22.3571C83.9302 22.7377 83.7176 23.2832 83.6505 23.9934H87.6102C87.5878 23.2662 87.4117 22.7179 87.0845 22.3457C86.7545 21.9764 86.3015 21.7889 85.7199 21.7889Z" fill="#17C6A3"/>
<path d="M96.1771 20.2207C96.9153 20.2207 97.5697 20.411 98.1457 20.7889C98.7274 21.1696 99.1776 21.7065 99.4992 22.4025C99.818 23.0929 99.9802 23.8883 99.9802 24.7889C99.9802 25.6923 99.818 26.4792 99.4992 27.1525C99.1776 27.8287 98.7302 28.3514 98.1569 28.7207C97.5893 29.0929 96.9293 29.2775 96.1771 29.2775C95.5731 29.2775 95.0306 29.1468 94.5552 28.8912C94.077 28.627 93.7079 28.2633 93.4478 27.8002V31.4252C93.4478 31.7349 93.3471 31.9764 93.1458 32.1525C92.95 32.3343 92.69 32.4252 92.3628 32.4252C92.0412 32.4252 91.7755 32.3258 91.5686 32.1298C91.3673 31.9395 91.2666 31.6923 91.2666 31.3912V21.3002C91.2666 20.9821 91.3589 20.7292 91.5462 20.5389C91.7392 20.3514 91.9993 20.2548 92.3292 20.2548C92.6564 20.2548 92.9165 20.3514 93.1122 20.5389C93.3136 20.7292 93.4142 20.9821 93.4142 21.3002V21.7548C93.6743 21.2633 94.0462 20.8855 94.5328 20.6184C95.0166 20.3542 95.5647 20.2207 96.1771 20.2207ZM95.6066 27.5502C96.2917 27.5502 96.8258 27.3116 97.2061 26.8343C97.592 26.3514 97.7878 25.6696 97.7878 24.7889C97.7878 23.8883 97.592 23.1923 97.2061 22.698C96.8258 22.198 96.2917 21.948 95.6066 21.948C94.9047 21.948 94.365 22.1923 93.9847 22.6752C93.6044 23.161 93.4142 23.8542 93.4142 24.7548C93.4142 25.6412 93.6044 26.3315 93.9847 26.823C94.365 27.3088 94.9047 27.5502 95.6066 27.5502Z" fill="#17C6A3"/>
<path d="M106.562 20.2547C106.867 20.232 107.105 20.3002 107.278 20.4593C107.457 20.6127 107.546 20.84 107.546 21.1411C107.546 21.4678 107.468 21.7065 107.312 21.857C107.161 22.0104 106.889 22.1127 106.495 22.1638L105.969 22.2093C105.276 22.286 104.767 22.5246 104.448 22.9252C104.126 23.3286 103.967 23.8315 103.967 24.4366V28.1638C103.967 28.5133 103.861 28.7775 103.654 28.9593C103.444 29.1411 103.184 29.232 102.871 29.232C102.558 29.232 102.295 29.1411 102.088 28.9593C101.887 28.7775 101.786 28.5133 101.786 28.1638V21.2888C101.786 20.9565 101.887 20.7036 102.088 20.5275C102.295 20.3457 102.549 20.2547 102.849 20.2547C103.153 20.2547 103.399 20.3428 103.587 20.5161C103.771 20.6837 103.866 20.9309 103.866 21.2547V21.9593C104.09 21.4366 104.417 21.036 104.851 20.7547C105.29 20.4678 105.779 20.3087 106.316 20.2775L106.562 20.2547Z" fill="#17C6A3"/>
<path d="M112.393 29.2775C111.512 29.2775 110.743 29.0929 110.089 28.7207C109.432 28.3514 108.92 27.823 108.557 27.1412C108.19 26.4537 108.008 25.6497 108.008 24.7321C108.008 23.823 108.19 23.0275 108.557 22.3457C108.92 21.6639 109.432 21.1412 110.089 20.7775C110.743 20.4082 111.512 20.2207 112.393 20.2207C113.266 20.2207 114.029 20.4082 114.686 20.7775C115.349 21.1412 115.855 21.6639 116.207 22.3457C116.565 23.0275 116.744 23.823 116.744 24.7321C116.744 25.6497 116.565 26.4537 116.207 27.1412C115.855 27.823 115.349 28.3514 114.686 28.7207C114.029 29.0929 113.266 29.2775 112.393 29.2775ZM112.371 27.5503C113.087 27.5503 113.629 27.3173 114.004 26.8457C114.376 26.3684 114.563 25.6639 114.563 24.7321C114.563 23.823 114.376 23.1298 114.004 22.6525C113.629 22.1696 113.092 21.9252 112.393 21.9252C111.691 21.9252 111.152 22.1696 110.771 22.6525C110.391 23.1298 110.201 23.823 110.201 24.7321C110.201 25.6639 110.385 26.3684 110.76 26.8457C111.132 27.3173 111.669 27.5503 112.371 27.5503Z" fill="#17C6A3"/>
<path d="M128.386 16.5049C128.727 16.5049 128.995 16.6128 129.191 16.8231C129.392 17.0276 129.493 17.3003 129.493 17.6412V28.0844C129.493 28.4253 129.387 28.7037 129.18 28.914C128.979 29.127 128.713 29.2322 128.386 29.2322C128.05 29.2322 127.782 29.127 127.58 28.914C127.385 28.7037 127.29 28.4253 127.29 28.0844V23.6867H120.97V28.0844C120.97 28.4253 120.863 28.7037 120.656 28.914C120.455 29.127 120.187 29.2322 119.851 29.2322C119.521 29.2322 119.253 29.127 119.046 28.914C118.844 28.7037 118.744 28.4253 118.744 28.0844V17.6412C118.744 17.3003 118.839 17.0276 119.035 16.8231C119.236 16.6128 119.507 16.5049 119.851 16.5049C120.187 16.5049 120.455 16.6128 120.656 16.8231C120.863 17.0276 120.97 17.3003 120.97 17.6412V21.8344H127.29V17.6412C127.29 17.3003 127.385 17.0276 127.58 16.8231C127.782 16.6128 128.05 16.5049 128.386 16.5049Z" fill="#17C6A3"/>
<path d="M138.728 26.7434C138.929 26.7434 139.089 26.823 139.209 26.9821C139.335 27.1355 139.399 27.34 139.399 27.5957C139.399 27.9679 139.181 28.2775 138.75 28.5275C138.353 28.7548 137.903 28.9366 137.397 29.073C136.896 29.2093 136.418 29.2775 135.965 29.2775C134.584 29.2775 133.493 28.877 132.688 28.073C131.882 27.2633 131.48 26.1582 131.48 24.7548C131.48 23.8684 131.653 23.0815 132.005 22.3912C132.355 21.7037 132.847 21.1696 133.482 20.7889C134.122 20.411 134.847 20.2207 135.652 20.2207C136.418 20.2207 137.089 20.3968 137.665 20.7434C138.239 21.0843 138.683 21.5701 138.996 22.198C139.31 22.8287 139.466 23.5673 139.466 24.4139C139.466 24.9309 139.245 25.1866 138.806 25.1866H133.639C133.706 26.0048 133.932 26.6071 134.321 26.9934C134.707 27.3741 135.266 27.5616 135.999 27.5616C136.371 27.5616 136.698 27.5162 136.983 27.4253C137.274 27.3287 137.601 27.1951 137.967 27.0275C138.309 26.84 138.563 26.7434 138.728 26.7434ZM135.708 21.7889C135.109 21.7889 134.634 21.9792 134.276 22.3571C133.918 22.7377 133.706 23.2832 133.639 23.9934H137.598C137.576 23.2662 137.4 22.7179 137.073 22.3457C136.743 21.9764 136.29 21.7889 135.708 21.7889Z" fill="#17C6A3"/>
<path d="M144.968 20.2207C146.154 20.2207 147.032 20.5218 147.608 21.1184C148.19 21.7179 148.481 22.627 148.481 23.8457V28.1866C148.481 28.5048 148.386 28.7605 148.201 28.948C148.014 29.1298 147.756 29.2207 147.429 29.2207C147.122 29.2207 146.873 29.127 146.68 28.9366C146.492 28.7491 146.4 28.4991 146.4 28.1866V27.8003C146.199 28.2633 145.886 28.627 145.46 28.8912C145.035 29.1468 144.543 29.2775 143.984 29.2775C143.408 29.2775 142.888 29.1582 142.418 28.9253C141.954 28.6838 141.59 28.3542 141.322 27.9366C141.053 27.5218 140.919 27.0588 140.919 26.5502C140.919 25.9139 141.079 25.4139 141.4 25.0502C141.719 24.6809 142.242 24.411 142.966 24.2434C143.688 24.0787 144.689 23.9934 145.964 23.9934H146.4V23.5843C146.4 23.002 146.277 22.5787 146.031 22.3116C145.785 22.0474 145.388 21.9139 144.845 21.9139C144.501 21.9139 144.155 21.965 143.805 22.0616C143.453 22.161 143.039 22.3059 142.563 22.4934C142.256 22.6525 142.038 22.7321 141.903 22.7321C141.685 22.7321 141.512 22.6582 141.378 22.5048C141.244 22.3457 141.176 22.1412 141.176 21.8912C141.176 21.6866 141.224 21.5133 141.322 21.3684C141.425 21.2179 141.593 21.0787 141.825 20.948C142.233 20.7207 142.723 20.5446 143.29 20.4139C143.855 20.286 144.415 20.2207 144.968 20.2207ZM144.42 27.6753C145.002 27.6753 145.474 27.4792 145.841 27.0843C146.213 26.6838 146.4 26.1696 146.4 25.5389V25.1639H146.087C145.304 25.1639 144.694 25.2037 144.264 25.2775C143.83 25.3457 143.52 25.4707 143.335 25.6525C143.148 25.8287 143.056 26.0673 143.056 26.3684C143.056 26.7548 143.184 27.0701 143.447 27.3116C143.707 27.5559 144.032 27.6753 144.42 27.6753Z" fill="#17C6A3"/>
<path d="M151.791 29.2322C151.478 29.2322 151.215 29.1412 151.008 28.9594C150.807 28.7776 150.706 28.5134 150.706 28.164V17.5503C150.706 17.2094 150.807 16.9537 151.008 16.7776C151.215 16.5958 151.478 16.5049 151.791 16.5049C152.104 16.5049 152.364 16.5958 152.574 16.7776C152.781 16.9537 152.887 17.2094 152.887 17.5503V28.164C152.887 28.5134 152.781 28.7776 152.574 28.9594C152.364 29.1412 152.104 29.2322 151.791 29.2322Z" fill="#17C6A3"/>
<path d="M159.593 27.5846C160.174 27.6243 160.465 27.8885 160.465 28.38C160.465 28.6698 160.348 28.8885 160.118 29.0391C159.895 29.1812 159.573 29.2437 159.156 29.2209L158.687 29.1868C156.724 29.0448 155.745 27.9766 155.745 25.9823V22.1073H154.872C154.551 22.1073 154.305 22.0363 154.134 21.8914C153.972 21.7493 153.888 21.5391 153.888 21.2664C153.888 20.9937 153.972 20.7891 154.134 20.6527C154.305 20.5107 154.551 20.4368 154.872 20.4368H155.745V18.8005C155.745 18.4766 155.84 18.2181 156.036 18.0277C156.237 17.8402 156.508 17.7437 156.852 17.7437C157.171 17.7437 157.434 17.8402 157.635 18.0277C157.837 18.2181 157.937 18.4766 157.937 18.8005V20.4368H159.425C159.738 20.4368 159.976 20.5107 160.141 20.6527C160.311 20.7891 160.398 20.9937 160.398 21.2664C160.398 21.5391 160.311 21.7493 160.141 21.8914C159.976 22.0363 159.738 22.1073 159.425 22.1073H157.937V26.1414C157.937 27.0221 158.331 27.4908 159.123 27.5505L159.593 27.5846Z" fill="#17C6A3"/>
<path d="M166.61 20.2208C168.615 20.2208 169.619 21.4111 169.619 23.789V28.164C169.619 28.4992 169.521 28.7606 169.329 28.9481C169.141 29.1356 168.876 29.2322 168.534 29.2322C168.199 29.2322 167.93 29.1356 167.729 28.9481C167.533 28.7606 167.438 28.4992 167.438 28.164V23.789C167.438 23.1697 167.31 22.7151 167.058 22.4253C166.812 22.1299 166.42 21.9822 165.883 21.9822C165.249 21.9822 164.742 22.1839 164.362 22.5844C163.982 22.9878 163.792 23.5248 163.792 24.1981V28.164C163.792 28.4992 163.691 28.7606 163.49 28.9481C163.294 29.1356 163.031 29.2322 162.695 29.2322C162.352 29.2322 162.083 29.1356 161.89 28.9481C161.703 28.7606 161.61 28.4992 161.61 28.164V17.539C161.61 17.2293 161.711 16.9793 161.912 16.789C162.119 16.6015 162.385 16.5049 162.707 16.5049C163.034 16.5049 163.294 16.5958 163.49 16.7776C163.691 16.9537 163.792 17.1924 163.792 17.4935V21.6412C164.082 21.181 164.468 20.8287 164.955 20.5844C165.439 20.343 165.99 20.2208 166.61 20.2208Z" fill="#17C6A3"/>
<path d="M179.467 23.2663C179.682 23.2663 179.861 23.343 180.004 23.4936C180.152 23.6384 180.228 23.8203 180.228 24.039C180.228 24.2663 180.152 24.4566 180.004 24.6072C179.861 24.7521 179.682 24.8231 179.467 24.8231H176.727V27.5845C176.727 27.8117 176.651 28.0021 176.503 28.1527C176.36 28.3061 176.181 28.3799 175.966 28.3799C175.742 28.3799 175.555 28.3061 175.407 28.1527C175.264 28.0021 175.194 27.8117 175.194 27.5845V24.8231H172.465C172.241 24.8231 172.054 24.7521 171.906 24.6072C171.763 24.4566 171.693 24.2663 171.693 24.039C171.693 23.8203 171.763 23.6384 171.906 23.4936C172.054 23.343 172.241 23.2663 172.465 23.2663H175.194V20.4822C175.194 20.2635 175.264 20.0816 175.407 19.9367C175.555 19.7862 175.742 19.7095 175.966 19.7095C176.181 19.7095 176.36 19.7862 176.503 19.9367C176.651 20.0816 176.727 20.2635 176.727 20.4822V23.2663H179.467Z" fill="#17C6A3"/>
<path d="M71.8552 43.7342C71.3463 43.7342 70.8597 43.6575 70.3899 43.507C69.9201 43.3479 69.5454 43.1377 69.2713 42.8706C69.1651 42.7797 69.1147 42.6604 69.1147 42.507C69.1147 42.4161 69.1399 42.3337 69.193 42.257C69.2518 42.1831 69.3189 42.1433 69.3944 42.1433C69.4839 42.1433 69.5762 42.1859 69.674 42.2683C70.306 42.7627 71.0303 43.007 71.844 43.007C72.4313 43.007 72.8843 42.8933 73.1975 42.6661C73.5107 42.4388 73.6673 42.1149 73.6673 41.6888C73.6673 41.4473 73.5918 41.2541 73.4436 41.1092C73.2926 40.9587 73.0968 40.8365 72.8507 40.7456C72.6046 40.6547 72.2719 40.5609 71.8552 40.4615C71.2959 40.3337 70.8373 40.1973 70.4794 40.0524C70.1214 39.9104 69.8306 39.7002 69.6069 39.4274C69.3888 39.1547 69.2825 38.8024 69.2825 38.3706C69.2825 37.9558 69.3888 37.5865 69.6069 37.2683C69.8306 36.9445 70.1382 36.6945 70.5353 36.5183C70.938 36.3365 71.3966 36.2456 71.9111 36.2456C72.3865 36.2456 72.8312 36.3223 73.2422 36.4729C73.6505 36.6263 73.9973 36.8365 74.2825 37.1092C74.386 37.2229 74.4391 37.345 74.4391 37.4729C74.4391 37.5723 74.4111 37.6604 74.3608 37.7342C74.3077 37.8024 74.2433 37.8365 74.1706 37.8365C74.0951 37.8365 73.9945 37.7996 73.8686 37.7229C73.533 37.4502 73.2226 37.257 72.9402 37.1433C72.655 37.0297 72.3138 36.9729 71.9111 36.9729C71.3435 36.9729 70.9044 37.095 70.5912 37.3365C70.278 37.5723 70.1214 37.9047 70.1214 38.3365C70.1214 38.7002 70.2585 38.9786 70.5353 39.1661C70.8094 39.3479 71.2344 39.507 71.8105 39.6433C72.4285 39.7967 72.9123 39.9359 73.2646 40.0638C73.6225 40.1945 73.9162 40.3877 74.1483 40.6433C74.386 40.9019 74.5062 41.2428 74.5062 41.6661C74.5062 42.0752 74.3943 42.4388 74.1706 42.757C73.9469 43.0695 73.6337 43.3109 73.231 43.4842C72.834 43.6519 72.3753 43.7342 71.8552 43.7342Z" fill="#7B7B7B"/>
<path d="M76.1573 43.7118C76.0371 43.7118 75.9364 43.672 75.8553 43.5981C75.7798 43.5243 75.7435 43.422 75.7435 43.2913V38.905C75.7435 38.7771 75.7798 38.6777 75.8553 38.6095C75.9364 38.5356 76.0371 38.4959 76.1573 38.4959C76.2748 38.4959 76.3727 38.5356 76.4482 38.6095C76.5293 38.6777 76.5712 38.7771 76.5712 38.905V43.2913C76.5712 43.4277 76.5293 43.5356 76.4482 43.6095C76.3727 43.6777 76.2748 43.7118 76.1573 43.7118ZM76.1573 37.405C75.9924 37.405 75.8581 37.3567 75.7547 37.2572C75.6568 37.1606 75.6093 37.03 75.6093 36.8709C75.6093 36.7203 75.6568 36.5953 75.7547 36.4959C75.8581 36.3993 75.9924 36.3481 76.1573 36.3481C76.3195 36.3481 76.451 36.3993 76.5488 36.4959C76.6523 36.5953 76.7054 36.7203 76.7054 36.8709C76.7054 37.03 76.6523 37.1606 76.5488 37.2572C76.451 37.3567 76.3195 37.405 76.1573 37.405Z" fill="#7B7B7B"/>
<path d="M83.6508 38.4731C84.7525 38.4731 85.3062 39.1408 85.3062 40.4731V43.2913C85.3062 43.422 85.2671 43.5243 85.1944 43.5981C85.1189 43.672 85.0182 43.7118 84.8924 43.7118C84.7721 43.7118 84.6714 43.672 84.5904 43.5981C84.5148 43.5243 84.4785 43.422 84.4785 43.2913V40.4959C84.4785 40.0356 84.3946 39.7004 84.2324 39.4959C84.0674 39.2856 83.8102 39.1777 83.4606 39.1777C83.0495 39.1777 82.7252 39.3226 82.4875 39.6095C82.247 39.8908 82.1295 40.2743 82.1295 40.7572V43.2913C82.1295 43.422 82.0876 43.5243 82.0065 43.5981C81.931 43.672 81.8303 43.7118 81.7045 43.7118C81.5842 43.7118 81.4863 43.672 81.4136 43.5981C81.3381 43.5243 81.3018 43.422 81.3018 43.2913V40.4959C81.3018 40.0356 81.2179 39.7004 81.0557 39.4959C80.8907 39.2856 80.6307 39.1777 80.2727 39.1777C79.8616 39.1777 79.5373 39.3226 79.2996 39.6095C79.0591 39.8908 78.9416 40.2743 78.9416 40.7572V43.2913C78.9416 43.422 78.8997 43.5243 78.8186 43.5981C78.7431 43.672 78.6452 43.7118 78.5278 43.7118C78.4075 43.7118 78.3068 43.672 78.2257 43.5981C78.1502 43.5243 78.1139 43.422 78.1139 43.2913V38.905C78.1139 38.7856 78.1502 38.6862 78.2257 38.6095C78.3068 38.5356 78.4075 38.4959 78.5278 38.4959C78.6452 38.4959 78.7431 38.5356 78.8186 38.6095C78.8913 38.6777 78.9304 38.7743 78.9304 38.8936V39.3936C79.0786 39.0981 79.2828 38.8709 79.5456 38.7118C79.8141 38.5527 80.1217 38.4731 80.4741 38.4731C81.2487 38.4731 81.7548 38.8084 81.9953 39.4731C82.1351 39.1635 82.3532 38.922 82.6441 38.7459C82.9405 38.5641 83.276 38.4731 83.6508 38.4731Z" fill="#7B7B7B"/>
<path d="M89.3138 38.4731C89.7529 38.4731 90.1416 38.5839 90.4771 38.8027C90.8127 39.0243 91.07 39.3339 91.2489 39.7345C91.4335 40.1379 91.5286 40.5981 91.5286 41.1209C91.5286 41.6436 91.4335 42.1038 91.2489 42.4959C91.07 42.8908 90.8127 43.1947 90.4771 43.405C90.1472 43.618 89.7613 43.7231 89.3138 43.7231C88.9251 43.7231 88.5868 43.6408 88.296 43.4731C88.0107 43.2999 87.7954 43.0527 87.6472 42.7345V45.1663C87.6472 45.2942 87.608 45.3936 87.5353 45.4618C87.4598 45.5356 87.3592 45.5754 87.2333 45.5754C87.1047 45.5754 87.004 45.5356 86.9313 45.4618C86.8558 45.3851 86.8195 45.2856 86.8195 45.1663V38.905C86.8195 38.7856 86.8558 38.6862 86.9313 38.6095C87.004 38.5356 87.1047 38.4959 87.2333 38.4959C87.3592 38.4959 87.4598 38.5356 87.5353 38.6095C87.608 38.6862 87.6472 38.7856 87.6472 38.905V39.4731C87.7954 39.155 88.0107 38.9106 88.296 38.7345C88.5868 38.5612 88.9251 38.4731 89.3138 38.4731ZM89.1572 43.03C89.641 43.03 90.0129 42.8652 90.2758 42.53C90.5443 42.1976 90.6785 41.7288 90.6785 41.1209C90.6785 40.5158 90.5443 40.0413 90.2758 39.7004C90.0129 39.3538 89.641 39.1777 89.1572 39.1777C88.6707 39.1777 88.2988 39.3453 88.0387 39.6777C87.7758 40.0129 87.6472 40.4845 87.6472 41.0981C87.6472 41.7203 87.7758 42.1976 88.0387 42.53C88.2988 42.8652 88.6707 43.03 89.1572 43.03Z" fill="#7B7B7B"/>
<path d="M93.18 43.7116C93.0597 43.7116 92.9591 43.6718 92.878 43.598C92.8025 43.5241 92.7661 43.4218 92.7661 43.2911V36.7002C92.7661 36.5639 92.8025 36.4616 92.878 36.3934C92.9591 36.3196 93.0597 36.2798 93.18 36.2798C93.2974 36.2798 93.3953 36.3196 93.4708 36.3934C93.5519 36.4616 93.5938 36.5639 93.5938 36.7002V43.2911C93.5938 43.4218 93.5519 43.5241 93.4708 43.598C93.3953 43.6718 93.2974 43.7116 93.18 43.7116Z" fill="#7B7B7B"/>
<path d="M95.5505 43.7118C95.4303 43.7118 95.3296 43.672 95.2485 43.5981C95.173 43.5243 95.1367 43.422 95.1367 43.2913V38.905C95.1367 38.7771 95.173 38.6777 95.2485 38.6095C95.3296 38.5356 95.4303 38.4959 95.5505 38.4959C95.668 38.4959 95.7659 38.5356 95.8414 38.6095C95.9225 38.6777 95.9644 38.7771 95.9644 38.905V43.2913C95.9644 43.4277 95.9225 43.5356 95.8414 43.6095C95.7659 43.6777 95.668 43.7118 95.5505 43.7118ZM95.5505 37.405C95.3855 37.405 95.2513 37.3567 95.1479 37.2572C95.05 37.1606 95.0024 37.03 95.0024 36.8709C95.0024 36.7203 95.05 36.5953 95.1479 36.4959C95.2513 36.3993 95.3855 36.3481 95.5505 36.3481C95.7127 36.3481 95.8442 36.3993 95.942 36.4959C96.0455 36.5953 96.0986 36.7203 96.0986 36.8709C96.0986 37.03 96.0455 37.1606 95.942 37.2572C95.8442 37.3567 95.7127 37.405 95.5505 37.405Z" fill="#7B7B7B"/>
<path d="M99.6996 36.9957C99.3417 37.027 99.0676 37.1434 98.8831 37.348C98.6957 37.5525 98.6034 37.8594 98.6034 38.2684V38.598H99.7444C99.8562 38.598 99.9401 38.6292 100.002 38.6889C100.069 38.7514 100.102 38.8338 100.102 38.9389C100.102 39.0469 100.069 39.1264 100.002 39.1775C99.9401 39.2315 99.8562 39.2571 99.7444 39.2571H98.6034V43.2912C98.6034 43.4219 98.5615 43.5241 98.4804 43.598C98.4049 43.6719 98.3126 43.7116 98.2007 43.7116C98.0721 43.7116 97.9686 43.6719 97.8875 43.598C97.812 43.5241 97.7757 43.4219 97.7757 43.2912V39.2571H97.0934C96.9731 39.2571 96.8808 39.2315 96.8137 39.1775C96.7522 39.1179 96.7242 39.0383 96.7242 38.9389C96.7242 38.8338 96.7522 38.7514 96.8137 38.6889C96.8808 38.6292 96.9731 38.598 97.0934 38.598H97.7757V38.4048C97.7757 37.7855 97.9267 37.2969 98.2343 36.9389C98.5391 36.5838 98.9781 36.3878 99.5542 36.348L99.8227 36.3253C100.002 36.3111 100.127 36.3309 100.203 36.3821C100.284 36.4275 100.326 36.5128 100.326 36.6321C100.326 36.8366 100.206 36.9503 99.9681 36.973L99.6996 36.9957Z" fill="#7B7B7B"/>
<path d="M104.438 38.757C104.511 38.5922 104.631 38.507 104.796 38.507C104.899 38.507 104.992 38.5411 105.076 38.6092C105.157 38.6774 105.199 38.7655 105.199 38.8706C105.199 38.9331 105.182 38.9842 105.154 39.0297L102.29 45.3251C102.251 45.399 102.201 45.4558 102.134 45.4956C102.072 45.5411 102.005 45.5638 101.932 45.5638C101.835 45.5638 101.745 45.5297 101.664 45.4615C101.588 45.399 101.552 45.3166 101.552 45.2115C101.552 45.1575 101.563 45.1007 101.586 45.0411L102.302 43.4729L100.277 39.0297C100.255 38.9842 100.243 38.9359 100.243 38.882C100.243 38.7769 100.288 38.6859 100.378 38.6092C100.467 38.5354 100.568 38.4956 100.68 38.4956C100.747 38.4956 100.814 38.5183 100.881 38.5638C100.948 38.6036 100.996 38.6604 101.026 38.7342L102.738 42.632L104.438 38.757Z" fill="#7B7B7B"/>
<path d="M106.524 43.7118C106.404 43.7118 106.303 43.672 106.222 43.5981C106.147 43.5243 106.111 43.422 106.111 43.2913V38.905C106.111 38.7771 106.147 38.6777 106.222 38.6095C106.303 38.5356 106.404 38.4959 106.524 38.4959C106.642 38.4959 106.74 38.5356 106.815 38.6095C106.896 38.6777 106.938 38.7771 106.938 38.905V43.2913C106.938 43.4277 106.896 43.5356 106.815 43.6095C106.74 43.6777 106.642 43.7118 106.524 43.7118ZM106.524 37.405C106.359 37.405 106.225 37.3567 106.122 37.2572C106.024 37.1606 105.976 37.03 105.976 36.8709C105.976 36.7203 106.024 36.5953 106.122 36.4959C106.225 36.3993 106.359 36.3481 106.524 36.3481C106.687 36.3481 106.818 36.3993 106.916 36.4959C107.019 36.5953 107.073 36.7203 107.073 36.8709C107.073 37.03 107.019 37.1606 106.916 37.2572C106.818 37.3567 106.687 37.405 106.524 37.405Z" fill="#7B7B7B"/>
<path d="M110.975 38.4731C112.167 38.4731 112.765 39.1408 112.765 40.4731V43.2913C112.765 43.422 112.726 43.5243 112.653 43.5981C112.586 43.672 112.488 43.7118 112.362 43.7118C112.234 43.7118 112.13 43.672 112.049 43.5981C111.974 43.5243 111.937 43.422 111.937 43.2913V40.53C111.937 40.0612 111.848 39.7203 111.669 39.5072C111.49 39.2885 111.202 39.1777 110.808 39.1777C110.352 39.1777 109.986 39.3226 109.711 39.6095C109.443 39.8908 109.309 40.2743 109.309 40.7572V43.2913C109.309 43.422 109.27 43.5243 109.197 43.5981C109.121 43.672 109.021 43.7118 108.895 43.7118C108.766 43.7118 108.666 43.672 108.593 43.5981C108.517 43.5243 108.481 43.422 108.481 43.2913V38.905C108.481 38.7856 108.517 38.6862 108.593 38.6095C108.666 38.5356 108.766 38.4959 108.895 38.4959C109.012 38.4959 109.11 38.5356 109.186 38.6095C109.258 38.6862 109.298 38.78 109.298 38.8936V39.4277C109.46 39.118 109.689 38.8822 109.98 38.7231C110.271 38.5584 110.601 38.4731 110.975 38.4731Z" fill="#7B7B7B"/>
<path d="M118.323 38.4959C118.449 38.4959 118.549 38.5356 118.625 38.6095C118.697 38.6862 118.737 38.7856 118.737 38.905V43.3141C118.737 44.0641 118.546 44.6322 118.166 45.0186C117.786 45.405 117.218 45.5981 116.466 45.5981C115.733 45.5981 115.126 45.4533 114.643 45.1663C114.402 45.0214 114.285 44.8595 114.285 44.6777C114.285 44.5868 114.307 44.5072 114.352 44.4391C114.402 44.3766 114.469 44.3481 114.553 44.3481C114.62 44.3481 114.743 44.3964 114.922 44.4959C115.16 44.6152 115.395 44.7146 115.627 44.7913C115.856 44.8737 116.133 44.9163 116.455 44.9163C116.939 44.9163 117.305 44.7828 117.551 44.5186C117.797 44.2601 117.92 43.8822 117.92 43.3822V42.4959C117.777 42.8226 117.557 43.0726 117.26 43.2459C116.961 43.4135 116.611 43.4959 116.209 43.4959C115.775 43.4959 115.387 43.3936 115.045 43.1891C114.71 42.9788 114.447 42.6834 114.262 42.3027C114.075 41.9248 113.983 41.4845 113.983 40.9845C113.983 40.4845 114.075 40.047 114.262 39.6663C114.447 39.2885 114.71 38.9959 115.045 38.7913C115.387 38.5811 115.775 38.4731 116.209 38.4731C116.603 38.4731 116.947 38.5612 117.238 38.7345C117.534 38.9106 117.758 39.155 117.909 39.4731V38.905C117.909 38.7856 117.942 38.6862 118.01 38.6095C118.082 38.5356 118.189 38.4959 118.323 38.4959ZM116.376 42.8027C116.852 42.8027 117.227 42.6436 117.495 42.3254C117.769 42.0016 117.909 41.5527 117.909 40.9845C117.909 40.4248 117.775 39.9845 117.506 39.6663C117.238 39.3425 116.86 39.1777 116.376 39.1777C115.89 39.1777 115.51 39.3425 115.236 39.6663C114.959 39.9845 114.822 40.4248 114.822 40.9845C114.822 41.5527 114.959 42.0016 115.236 42.3254C115.51 42.6436 115.89 42.8027 116.376 42.8027Z" fill="#7B7B7B"/>
<path d="M128.591 36.2798C128.717 36.2798 128.814 36.3224 128.882 36.4048C128.954 36.4815 128.993 36.5838 128.993 36.7116V43.2684C128.993 43.4048 128.954 43.5156 128.882 43.598C128.814 43.6718 128.717 43.7116 128.591 43.7116C128.457 43.7116 128.35 43.6718 128.278 43.598C128.202 43.5156 128.166 43.4048 128.166 43.2684V40.3025H123.859V43.2684C123.859 43.4048 123.817 43.5156 123.736 43.598C123.661 43.6718 123.56 43.7116 123.434 43.7116C123.306 43.7116 123.205 43.6718 123.132 43.598C123.065 43.5156 123.031 43.4048 123.031 43.2684V36.7116C123.031 36.5838 123.065 36.4815 123.132 36.4048C123.205 36.3224 123.306 36.2798 123.434 36.2798C123.56 36.2798 123.661 36.3224 123.736 36.4048C123.817 36.4815 123.859 36.5838 123.859 36.7116V39.5752H128.166V36.7116C128.166 36.5838 128.202 36.4815 128.278 36.4048C128.35 36.3224 128.457 36.2798 128.591 36.2798Z" fill="#7B7B7B"/>
<path d="M134.501 42.4845C134.574 42.4845 134.638 42.5158 134.692 42.5754C134.75 42.6379 134.781 42.7175 134.781 42.8141C134.781 42.9902 134.661 43.1493 134.423 43.2913C134.177 43.4362 133.914 43.547 133.64 43.6209C133.372 43.6891 133.106 43.7231 132.846 43.7231C132.077 43.7231 131.47 43.493 131.023 43.03C130.575 42.5697 130.352 41.9277 130.352 41.1095C130.352 40.5953 130.447 40.1379 130.642 39.7345C130.844 39.3339 131.123 39.0243 131.481 38.8027C131.839 38.5839 132.245 38.4731 132.7 38.4731C133.349 38.4731 133.864 38.6891 134.244 39.1209C134.624 39.547 134.815 40.1266 134.815 40.8595C134.815 40.9959 134.787 41.0981 134.736 41.1663C134.683 41.2288 134.594 41.2572 134.468 41.2572H131.179C131.238 42.4476 131.794 43.0413 132.846 43.0413C133.114 43.0413 133.341 43.0072 133.528 42.9391C133.721 42.8652 133.925 42.7629 134.143 42.6322C134.322 42.5356 134.44 42.4845 134.501 42.4845ZM132.712 39.1209C132.278 39.1209 131.929 39.2629 131.66 39.5413C131.397 39.8226 131.246 40.2118 131.202 40.7118H134.099C134.082 40.2061 133.956 39.8141 133.718 39.5413C133.478 39.2629 133.142 39.1209 132.712 39.1209Z" fill="#7B7B7B"/>
<path d="M138.063 38.4731C139.316 38.4731 139.942 39.1379 139.942 40.4618V43.2913C139.942 43.4135 139.903 43.5158 139.83 43.5981C139.763 43.672 139.665 43.7118 139.539 43.7118C139.419 43.7118 139.318 43.672 139.237 43.5981C139.162 43.5158 139.125 43.4135 139.125 43.2913V42.7913C138.997 43.0868 138.801 43.3197 138.533 43.4845C138.27 43.6436 137.965 43.7231 137.615 43.7231C137.294 43.7231 137 43.6578 136.732 43.53C136.463 43.4021 136.251 43.2203 136.094 42.9845C135.938 42.7516 135.859 42.4902 135.859 42.2004C135.859 41.8226 135.952 41.5271 136.139 41.3141C136.332 41.1038 136.645 40.9504 137.078 40.8595C137.518 40.7629 138.124 40.7118 138.902 40.7118H139.125V40.3709C139.125 39.9561 139.042 39.6521 138.879 39.4618C138.714 39.2658 138.443 39.1663 138.063 39.1663C137.599 39.1663 137.129 39.297 136.653 39.5527C136.474 39.6748 136.346 39.7345 136.273 39.7345C136.189 39.7345 136.119 39.7061 136.061 39.6436C136.007 39.5754 135.982 39.493 135.982 39.3936C135.982 39.297 136.01 39.2118 136.072 39.1436C136.131 39.0697 136.223 38.993 136.351 38.9163C136.589 38.78 136.858 38.6748 137.157 38.5981C137.462 38.5158 137.764 38.4731 138.063 38.4731ZM137.727 43.0641C138.136 43.0641 138.471 42.9248 138.734 42.6436C138.994 42.3652 139.125 42.0016 139.125 41.5527V41.2572H138.946C138.348 41.2572 137.895 41.2856 137.582 41.3368C137.269 41.3908 137.045 41.4788 136.911 41.5981C136.776 41.7203 136.709 41.8993 136.709 42.1322C136.709 42.3993 136.804 42.6209 137 42.8027C137.193 42.9788 137.436 43.0641 137.727 43.0641Z" fill="#7B7B7B"/>
<path d="M141.868 43.7116C141.747 43.7116 141.647 43.6718 141.566 43.598C141.49 43.5241 141.454 43.4218 141.454 43.2911V36.7002C141.454 36.5639 141.49 36.4616 141.566 36.3934C141.647 36.3196 141.747 36.2798 141.868 36.2798C141.985 36.2798 142.083 36.3196 142.158 36.3934C142.239 36.4616 142.281 36.5639 142.281 36.7002V43.2911C142.281 43.4218 142.239 43.5241 142.158 43.598C142.083 43.6718 141.985 43.7116 141.868 43.7116Z" fill="#7B7B7B"/>
<path d="M146.117 43.0414C146.355 43.0641 146.475 43.1749 146.475 43.371C146.475 43.4931 146.43 43.584 146.341 43.6437C146.257 43.6948 146.131 43.7176 145.961 43.7119L145.692 43.6891C145.147 43.6437 144.744 43.4789 144.484 43.1891C144.221 42.8937 144.093 42.4562 144.093 41.871V39.2573H143.41C143.29 39.2573 143.198 39.2318 143.131 39.1778C143.069 39.1181 143.041 39.0386 143.041 38.9391C143.041 38.834 143.069 38.7516 143.131 38.6891C143.198 38.6295 143.29 38.5982 143.41 38.5982H144.093V37.4278C144.093 37.2914 144.129 37.1891 144.204 37.121C144.277 37.0471 144.383 37.0073 144.518 37.0073C144.635 37.0073 144.733 37.0471 144.809 37.121C144.881 37.1891 144.92 37.2914 144.92 37.4278V38.5982H146.061C146.165 38.5982 146.251 38.6295 146.319 38.6891C146.386 38.7516 146.419 38.834 146.419 38.9391C146.419 39.0386 146.386 39.1181 146.319 39.1778C146.251 39.2318 146.165 39.2573 146.061 39.2573H144.92V41.9051C144.92 42.2914 144.993 42.5727 145.144 42.746C145.301 42.9136 145.536 43.0045 145.849 43.0187L146.117 43.0414Z" fill="#7B7B7B"/>
<path d="M149.804 38.473C150.391 38.473 150.836 38.6434 151.135 38.9843C151.431 39.3196 151.582 39.8139 151.582 40.473V43.2911C151.582 43.4218 151.543 43.5241 151.47 43.598C151.395 43.6718 151.297 43.7116 151.18 43.7116C151.051 43.7116 150.948 43.6718 150.866 43.598C150.791 43.5241 150.755 43.4218 150.755 43.2911V40.4957C150.755 40.0497 150.665 39.7201 150.486 39.5071C150.307 39.2883 150.019 39.1775 149.625 39.1775C149.169 39.1775 148.803 39.3224 148.529 39.6093C148.26 39.8906 148.126 40.2741 148.126 40.7571V43.2911C148.126 43.4218 148.087 43.5241 148.014 43.598C147.939 43.6718 147.838 43.7116 147.712 43.7116C147.583 43.7116 147.483 43.6718 147.41 43.598C147.335 43.5241 147.298 43.4218 147.298 43.2911V36.6889C147.298 36.5696 147.335 36.4701 147.41 36.3934C147.491 36.3196 147.592 36.2798 147.712 36.2798C147.838 36.2798 147.939 36.3196 148.014 36.3934C148.087 36.4616 148.126 36.561 148.126 36.6889V39.4048C148.288 39.1036 148.517 38.8707 148.808 38.7116C149.099 38.5525 149.429 38.473 149.804 38.473Z" fill="#7B7B7B"/>
<path d="M155.149 43.7231C154.685 43.7231 154.276 43.618 153.918 43.405C153.56 43.1947 153.284 42.8908 153.091 42.4959C152.895 42.1038 152.8 41.6436 152.8 41.1209C152.8 40.5981 152.901 40.1379 153.102 39.7345C153.303 39.3339 153.583 39.0243 153.941 38.8027C154.304 38.5839 154.724 38.4731 155.194 38.4731C155.454 38.4731 155.711 38.5129 155.965 38.5868C156.217 38.655 156.441 38.7572 156.637 38.8936C156.754 38.9788 156.841 39.0612 156.894 39.1436C156.944 39.2203 156.972 39.3084 156.972 39.405C156.972 39.5044 156.944 39.5839 156.894 39.6436C156.841 39.7061 156.774 39.7345 156.692 39.7345C156.648 39.7345 156.595 39.7231 156.536 39.7004C156.483 39.672 156.438 39.6436 156.402 39.6209C156.362 39.5925 156.337 39.5726 156.323 39.5641C156.15 39.4447 155.982 39.3481 155.82 39.28C155.663 39.2118 155.468 39.1777 155.238 39.1777C154.738 39.1777 154.349 39.3538 154.075 39.7004C153.798 40.0413 153.661 40.5158 153.661 41.1209C153.661 41.7288 153.798 42.1976 154.075 42.53C154.349 42.8652 154.738 43.03 155.238 43.03C155.468 43.03 155.666 42.9959 155.831 42.9277C155.993 42.8595 156.161 42.7658 156.335 42.6436C156.407 42.5981 156.48 42.5612 156.547 42.53C156.62 42.493 156.681 42.4731 156.726 42.4731C156.799 42.4731 156.863 42.5044 156.916 42.5641C156.966 42.6266 156.994 42.7061 156.994 42.8027C156.994 42.8936 156.966 42.9788 156.916 43.0527C156.871 43.1209 156.785 43.2004 156.659 43.2913C156.463 43.422 156.234 43.5271 155.965 43.6095C155.697 43.6834 155.423 43.7231 155.149 43.7231Z" fill="#7B7B7B"/>
<path d="M160.021 38.4731C161.274 38.4731 161.9 39.1379 161.9 40.4618V43.2913C161.9 43.4135 161.861 43.5158 161.788 43.5981C161.721 43.672 161.623 43.7118 161.497 43.7118C161.377 43.7118 161.276 43.672 161.195 43.5981C161.12 43.5158 161.083 43.4135 161.083 43.2913V42.7913C160.955 43.0868 160.759 43.3197 160.491 43.4845C160.228 43.6436 159.923 43.7231 159.573 43.7231C159.252 43.7231 158.958 43.6578 158.69 43.53C158.421 43.4021 158.209 43.2203 158.052 42.9845C157.895 42.7516 157.817 42.4902 157.817 42.2004C157.817 41.8226 157.909 41.5271 158.097 41.3141C158.29 41.1038 158.603 40.9504 159.036 40.8595C159.475 40.7629 160.082 40.7118 160.86 40.7118H161.083V40.3709C161.083 39.9561 161 39.6521 160.837 39.4618C160.672 39.2658 160.401 39.1663 160.021 39.1663C159.557 39.1663 159.087 39.297 158.611 39.5527C158.432 39.6748 158.304 39.7345 158.231 39.7345C158.147 39.7345 158.077 39.7061 158.019 39.6436C157.965 39.5754 157.94 39.493 157.94 39.3936C157.94 39.297 157.968 39.2118 158.03 39.1436C158.088 39.0697 158.181 38.993 158.309 38.9163C158.547 38.78 158.816 38.6748 159.115 38.5981C159.42 38.5158 159.722 38.4731 160.021 38.4731ZM159.685 43.0641C160.093 43.0641 160.429 42.9248 160.692 42.6436C160.952 42.3652 161.083 42.0016 161.083 41.5527V41.2572H160.904C160.306 41.2572 159.853 41.2856 159.54 41.3368C159.227 41.3908 159.003 41.4788 158.869 41.5981C158.734 41.7203 158.667 41.8993 158.667 42.1322C158.667 42.3993 158.762 42.6209 158.958 42.8027C159.151 42.9788 159.394 43.0641 159.685 43.0641Z" fill="#7B7B7B"/>
<path d="M165.872 38.4959C166.155 38.4732 166.297 38.5925 166.297 38.8482C166.297 38.9561 166.267 39.0413 166.208 39.1095C166.146 39.1777 166.043 39.2203 165.895 39.2345L165.582 39.2573C165.126 39.3027 164.787 39.4703 164.564 39.7573C164.346 40.047 164.239 40.3823 164.239 40.7686V43.2913C164.239 43.4277 164.197 43.5357 164.116 43.6095C164.041 43.6777 163.943 43.7118 163.825 43.7118C163.705 43.7118 163.605 43.672 163.523 43.5982C163.448 43.5243 163.412 43.422 163.412 43.2913V38.905C163.412 38.7771 163.448 38.6777 163.523 38.6095C163.605 38.5357 163.705 38.4959 163.825 38.4959C163.937 38.4959 164.03 38.5357 164.105 38.6095C164.178 38.6777 164.217 38.7743 164.217 38.8936V39.4845C164.357 39.1749 164.558 38.9391 164.821 38.78C165.081 38.6209 165.383 38.53 165.727 38.5073L165.872 38.4959Z" fill="#7B7B7B"/>
<path d="M170.866 42.4845C170.939 42.4845 171.003 42.5158 171.056 42.5754C171.115 42.6379 171.146 42.7175 171.146 42.8141C171.146 42.9902 171.026 43.1493 170.788 43.2913C170.542 43.4362 170.279 43.547 170.005 43.6209C169.737 43.6891 169.471 43.7231 169.211 43.7231C168.442 43.7231 167.835 43.493 167.388 43.03C166.94 42.5697 166.716 41.9277 166.716 41.1095C166.716 40.5953 166.812 40.1379 167.007 39.7345C167.209 39.3339 167.488 39.0243 167.846 38.8027C168.204 38.5839 168.61 38.4731 169.065 38.4731C169.714 38.4731 170.229 38.6891 170.609 39.1209C170.989 39.547 171.179 40.1266 171.179 40.8595C171.179 40.9959 171.152 41.0981 171.101 41.1663C171.048 41.2288 170.959 41.2572 170.833 41.2572H167.544C167.603 42.4476 168.159 43.0413 169.211 43.0413C169.479 43.0413 169.706 43.0072 169.893 42.9391C170.086 42.8652 170.29 42.7629 170.508 42.6322C170.687 42.5356 170.805 42.4845 170.866 42.4845ZM169.077 39.1209C168.643 39.1209 168.294 39.2629 168.025 39.5413C167.762 39.8226 167.611 40.2118 167.567 40.7118H170.464C170.447 40.2061 170.321 39.8141 170.083 39.5413C169.843 39.2629 169.507 39.1209 169.077 39.1209Z" fill="#7B7B7B"/>
</g>
<defs>
<clipPath id="clip0_1692_13606">
<rect width="192.75" height="60" fill="white"/>
</clipPath>
</defs>
</svg>
