<svg width="148" height="148" viewBox="0 0 148 148" fill="none" xmlns="http://www.w3.org/2000/svg">
<path d="M0 74C0 33.1309 33.1309 0 74 0C114.869 0 148 33.1309 148 74C148 114.869 114.869 148 74 148C33.1309 148 0 114.869 0 74Z" fill="#FC4547"/>
<path d="M94.8335 53.1667L88.9585 59.0417L99.7085 69.8333H57.3335V78.1667H99.7085L88.9585 88.9167L94.8335 94.8333L115.667 74L94.8335 53.1667ZM40.6668 44.8333H74.0002V36.5H40.6668C36.0835 36.5 32.3335 40.25 32.3335 44.8333V103.167C32.3335 107.75 36.0835 111.5 40.6668 111.5H74.0002V103.167H40.6668V44.8333Z" fill="#FBFBFB"/>
</svg>
