<svg width="440" height="413" viewBox="0 0 440 413" fill="none" xmlns="http://www.w3.org/2000/svg">
<path d="M0 16C0 7.16345 7.16344 0 16 0H423.048C431.885 0 439.048 7.16344 439.048 16V396.026C439.048 404.863 431.885 412.026 423.048 412.026H16C7.16346 412.026 0 404.863 0 396.026V16Z" fill="#B6EDE3"/>
<path d="M359.22 244.062L358.469 244.145L367.735 328.819L368.486 328.737L359.22 244.062Z" fill="#292A2E"/>
<path d="M383.219 281.027L378.661 326.123L379.412 326.199L383.97 281.103L383.219 281.027Z" fill="#292A2E"/>
<path d="M391.057 320.672H357.233V331.649H391.057V320.672Z" fill="#292A2E"/>
<path opacity="0.2" d="M391.057 320.672H357.233V331.649H391.057V320.672Z" fill="white"/>
<path d="M411.447 300.461C417.854 291.945 414.799 278.835 404.624 271.179C394.448 263.523 381.005 264.22 374.598 272.735C368.191 281.251 371.245 294.361 381.421 302.017C391.596 309.674 405.039 308.977 411.447 300.461Z" fill="#0CBC8B"/>
<path opacity="0.2" d="M411.447 300.461C417.854 291.945 414.799 278.835 404.624 271.179C394.448 263.523 381.005 264.22 374.598 272.735C368.191 281.251 371.245 294.361 381.421 302.017C391.596 309.674 405.039 308.977 411.447 300.461Z" fill="white"/>
<path opacity="0.5" d="M411.446 300.462C411.01 301.043 410.541 301.587 410.041 302.09C402.988 306.597 392.577 305.887 384.318 299.672C374.143 292.017 371.09 278.908 377.498 270.392C377.933 269.811 378.403 269.27 378.899 268.763C385.956 264.254 396.363 264.966 404.626 271.179C414.8 278.836 417.854 291.946 411.446 300.462Z" fill="white"/>
<path d="M364.245 268.153C374.326 260.372 377.065 247.027 370.365 238.346C363.664 229.666 350.061 228.937 339.98 236.718C329.9 244.499 327.16 257.844 333.861 266.524C340.561 275.205 354.165 275.934 364.245 268.153Z" fill="#0CBC8B"/>
<path opacity="0.2" d="M361.05 265.919C353.244 271.949 343.323 272.868 336.131 268.942C335.31 268.22 334.55 267.412 333.861 266.52C327.159 257.843 329.898 244.496 339.978 236.717C347.785 230.69 357.706 229.768 364.894 233.69C365.718 234.413 366.478 235.224 367.167 236.116C373.869 244.793 371.13 258.14 361.05 265.919Z" fill="white"/>
<path d="M122.966 165.615C143.243 165.615 159.68 149.177 159.68 128.9C159.68 108.624 143.243 92.186 122.966 92.186C102.689 92.186 86.2515 108.624 86.2515 128.9C86.2515 149.177 102.689 165.615 122.966 165.615Z" fill="#F4F4F4"/>
<g opacity="0.05">
<path d="M122.966 158.006C139.04 158.006 152.071 144.975 152.071 128.9C152.071 112.826 139.04 99.7949 122.966 99.7949C106.891 99.7949 93.8604 112.826 93.8604 128.9C93.8604 144.975 106.891 158.006 122.966 158.006Z" fill="#292A2E"/>
</g>
<path d="M113.439 139.296L116.154 135.086C118.307 136.735 120.189 137.576 122.19 137.576C124.59 137.576 125.645 136.581 125.645 134.654C125.645 130.299 114.47 130.377 114.47 122.738C114.47 117.827 117.872 114.699 123.236 114.699C126.858 114.699 129.318 116.193 131.295 118.29L128.182 121.857C126.643 120.458 125.338 119.721 123.571 119.721C121.534 119.721 120.429 120.542 120.429 122.444C120.429 126.481 131.604 126.128 131.604 134.221C131.604 139.082 128.387 142.599 122.19 142.599C119.516 142.599 115.83 141.463 113.439 139.297V139.296ZM120.885 110.549H125.015V116.646H120.885V110.549ZM120.885 140.057H125.015V146.747H120.885V140.057Z" fill="white"/>
<path d="M379.286 153.429C399.563 153.429 416.001 136.991 416.001 116.714C416.001 96.4376 399.563 80 379.286 80C359.009 80 342.572 96.4376 342.572 116.714C342.572 136.991 359.009 153.429 379.286 153.429Z" fill="#F4F4F4"/>
<g opacity="0.05">
<path d="M379.286 145.82C395.361 145.82 408.392 132.789 408.392 116.714C408.392 100.64 395.361 87.6089 379.286 87.6089C363.212 87.6089 350.181 100.64 350.181 116.714C350.181 132.789 363.212 145.82 379.286 145.82Z" fill="#292A2E"/>
</g>
<path d="M369.76 127.11L372.475 122.9C374.627 124.549 376.509 125.39 378.511 125.39C380.91 125.39 381.966 124.395 381.966 122.468C381.966 118.113 370.79 118.191 370.79 110.552C370.79 105.641 374.192 102.513 379.556 102.513C383.178 102.513 385.638 104.007 387.616 106.104L384.502 109.671C382.963 108.272 381.658 107.535 379.891 107.535C377.854 107.535 376.749 108.356 376.749 110.258C376.749 114.295 387.924 113.942 387.924 122.035C387.924 126.896 384.707 130.413 378.511 130.413C375.837 130.413 372.15 129.277 369.76 127.111V127.11ZM377.205 98.3633H381.335V104.46H377.205V98.3633ZM377.205 127.871H381.335V134.561H377.205V127.871Z" fill="white"/>
<path d="M347.95 98.8955H93.3031C87.0496 98.8955 81.9802 103.965 81.9802 110.218V296.659C81.9802 302.912 87.0496 307.982 93.3031 307.982H347.95C354.203 307.982 359.273 302.912 359.273 296.659V110.218C359.273 103.965 354.203 98.8955 347.95 98.8955Z" fill="white"/>
<path d="M347.95 308.359H93.3031C86.8517 308.359 81.6028 303.11 81.6028 296.658V110.218C81.6028 103.767 86.8517 98.5181 93.3031 98.5181H347.95C354.402 98.5181 359.65 103.767 359.65 110.218V296.659C359.65 303.11 354.402 308.359 347.95 308.359ZM93.3031 99.2729C87.2676 99.2729 82.3576 104.183 82.3576 110.218V296.659C82.3576 302.694 87.2676 307.604 93.3031 307.604H347.95C353.985 307.604 358.895 302.694 358.895 296.659V110.218C358.895 104.183 353.985 99.2729 347.95 99.2729H93.3031Z" fill="#292A2E"/>
<path d="M131.477 201.087C131.187 201.087 130.897 200.977 130.676 200.755L125.392 195.471C124.95 195.029 124.95 194.312 125.392 193.87C125.834 193.428 126.551 193.428 126.993 193.87L132.277 199.154C132.719 199.596 132.719 200.313 132.277 200.755C132.056 200.977 131.766 201.087 131.477 201.087Z" fill="#0CBC8B"/>
<path d="M126.193 201.087C125.903 201.087 125.613 200.977 125.392 200.755C124.95 200.313 124.95 199.596 125.392 199.154L130.676 193.87C131.118 193.428 131.835 193.428 132.277 193.87C132.719 194.312 132.719 195.029 132.277 195.471L126.993 200.755C126.772 200.977 126.482 201.087 126.193 201.087Z" fill="#0CBC8B"/>
<path d="M282.769 251.591L281.26 255.051L290.543 259.097L292.051 255.638L282.769 251.591Z" fill="#0CBC8B"/>
<path d="M285.699 158.834L276.968 163.964L278.88 167.218L287.611 162.088L285.699 158.834Z" fill="#0CBC8B"/>
<path d="M140.219 167.619L139.049 171.208L148.678 174.345L149.847 170.757L140.219 167.619Z" fill="#0CBC8B"/>
<path d="M151.591 227.783L143.295 233.59L145.46 236.682L153.755 230.875L151.591 227.783Z" fill="#0CBC8B"/>
<path d="M303.6 214.508L303.253 218.267L313.116 219.176L313.463 215.417L303.6 214.508Z" fill="#0CBC8B"/>
<path d="M313.644 187.473C313.354 187.473 313.065 187.363 312.844 187.142L307.56 181.858C307.117 181.416 307.117 180.699 307.56 180.257C308.002 179.814 308.718 179.814 309.161 180.257L314.445 185.541C314.887 185.983 314.887 186.7 314.445 187.142C314.223 187.363 313.934 187.473 313.644 187.473Z" fill="#0CBC8B"/>
<path d="M308.36 187.473C308.07 187.473 307.781 187.363 307.56 187.142C307.117 186.7 307.117 185.983 307.56 185.541L312.844 180.257C313.286 179.814 314.002 179.814 314.445 180.257C314.887 180.699 314.887 181.416 314.445 181.858L309.161 187.142C308.939 187.363 308.65 187.473 308.36 187.473Z" fill="#0CBC8B"/>
<path opacity="0.4" d="M220.626 269.125C253.88 269.125 280.837 242.168 280.837 208.914C280.837 175.661 253.88 148.704 220.626 148.704C187.373 148.704 160.416 175.661 160.416 208.914C160.416 242.168 187.373 269.125 220.626 269.125Z" fill="#0CBC8B"/>
<path d="M220.626 251.023C243.882 251.023 262.735 232.171 262.735 208.915C262.735 185.659 243.882 166.806 220.626 166.806C197.371 166.806 178.518 185.659 178.518 208.915C178.518 232.171 197.371 251.023 220.626 251.023Z" fill="#0CBC8B"/>
<path d="M212.016 226.98C211.371 226.98 210.728 226.727 210.247 226.226L196.843 212.277C195.905 211.301 195.936 209.747 196.913 208.809C197.89 207.87 199.442 207.901 200.381 208.878L212.142 221.117L242.889 193.535C243.897 192.63 245.448 192.714 246.353 193.723C247.258 194.731 247.174 196.283 246.165 197.187L213.654 226.353C213.186 226.772 212.6 226.98 212.016 226.98L212.016 226.98Z" fill="white"/>
<path d="M359.273 110.217V121.611H81.9812V110.217C81.9812 103.963 87.0504 98.894 93.3041 98.894H347.949C354.203 98.894 359.272 103.963 359.272 110.217H359.273Z" fill="#292A2E"/>
<path d="M30.152 309.347C25.8233 309.347 21.6969 307.36 18.9983 303.904C15.9826 300.042 15.1791 294.895 16.8745 290.297C17.6754 288.125 38.2086 235.12 41.7829 225.907L66.4932 240.286C64.4834 245.466 57.2016 265.1 51.3515 280.916L61.0703 279.86L64.1293 305.737L31.6833 309.264C31.1715 309.32 30.6604 309.347 30.152 309.347Z" fill="#085345"/>
<path d="M47.1138 310.167L42.7979 331.649H126.624L121.796 309.758L47.1138 310.167Z" fill="#262626"/>
<path d="M110.976 214.886C110.89 214.875 108.512 223.823 89.9537 222.431C77.106 221.468 73.9733 212.723 73.679 212.723C75.0641 212.429 77.3136 212.123 77.9288 211.795C79.9518 210.708 81.4257 209.385 82.1673 206.545C82.7474 204.324 83.043 195.774 83.043 191.485L102.813 195.928C102.537 200.766 100.609 211.984 107.368 213.969C108.493 214.297 109.705 214.599 110.976 214.886Z" fill="#FF9E85"/>
<path d="M102.129 205.44C94.3347 206.055 84.323 202.765 82.4215 192.366L80.7058 182.984C78.8039 172.586 82.7239 163.158 92.5144 161.367C102.305 159.577 111.164 166.668 113.066 177.066L113.826 181.219C114.555 185.209 116.034 204.343 102.129 205.44Z" fill="#FF9E85"/>
<path d="M65.2383 214.163C58.2347 214.682 51.0934 215.441 45.9399 220.212C39.7335 225.958 38.6091 233.023 42.5684 252.466C45.975 269.195 44.6238 276.506 46.9028 307.376C46.9699 308.286 47.1137 310.167 47.1137 310.167L122.034 310.043C122.034 310.043 129.054 269.085 132.93 250.194C135.877 235.833 143.619 218.398 110.977 214.885C110.891 214.875 84.711 212.718 65.2379 214.163L65.2383 214.163Z" fill="#085345"/>
<path d="M47.1137 310.356C47.0126 310.356 46.9292 310.276 46.925 310.174L44.577 249.229C44.5733 249.125 44.6544 249.037 44.7582 249.033C44.8733 249.026 44.9503 249.11 44.9545 249.214L47.3024 310.16C47.3062 310.264 47.2251 310.351 47.1213 310.356C47.1186 310.356 47.116 310.356 47.1137 310.356Z" fill="#0C0C0C"/>
<path d="M167.33 235.923L172.593 224.116C173.078 223.029 174.394 222.573 175.459 223.162C176.402 223.685 176.726 224.893 176.287 225.878L175.158 228.41L182.362 222.078C183.151 221.36 184.577 220.983 185.325 221.921C185.979 222.639 186.024 223.695 185.492 224.461C185.5 224.468 185.51 224.472 185.516 224.481C185.522 224.487 185.524 224.495 185.528 224.501L186.744 223.394C187.682 222.54 189.198 222.721 189.888 223.872C190.393 224.714 190.168 225.808 189.442 226.47L188.925 226.941C188.932 226.963 188.935 226.985 188.933 227.007C189.783 226.531 190.889 226.711 191.533 227.518C192.216 228.374 192.045 229.633 191.236 230.369L189.951 231.539C190.01 231.533 190.07 231.551 190.113 231.599C190.138 231.627 190.15 231.661 190.155 231.695C190.998 231.491 191.94 231.829 192.43 232.69C192.907 233.527 192.672 234.595 191.959 235.244L181.113 245.118C178.009 247.944 173.501 248.603 169.718 246.786C166.402 245.193 164.955 241.251 166.453 237.891L167.33 235.924V235.923Z" fill="#FF9E85"/>
<g opacity="0.2">
<path d="M178.393 230.764C178.463 230.839 178.58 230.846 178.657 230.778L185.5 224.747C185.578 224.678 185.585 224.559 185.516 224.481C185.457 224.402 185.328 224.395 185.25 224.464L178.407 230.495C178.329 230.564 178.321 230.683 178.39 230.761L178.393 230.764Z" fill="#0C0C0C"/>
</g>
<g opacity="0.2">
<path d="M180.97 233.856C181.039 233.931 181.156 233.937 181.233 233.869L188.87 227.138C188.948 227.069 188.956 226.951 188.887 226.872C188.823 226.801 188.698 226.786 188.62 226.855L180.983 233.586C180.905 233.655 180.898 233.774 180.967 233.853L180.97 233.856V233.856Z" fill="#0C0C0C"/>
</g>
<g opacity="0.2">
<path d="M183.741 237.22C183.811 237.295 183.928 237.301 184.005 237.233L190.096 231.865C190.174 231.796 190.182 231.677 190.113 231.598C190.042 231.521 189.925 231.513 189.846 231.582L183.755 236.95C183.677 237.019 183.669 237.138 183.738 237.217L183.741 237.22V237.22Z" fill="#0C0C0C"/>
</g>
<path d="M109.355 195.894C107.956 188.864 107.315 184.175 107.389 179.227C109.36 175.771 108.842 171.804 108.394 170.089C110.325 171.143 111.133 171.258 112.95 171.258C112.95 171.258 109.692 158.18 98.6155 154.661C96.5789 153.868 91.3787 152.867 84.474 153.814C78.6012 154.619 64.1245 159.01 62.0566 175.308H62.0558C62.0558 175.308 62.0558 175.313 62.0555 175.318C61.9871 175.858 60.5971 190.875 57.826 198.079C54.1008 207.764 48.8707 210.774 49.0032 221.949C49.1738 236.323 75.5991 238.236 91.5379 237.161C107.477 236.085 116.374 230.845 116.489 220.486C116.618 208.879 112.155 209.957 109.356 195.894L109.355 195.894Z" fill="#0A0A0A"/>
<path d="M109.36 190.002C106.384 190.546 103.39 187.804 102.846 184.828C102.302 181.853 104.414 179.771 107.39 179.227L109.36 190.002Z" fill="#FF9E85"/>
<path d="M141.361 307.205C140.778 307.205 140.191 307.169 139.603 307.095C134.148 306.413 129.582 302.636 127.891 297.405L108.226 236.589L135.16 227.88L145.503 259.869L163.375 231.446L187.339 246.514L153.339 300.585C150.728 304.737 146.183 307.205 141.361 307.205Z" fill="#085345"/>
<path d="M125.493 290.414C125.482 290.414 125.47 290.413 125.458 290.411C125.356 290.392 125.288 290.293 125.307 290.191L131.992 253.904C132.011 253.801 132.108 253.732 132.212 253.752C132.314 253.771 132.382 253.87 132.363 253.973L125.678 290.259C125.661 290.35 125.582 290.414 125.493 290.414Z" fill="#0C0C0C"/>
<path d="M147.908 268.434C147.823 268.434 147.747 268.378 147.725 268.293L145.498 259.715C145.472 259.614 145.533 259.511 145.634 259.485C145.736 259.458 145.838 259.52 145.864 259.62L148.09 268.198C148.116 268.299 148.056 268.402 147.955 268.428C147.939 268.432 147.923 268.434 147.908 268.434V268.434Z" fill="#0C0C0C"/>
<path d="M24.5925 332.026H401.886C402.094 332.026 402.263 331.857 402.263 331.649C402.263 331.441 402.094 331.271 401.886 331.271H24.5925C24.3842 331.271 24.2151 331.441 24.2151 331.649C24.2151 331.857 24.3842 332.026 24.5925 332.026Z" fill="#292A2E"/>
<path d="M313.407 205.32H385.625C389.435 205.32 392.524 202.232 392.524 198.422V151.092C392.524 147.282 389.435 144.193 385.625 144.193H313.407C309.597 144.193 306.508 147.282 306.508 151.092V198.422C306.508 202.232 309.597 205.32 313.407 205.32Z" fill="#292A2E"/>
<path d="M326.064 152.709H317.047C315.488 152.709 314.224 153.973 314.224 155.531V160.783C314.224 162.342 315.488 163.606 317.047 163.606H326.064C327.623 163.606 328.886 162.342 328.886 160.783V155.531C328.886 153.973 327.623 152.709 326.064 152.709Z" fill="white"/>
<path d="M328.887 153.917V156.474H323.919L323.118 155.673V152.708H327.678C328.345 152.708 328.886 153.25 328.886 153.917L328.887 153.917Z" fill="#0CBC8B"/>
<path d="M328.887 159.84V162.397C328.887 163.065 328.345 163.605 327.678 163.605H323.118V160.561L323.919 159.84H328.887Z" fill="#0CBC8B"/>
<path d="M319.913 152.709V155.674L319.192 156.475H314.224V153.918C314.224 153.25 314.765 152.709 315.432 152.709H319.912L319.913 152.709Z" fill="#0CBC8B"/>
<path d="M319.913 160.561V163.605H315.433C314.765 163.605 314.224 163.064 314.224 162.397V159.84H319.192L319.913 160.561Z" fill="#0CBC8B"/>
<path d="M385.839 193.183C385.839 196.709 382.955 199.593 379.429 199.593C377.907 199.593 376.545 199.032 375.423 198.151C373.981 196.949 373.02 195.186 373.02 193.183C373.02 191.18 373.981 189.337 375.423 188.216C376.545 187.334 377.907 186.773 379.429 186.773C382.954 186.773 385.839 189.658 385.839 193.183Z" fill="white"/>
<path d="M373.019 198.151C371.898 199.032 370.536 199.593 369.013 199.593C365.488 199.593 362.604 196.709 362.604 193.183C362.604 189.658 365.488 186.773 369.013 186.773C370.536 186.773 371.898 187.334 373.019 188.216C371.577 189.417 370.933 191.18 370.933 193.183C370.933 195.186 371.577 197.029 373.019 198.151Z" fill="#0CBC8B"/>
<path d="M328.185 172.398H315.403C314.752 172.398 314.224 172.926 314.224 173.578V173.578C314.224 174.229 314.752 174.757 315.403 174.757H328.185C328.837 174.757 329.365 174.229 329.365 173.578V173.578C329.365 172.926 328.837 172.398 328.185 172.398Z" fill="white"/>
<path d="M347.01 172.398H334.228C333.577 172.398 333.049 172.926 333.049 173.578V173.578C333.049 174.229 333.577 174.757 334.228 174.757H347.01C347.662 174.757 348.19 174.229 348.19 173.578V173.578C348.19 172.926 347.662 172.398 347.01 172.398Z" fill="white"/>
<path d="M365.835 172.398H353.053C352.402 172.398 351.874 172.926 351.874 173.578V173.578C351.874 174.229 352.402 174.757 353.053 174.757H365.835C366.486 174.757 367.014 174.229 367.014 173.578V173.578C367.014 172.926 366.486 172.398 365.835 172.398Z" fill="white"/>
<path d="M384.66 172.398H371.878C371.227 172.398 370.699 172.926 370.699 173.578V173.578C370.699 174.229 371.227 174.757 371.878 174.757H384.66C385.311 174.757 385.839 174.229 385.839 173.578V173.578C385.839 172.926 385.311 172.398 384.66 172.398Z" fill="white"/>
</svg>
